<?xml version="1.0" encoding="UTF-8"?>
<!-- Generator: Adobe Illustrator 28.1.0, SVG Export Plug-In . SVG Version: 6.00 Build 0)  -->
<svg xmlns="http://www.w3.org/2000/svg" xmlns:xlink="http://www.w3.org/1999/xlink" version="1.1" id="Layer_1" x="0px" y="0px" viewBox="0 0 1125 1125" style="enable-background:new 0 0 1125 1125;" xml:space="preserve">
<style type="text/css">
	.st0{fill:#338C9A;}
	.st1{fill:#284587;}
	.st2{fill:#FFFFFF;}
</style>
<g>
	<g>
		<path class="st0" d="M669.7,412.6V185.7h-235v0.1h-0.1v96.8h0.1v235.1h0.2v0.4h234.9L669.7,412.6L669.7,412.6z M506.7,494.8h-40    v-11h40V494.8z M506.7,471.8h-40v-244l12-17.3h16l12,17.3V471.8z M570.7,494.8h-40v-11h40V494.8z M570.7,471.8h-40v-244l12-17.3    h16l12,17.3V471.8z M636.7,494.8h-40v-11h40V494.8z M636.7,471.8h-40v-244l12-17.3h16l12,17.3V471.8z"></path>
		<path class="st0" d="M739.6,770.2c0.4,7.6,1.1,14.7,0.9,21.8c-0.2,6.4,2.5,11.1,7.1,14.7c10.5,8.2,21.3,15.8,31.9,23.7    c5.2,3.8,10.3,7.8,16.2,12.2c-11.9,11.9-23.3,23.3-34.7,34.6c13,14.5,25.9,28.8,39.3,43.7c-9.6,5.2-18.7,10.1-27.7,14.9    c-9-15.5-17.7-30.3-26.4-45.1c-6.6,4-13.2,8.1-20,12.2c8.4,14.5,16.6,28.4,25.1,43c-10.6,4.3-20.8,8.4-31.4,12.7    c-1-1.9-1.7-3.2-2.2-4.4c-9.4-20.8-18.7-41.7-28-62.5c-2-4.4-4.9-5.4-9-2.7c-12.1,8.1-24.1,16.2-36.2,24.2    c-12.1,8-24.3,15.8-36.5,23.7c-3.2,2.1-6.4,4.2-10.3,6.8v-86.9h-24.1v128.4h-20.8v-5.6c0-22.5-0.1-45,0.1-67.5    c0-3.1-1.1-4.8-3.4-6.3c-6.4-4.2-13.1-8.1-19.2-12.6c-2.6-2-4.6-1.9-7.1-0.5c-7.9,4.3-15.8,8.5-23.7,12.8    c-13.2,7.1-26.4,14.2-39.6,21.5c-1,0.5-1.8,2.1-2,3.3c-1.1,6.6-2.1,13.3-2.9,19.9c-0.6,5.2-0.8,9.7,4.1,14.3    c12.8,12,24.8,25,37,37.7c2.3,2.4,4.4,5.1,6.9,8c5.3-7.7,10.1-14.7,15-22c-12-13.8-24-27.6-36.1-41.2c-2.4-2.7-2.7-4,0.8-5.7    c5.8-2.9,11.3-6.4,17.1-9.4c9.8-5.1,19.7-10.1,30.3-15.5c-0.7,31.4-1.3,62-2,92.9c136.2,3.7,258.1-32.8,360.6-125.8    C839,845.2,788.7,809,739.6,770.2z M597.7,983.8c0-3.7-0.1-6.8,0.1-9.9c0.1-0.9,0.8-2.1,1.6-2.6c21.9-15,44-29.9,66-44.8    c2.4-1.6,4.9-3.2,7.4-4.7c3.8-2.4,6.2-1.4,7.9,2.8c5.4,13.4,11,26.8,16.7,40.8C664.9,975.1,631.9,980.8,597.7,983.8z M800.7,886.8    c-1.7-1.9-3.3-4.1-5.2-5.9c-2.2-2-2.3-3.5-0.1-5.7c6.2-6,12.2-12.3,18.6-18.7c12.5,9.3,24.9,18.6,38.2,28.4    c-10.7,7.8-20.9,15.4-31.6,23.3C813.7,900.8,807.2,893.8,800.7,886.8z"></path>
		<path class="st0" d="M257.9,604.3c4.8,9.1,9.6,18.1,14.8,27.9c17.6-9.6,35-19.2,52.8-28.9c3.7,6.8,7.4,13.5,11.2,20.5    c-7.8,4.3-15.3,8.5-23,12.7c-8.4,4.6-16.9,9.3-25.4,13.8c-2.6,1.4-3,2.8-1.5,5c9.7,13.9,19.2,28,29.2,41.7    c4.9,6.8,10.7,12.9,16.1,19.3c1.1,1.2,2.4,2.2,3.7,3.5c18-12.8,35.8-25.5,54.6-38.9c-15.2-3-29.5-5.8-44.7-8.8    c3.5,4.9,6.4,8.9,9,12.9c0.5,0.8,0.6,3.1,0,3.4c-5.6,3.8-11.5,7.4-17.5,11.2C327,686,317,672.6,307,659.1c4-2.6,8.1-4.5,11.3-7.5    c6.7-6.2,13.9-4.4,21.4-2.7c20,4.3,40.1,8.4,60.2,12.7c4.6,1,9.1,2.2,13.9,3.3c0,7.9,0.6,15.6-0.3,23.1c-0.3,2.5-4.1,4.9-6.6,6.9    C390,707.7,373,720.3,356.1,733c-7.3,5.5-14.5,11.1-22.4,17.1c-49.3-44-79.1-100.9-107.8-159.7c25.3-9.5,49.7-18.6,74.2-27.7    c0-0.4-0.1-0.7-0.1-1.1c-3.3,0-6.6-0.1-9.9,0c-16.3,0.3-32.5,0.7-48.8,1c-19.9,0.4-39.8,0.6-59.8,1c-5.9,0.1-11.9,0.6-17.8,1    c-1,0.1-2.4,0.9-2.9,1.7c-4.3,6.3-8.6,12.7-12.6,19.2c-0.8,1.3-1,3.5-0.5,5c4.1,12.7,8.6,25.2,12.7,37.9c0.5,1.6,0.2,4-0.6,5.5    c-3.1,5.8-6.4,11.3-9.8,16.9c-0.7,1.1-2,1.8-3,2.7c-0.8-1-2-1.9-2.4-3c-4.9-15-9.7-30-14.6-45c-1.9-5.9-4.1-11.6-5.7-17.6    c-0.5-2-0.1-4.8,0.9-6.5c7.1-11.5,14.4-22.9,22.1-34.1c1.3-1.9,4.5-3.6,6.8-3.6c51.6-0.5,103.1-0.8,154.7-1.2    c10.4-0.1,20.9-0.6,31.3-1c12.1-0.4,12.3,2.4,13.9,12.4c0.2,1.3,0.3,2.6,0.6,3.9c1,4.1,0.3,7.2-4.2,9    c-18.7,7.5-37.4,15.1-56.1,22.8C282.3,594.3,270.4,599.2,257.9,604.3z"></path>
		<path class="st0" d="M226.2,775.5c11.7-8,23.2-15.9,35.1-24.1c4,5.7,8.2,11.5,12.1,17.4c0.4,0.6-0.8,2.9-1.9,3.6    c-14.7,10.4-29.4,20.6-44.2,30.8c-7.1,4.9-14.3,9.7-21.8,14.9c8.1,10.9,16,21.6,24.2,32.5c47.9-38.4,95.7-76.6,143.9-115.2    c4.8,5.9,9.6,11.8,14.8,18.2c-53.6,43.2-107,86.2-161.1,129.8c-18-24.4-35.5-48.2-53.1-72c11.5-8,21.9-15.2,32.1-22.3    c-16.9-29.3-33.8-58.6-51.2-88.7c-9.5,5.3-19.9,11.2-30.6,17.2c-13.5-26.8-23.4-54.7-31.9-83.1c-8.4-28.3-15.5-57-18.1-87.1    c7.5-0.8,15.3-1.6,23.4-2.4c4.7,49,16.8,95.2,36.7,140c21.4-12,42.4-23.7,64-35.7c3.8,6.7,7.5,13.4,11.5,20.5    c-11.1,6.2-22.1,12.2-33.6,18.6c2.3,4.6,4.6,9.2,7,14c11.2-6.6,22.4-13.3,33.8-20c3.9,6.5,7.8,12.9,12,19.9    c-11.6,7-23.1,13.8-34.9,20.9c3.1,5.3,6,10.4,9.3,16.1c5-3.3,9.7-6.4,14.4-9.5c6-4,12-7.8,17.9-12c2.1-1.5,3.4-1.8,4.8,0.5    c2.9,4.5,5.9,9,8.7,13.6c1.6,2.5,1.7,4.2-1.6,6.2c-10,6.2-19.6,12.9-29.3,19.6c-0.9,0.6-1.6,3-1.1,3.9    C220.2,766.2,223.2,770.8,226.2,775.5z"></path>
		<path class="st0" d="M682.7,625.3c9.3,7.2,18.2,14.3,27.4,21c23.3,16.8,46.7,33.4,70.1,50.2c11,7.9,21.9,16,32.9,23.9    c15.4,11,30.8,22,46.2,33c21,15,41.9,30,62.8,45.2c5.5,4,6.3,4.2,11-1.2c10.8-12.4,20.4-25.6,27.5-40.4    c8.7-18.2,16.8-36.7,25.2-55.1c1.4-3,0.9-5.1-1-7.9c-13.7-20.7-27.1-41.5-40.6-62.2c-5.4-8.2-10.9-16.3-16.3-24.4    c-0.4-0.7-1.2-1.3-1.2-2.1c-0.4-5.6-0.9-11.2-1-16.8c-0.1-3,1.6-4.1,4.7-4.1c29.1,0.1,58.3,0,87.4,0.2c2,0,4.5,1.7,5.7,3.3    c4.6,5.9,9,12,13.1,18.3c1.1,1.7,1.7,4.3,1.2,6.2c-5,19.2-10.3,38.3-15.7,58.4c-4.2-0.9-8.4-1.8-12.6-2.8    c-1.6-0.4-3.1-1.4-4.6-1.4c-4.6-0.2-5.1-3-4.2-6.4c3.8-14.5,7.9-28.9,11.8-43.3c0.7-2.5,0.9-5.1,1.4-8c-1.9-0.2-3.2-0.3-4.5-0.3    c-16,0-32,0-48,0c-1.3,0-3.5,0.4-3.7,1.1c-0.4,1.2,0.1,3.1,0.8,4.3c11.6,17.1,23.4,34.2,35.1,51.3c6.3,9.2,12.4,18.4,18.5,27.6    c0.6,0.8,0.7,2.4,0.3,3.3c-4.6,12.5-8.8,25.2-14.2,37.4c-10.3,23.1-21.4,46-36.7,66.3c-7,9.2-14.9,17.7-22.5,26.5    c-0.1,0.1-0.2,0.2-0.4,0.4c-7.6,7.7-7.5,7.7-16.2,1.3c-19.7-14.3-39.2-28.8-59-43c-28.5-20.4-57.2-40.6-85.8-61    c-28.3-20.2-56.5-40.5-84.7-60.8c-6.8-4.9-11.6-10.8-10.6-20.2C683.2,637,682.7,631,682.7,625.3z"></path>
		<path class="st1" d="M552.6,804.7c0-7.4,0-13.9,0-20.9c-39.1,0-78.2,0-117.5,0c0-8.3,0-16,0-24c47,0,93.9,0,141.4,0    c0,14.7,0,29.4,0,44.4c8.6,0,16.6,0,25.2,0c0-2.1,0-4.1,0-6c0-82.7,0-165.3,0-248c0-7.7,0-7.7,7.9-7.7c4.2,0,8.4-0.3,12.5,0.2    c1.3,0.1,2.5,2.1,3.5,3.4c0.4,0.5,0.1,1.6,0.1,2.5c0,91.5,0,183,0,274.5c0,1.6,0,3.3,0,5.2c-63.6,0-126.9,0-190.5,0    c0-7.6,0-15.3,0-23.6C474.1,804.7,513.2,804.7,552.6,804.7z"></path>
		<path class="st0" d="M944.4,671.7c5.2,7.4,10.2,14,14.5,21c1.1,1.8,1.2,5.2,0.2,7.2c-7.2,15-14.8,29.8-22.2,44.7    c-1.6,3.3-3.6,4.9-7.8,5.1c-9.3,0.4-18.6,2-27.9,2.8c-2.1,0.2-4.8-0.2-6.5-1.4c-18.8-12.6-37.6-25.3-56.3-38.2    c-20.4-14.1-40.8-28.3-61-42.6c-1.6-1.1-2.8-3.8-2.8-5.7c-0.3-9-0.1-18-0.1-27c0-4.2,1.6-6.9,6.2-6.1c8.8,1.6,17.6,3.4,26.3,5.2    c24.2,5.2,48.4,10.5,72.5,15.7c2.7,0.6,5.3,1.3,8.9,2.3c1.1-15.2,2.2-29.9,3.4-45.2c-18.5,0-36.1,0-54.1,0c0-8.1,0-15.8,0-24.1    c4.5,0,8.9,0,13.3,0c11.7,0,23.4,0.7,35-0.2c8.7-0.7,13.8,2.7,18,9.5c3,4.9,6.3,9.5,9.3,14.4c1,1.7,2,4,1.9,5.9    c-0.7,9.8-2,19.6-2.8,29.4c-0.6,7.1-0.5,14.2-1.1,21.3c-0.4,4.5-0.3,9.2-4.2,12.6c-2.9,2.5-5.8,3.5-9.8,2.6    c-21.3-4.6-42.7-9-64-13.5c-9-1.9-18-4-27.4-5.4c4.5,3.2,9,6.5,13.5,9.7c25.9,18.2,51.8,36.4,77.8,54.6c5.3,3.7,11.1,1.6,16.8,1.9    c9.4,0.5,11-7,13.5-13.3c5.4-13.6,10.6-27.3,15.9-40.9C943.6,673.5,943.8,673,944.4,671.7z"></path>
		<path class="st1" d="M579.7,647.5c0,22.6,0,44.4-0.1,66.2c0,1.2-0.6,2.5-1.2,3.6c-3.8,6.1-7.7,12.1-11.7,18.1c-0.9,1.3-2.6,3-4,3    c-13.8,0.2-27.6,0.1-41.7,0.1c0-8,0-15.6,0-23.7c11.2,0,22.6,0,34.3,0c0-12.2,0-23.9,0-35.7c-16.8,15.6-33.5,31-50.1,46.4    c-0.7,0.7-1.6,1.3-2.1,2.1c-6.5,9.5-15.4,11.8-26.6,11.1c-13.6-0.9-27.3-0.2-41.4-0.2c0-64.9,0-129.6,0-194.6c7.2,0,14.6,0,22.4,0    c0,56.6,0,113.2,0,170.5c8.1,0,15.8,0.1,23.6-0.1c1.2,0,2.6-1.3,3.7-2.3c12.3-11.2,24.5-22.5,36.7-33.7    c10.7-9.8,21.5-19.6,32.3-29.3c0.8-0.7,2-1.4,3-1.4C564.3,647.5,571.7,647.5,579.7,647.5z"></path>
		<path class="st0" d="M349.8,918.8c9.7,13.9,19.3,27.6,29,41.5c-5.9,3.2-11.6,6.4-17.5,9.2c-1.2,0.6-3.8,0.1-4.5-0.8    c-8.7-11.4-17.4-22.9-25.6-34.7c-1.5-2.1-1.4-5.7-1.1-8.5c0.7-6.8,1.6-13.6,3-20.4c0.5-2.2,2-5,3.9-6c22.8-12,45.7-23.7,68.6-35.6    c10.7-5.6,21.3-11.4,32.1-16.8c1.6-0.8,4.6-0.7,6.1,0.3c7.4,5,14.6,10.5,22.3,16.1c-17.3,34.6-34.6,69.2-52.1,104.3    c19.7,7.5,40.2,11.2,61.8,14.9c-5.6,7.5-10.6,14.2-15.7,21c-26.8-4.6-53-11.6-78.3-24c17.4-33.6,34.6-67,52.6-101.7    C405.5,891.7,377.8,905.2,349.8,918.8z"></path>
		<path class="st0" d="M739.9,566.5c0-8,0-15.2,0-23c2,0,3.8,0,5.6,0c99.4,0,198.9,0,298.3,0c6.7,0,6.7,0,6.7,6.9c0,4-0.1,8,0,12    c0.1,3-1,4.4-4.1,4.1c-1-0.1-2,0-3,0c-99.3,0-198.5,0-297.8,0C743.9,566.5,742.1,566.5,739.9,566.5z"></path>
		<path class="st1" d="M647,542.5c6.8,0,13.3,0.1,19.7,0c2.7,0,4.1,0.9,3.9,3.8c-0.1,0.8,0,1.7,0,2.5c0,90.8,0,181.6,0,272.4    c0,1.6,0,3.2,0,5.1c-8.1,0-15.7,0-23.6,0C647,731.8,647,637.5,647,542.5z"></path>
		<path class="st0" d="M682.7,676.2c20.4,15.4,40.9,30.8,61.4,46.1c22.1,16.5,44.2,33.1,66.4,49.5c9.4,7,19.1,13.7,28.5,20.6    c18.3,13.5,36.4,27.1,54.6,40.6c6.9,5.2,13.8,10.4,20.9,15.4c2.6,1.8,2.7,3.4,1,5.7c-2.7,3.7-5.3,7.4-8.1,11.1    c-2.7,3.6-6,2.9-9.1,0.6c-22.9-16.8-45.7-33.7-68.6-50.6c-18-13.3-35.9-26.6-53.9-40c-28.3-21-56.7-42-85-63.1    c-5.3-4-8.8-9.1-8.3-16.4C683,688.8,682.7,682,682.7,676.2z"></path>
		<path class="st1" d="M520.8,598.2c12.8,0,25.1,0,37.6,0c0-10.5,0-20.9,0-31.6c-27.4,0-54.6,0-82.2,0c0-7.7,0-15.1,0-23.2    c1.7,0,3.5,0,5.2,0c28.6,0,57.3,0.1,85.9-0.1c6,0,9.9,3.7,14.3,6.6c0.7,0.5,1.1,2,1.1,3.1c0,22.8,0,45.6-0.1,68.5    c0,0.1-0.2,0.3-0.7,1c-1.4,0-3.1,0-4.9,0c-19.7,0-39.3,0.1-59-0.1c-2.6,0-5.4-0.9-7.7-2.2c-3.7-2.1-7.3-4.5-10.4-7.3    c-1.6-1.4-3-4.1-3-6.2c-0.3-10.2-0.2-20.3-0.1-30.5c0-1.5,0.6-4.1,1.4-4.2c1.4-0.3,3.3,0.4,4.8,1.3c3.4,1.9,6.5,4.3,9.9,6.3    c5.7,3.3,9.3,7.6,7.9,14.8C520.6,595.3,520.8,596.5,520.8,598.2z"></path>
		<path class="st0" d="M244.4,902.3c9.1-7.8,18-15.3,26.8-23c7.2-6.3,14.2-12.8,21.4-19.1c13.4-11.8,26.9-23.6,40.3-35.4    c8.9-7.8,17.8-15.7,26.6-23.6c11.8-10.5,23.6-21.1,35.6-31.4c0.8-0.7,3.6-0.5,4.4,0.3c3.9,3.8,7.5,7.9,11.3,11.9    c1.9,1.9,2.7,2.8-0.1,5.2c-12.8,10.9-25.2,22.3-37.7,33.5c-16.8,14.9-33.7,29.8-50.6,44.6c-10.8,9.5-21.6,18.9-32.3,28.3    c-9,8-18,16-27,24c-0.7,0.6-1.7,1-3,1.7C255.1,914,250,908.5,244.4,902.3z"></path>
		<path class="st0" d="M435,174.2c0-3.6,0-6.9,0-10.4c78.1,0,156,0,234.2,0c0,3.3,0,6.7,0,10.4C591.4,174.2,513.4,174.2,435,174.2z"></path>
		<path class="st1" d="M499.8,652c4.5,1.2,6.3,0,6-4.4c-0.2-3.5,0-7-0.1-10.5c-0.1-4.4,2.9-3.7,5.5-3.6c2.8,0.1,6.4-1,6.5,3.8    c0.1,8.5,0,17,0,25.5c0,2.8-1.2,3.8-3.9,3.8c-14.1-0.1-28.3-0.1-42.4,0c-2.8,0-3.8-1.2-3.7-3.9c0.1-8.3,0.1-16.6,0-25    c0-5.1,3.8-3.9,6.7-4.1c3.1-0.3,5.7-0.1,5.4,4.3c-0.3,3.5-0.3,7,0.1,10.5c0.2,1.5,1.6,3.8,2.8,4.1c3.1,0.7,3.1-2,3.1-4.2    c0-3.7-0.3-7.4,0.2-11c0.2-1.3,2-3,3.4-3.4c1.8-0.6,4.2-0.8,5.9,0c1.8,0.9,4.1,2.8,4.3,4.6C500.2,642.8,499.8,647.5,499.8,652z"></path>
		<path class="st0" d="M682.7,554.5c1,0.7,1.1,0.8,1.2,0.9c8.5,7.9,8.5,7.9,16.7-0.3c2-2,4.2-3.9,6-6c2.6-3.2,5.6-4.4,9.9-3.2    c0,19.6,0,39.4,0,59.3c-1.7,0-3.3,0-5.4,0c0-7.1,0-14.4,0-22.4c-6.1,4.6-11.4,8.7-16.8,12.7c-0.7,0.6-1.5,1.4-2.3,1.5    c-2.4,0.1-9.2-7.9-9.2-10.4C682.7,576.2,682.7,565.8,682.7,554.5z"></path>
		<path class="st1" d="M656.5,114.8c4.6,0,8.6,0,12.8,0c0,12.4,0,24.8,0,37.5c-12.3,0-24.7,0-37.3,0c0-4.1,0-8.1,0-12.6    c3.8,0,7.4,0,11.5,0c0-4.1,0-7.8,0-12c4.6,0,8.6,0,13,0C656.5,123.2,656.5,119.3,656.5,114.8z"></path>
		<path class="st1" d="M471.6,139.4c0,4.6,0,8.6,0,12.8c-12.1,0-24.2,0-36.5,0c0-12.4,0-24.8,0-37.4c3.7,0,7.3,0,11.4,0    c0,3.9,0,8,0,12.6c4.6,0,8.6,0,13.2,0c0,4.2,0,8,0,12C463.8,139.4,467.4,139.4,471.6,139.4z"></path>
		<path class="st1" d="M765,597.3c-2.4,2.7-4.6,5.4-7,7.9c-2.2,2.3-4.3,4.7-6.8,6.7c-0.8,0.7-3.1,0.9-3.7,0.3    c-4.4-4.3-8.7-8.8-12.8-13.4c-0.7-0.8-0.5-3.2,0.3-4.1c3.6-4,7.6-7.7,11.3-11.6c1.8-1.9,3.3-2.4,5.4-0.3c3.9,4.1,8,8,11.9,12.1    C764.1,595.5,764.4,596.3,765,597.3z"></path>
		<path class="st1" d="M278.3,727.3c7.2,1.5,13.9,2.8,20.5,4.4c0.7,0.2,1.3,2.6,1.1,3.8c-1.2,6.2-2.7,12.4-4.3,19.5    c-7.2-1.7-14.3-3.2-21.3-5c-0.5-0.1-1.1-2.3-0.8-3.3C274.8,740.3,276.5,734.2,278.3,727.3z"></path>
		<path class="st1" d="M195.7,622.3c2.7-7.2,5.1-13.9,8-21.5c4.2,1.4,8.5,2.7,12.6,4.4c8.9,3.6,8.8,3.7,5.7,12.8c-0.7,2-1.4,4-2.1,6    c-2.1,6.2-2.6,6.5-8.7,4.3C206.2,626.7,201.3,624.5,195.7,622.3z"></path>
		<path class="st1" d="M749.5,653.5c-5.2-4.8-10.2-9.4-15-14.2c-0.7-0.7-0.5-3.3,0.3-4.2c3.9-4.3,8-8.5,12.3-12.3    c0.8-0.7,3.7-0.4,4.7,0.5c3.9,3.4,7.3,7.3,11,10.8c2.2,2.1,2.2,3.6,0,5.7C758.2,644.2,753.9,649,749.5,653.5z"></path>
		<path class="st1" d="M492.2,864c4.8-4.6,9.1-9.2,14-13.2c1.1-0.9,4.4-0.6,5.7,0.5c4.9,3.6,9.5,7.8,14.9,12.4    c-6.4,6.1-11.3,10.9-16.4,15.4c-0.8,0.7-3.4,0.9-4,0.2C501.7,874.7,497.3,869.8,492.2,864z"></path>
		<path class="st1" d="M233.2,687c1.7-7.1,3.1-13.8,4.9-20.3c0.2-0.9,2.5-1.9,3.6-1.7c6.3,1.4,12.6,3.1,19.6,4.9    c-1.9,7.5-3.7,14.8-5.7,22.4C248,690.5,241.2,688.8,233.2,687z"></path>
		<path class="st1" d="M218.4,632c7.4,2.9,14.4,5.5,21.7,8.4c-2.7,7.3-5.1,14-7.9,21.5c-5.2-1.8-10.3-3.7-15.5-5.4    c-6.4-2.2-6.4-2.1-4-8.6C214.7,642.8,216.4,637.5,218.4,632z"></path>
		<path class="st1" d="M392,597.2c-1.6,6.8-2.7,12.7-4.5,18.4c-0.3,1-3.4,1.9-5,1.6c-4.9-0.9-9.7-2.7-14.6-3.6    c-3-0.6-3.5-2.1-2.9-4.5c1.2-5.4,2.4-10.8,4-16c0.3-1.1,2.7-2.5,3.9-2.3c5.6,1,11.1,2.4,16.5,3.9C390.6,595,391.4,596.7,392,597.2    z"></path>
		<path class="st1" d="M527.8,864.2c4.4-4.5,9-9.4,14-13.9c0.8-0.7,3.6-0.2,4.7,0.7c4.7,4.2,9.1,8.7,13.6,13.1    c-5.8,5.5-11.2,10.6-17.4,16.6C538.4,875.8,533.5,870.5,527.8,864.2z"></path>
		<path class="st1" d="M405.1,648c-6.9-1.6-13.7-3-20.4-4.7c-0.8-0.2-1.6-2.4-1.4-3.5c1-5.4,2.2-10.8,3.8-16.1    c0.4-1.3,2.8-3.1,3.9-2.9c5.1,0.9,10,2.6,15.1,3.7c3.6,0.8,4.4,2.6,3.4,6C407.9,635.8,406.7,641.3,405.1,648z"></path>
		<path class="st1" d="M808.2,581.2c5.6,5.8,10.8,11.1,15.7,16.2c-4.9,4.7-10.1,9.8-16.2,15.8c-4.1-4.1-9.1-9-13.8-14.1    c-0.6-0.6,0-3.1,0.8-3.9C799.1,590.2,803.7,585.8,808.2,581.2z"></path>
		<path class="st1" d="M411.3,569.8c-1-0.8-2-1.4-2.8-2.1c-3.7-3.6-7.2-7.4-11-10.9c-2.3-2.1-2-3.7,0.1-5.7    c3.8-3.5,7.4-7.2,10.9-10.9c1.9-2,3.4-2.1,5.4-0.1c3.7,3.9,7.6,7.4,11.2,11.4c0.8,0.9,1.2,3.6,0.6,4.4c-3.9,4.3-8.1,8.4-12.2,12.4    C412.9,568.8,412.2,569.2,411.3,569.8z"></path>
		<path class="st1" d="M392.1,554.2c-0.6,0.8-1,1.5-1.6,2c-4,4-7.9,8.1-12.1,11.9c-0.8,0.7-3.3,0.9-4,0.2c-4.3-3.9-8.5-8-12.3-12.3    c-0.7-0.8-0.5-3.5,0.3-4.4c3.6-4.1,7.5-8,11.6-11.6c0.9-0.8,3.6-0.9,4.4-0.2c4.2,3.7,8.1,7.9,12.1,11.9    C391.1,552.3,391.5,553.2,392.1,554.2z"></path>
		<path class="st1" d="M404.5,818.2c6.7,2.2,13.3,4.3,19.8,6.8c0.8,0.3,1.3,3.2,0.8,4.6c-1.7,5.6-3.8,11-6.3,17.8    c-6.6-2.3-13.5-4.5-20.1-7.1c-0.7-0.3-0.8-3.3-0.3-4.8C400.2,830,402.3,824.5,404.5,818.2z"></path>
		<path class="st1" d="M387.1,862.7c-6.5-2.2-12.7-4.1-18.7-6.5c-1.1-0.5-2.4-3.1-2.1-4.3c1.5-5.3,3.7-10.4,5.4-15.6    c0.8-2.5,1.8-3.1,4.3-2.1c4.7,1.9,9.3,3.9,14.2,5.1c4.1,1,4.5,2.8,3.2,6.2C391.3,851,389.3,856.7,387.1,862.7z"></path>
		<path class="st1" d="M730.1,885.2c-7.4-2-14.7-4-22.2-6.1c1.7-6.8,3.1-13,5-19.1c0.3-1.1,2.8-2.4,4.1-2.2c5.5,1.1,11,2.6,16.4,4.3    c1,0.3,2.2,2.8,2,4C733.9,872.2,732,878.2,730.1,885.2z"></path>
		<path class="st1" d="M258.3,697.2c7.3,1.6,14.3,3.2,22.3,4.9c-1.6,7.1-3.1,13.8-4.9,20.5c-0.2,0.8-2.4,1.8-3.4,1.6    c-6.4-1.5-12.8-3.3-19.6-5.1C254.6,711.8,256.4,704.8,258.3,697.2z"></path>
	</g>
	<g>
		<rect x="466.7" y="471.8" class="st2" width="40" height="12"></rect>
		<rect x="466.7" y="471.8" class="st0" width="40" height="12"></rect>
	</g>
	<g>
		<rect x="530.7" y="471.8" class="st2" width="40" height="12"></rect>
		<rect x="530.7" y="471.8" class="st0" width="40" height="12"></rect>
	</g>
	<g>
		<rect x="596.7" y="471.8" class="st2" width="40" height="12"></rect>
		<rect x="596.7" y="471.8" class="st0" width="40" height="12"></rect>
	</g>
	<g>
		<rect x="401.7" y="281.8" class="st1" width="33" height="12"></rect>
		<rect x="466.7" y="281.8" class="st1" width="40" height="12"></rect>
		<rect x="445.7" y="281.8" class="st1" width="11" height="12"></rect>
		<rect x="513.7" y="281.8" class="st1" width="11" height="12"></rect>
		<rect x="530.7" y="281.8" class="st1" width="40" height="12"></rect>
		<rect x="596.7" y="281.8" class="st1" width="40" height="12"></rect>
		<rect x="669.7" y="281.8" class="st1" width="40" height="12"></rect>
		<rect x="577.7" y="281.8" class="st1" width="11" height="12"></rect>
		<rect x="647.7" y="281.8" class="st1" width="11" height="12"></rect>
	</g>
	<g>
		<rect x="401.7" y="342.8" class="st1" width="33" height="12"></rect>
		<rect x="466.7" y="342.8" class="st1" width="40" height="12"></rect>
		<rect x="445.7" y="342.8" class="st1" width="11" height="12"></rect>
		<rect x="513.7" y="342.8" class="st1" width="11" height="12"></rect>
		<rect x="530.7" y="342.8" class="st1" width="40" height="12"></rect>
		<rect x="596.7" y="342.8" class="st1" width="40" height="12"></rect>
		<rect x="669.7" y="342.8" class="st1" width="40" height="12"></rect>
		<rect x="577.7" y="342.8" class="st1" width="11" height="12"></rect>
		<rect x="647.7" y="342.8" class="st1" width="11" height="12"></rect>
	</g>
	<g>
		<rect x="401.7" y="401.8" class="st1" width="33" height="12"></rect>
		<rect x="466.7" y="401.8" class="st1" width="40" height="12"></rect>
		<rect x="445.7" y="401.8" class="st1" width="11" height="12"></rect>
		<rect x="513.7" y="401.8" class="st1" width="11" height="12"></rect>
		<rect x="530.7" y="401.8" class="st1" width="40" height="12"></rect>
		<rect x="596.7" y="401.8" class="st1" width="40" height="12"></rect>
		<rect x="669.7" y="401.8" class="st1" width="40" height="12"></rect>
		<rect x="577.7" y="401.8" class="st1" width="11" height="12"></rect>
		<rect x="647.7" y="401.8" class="st1" width="11" height="12"></rect>
	</g>
</g>
</svg>
