<?xml version="1.0" encoding="utf-8"?>
<!-- Generator: Adobe Illustrator 26.0.1, SVG Export Plug-In . SVG Version: 6.00 Build 0)  -->
<svg version="1.1" id="Layer_1" xmlns="http://www.w3.org/2000/svg" xmlns:xlink="http://www.w3.org/1999/xlink" x="0px" y="0px"
	 viewBox="0 0 666.1 388.1" style="enable-background:new 0 0 666.1 388.1;" xml:space="preserve">
<style type="text/css">
	.st0{fill:#BE9334;}
</style>
<g>
	<path class="st0" d="M176.2,253.1h18.5v-18.5h-18.5V253.1z M213.1,253.1h18.5v-18.5h-18.5V253.1z M453,86.9h-18.4v18.5H453V86.9z
		 M416.2,86.9h-18.5v18.5h18.5V86.9z M434.6,160.8h-18.4v-18.5h18.4V160.8z M397.7,234.6h-55.4v-18.5h55.4V234.6z M213.1,197.7
		h-18.5v-18.5h18.5C213.1,179.2,213.1,197.7,213.1,197.7z M397.7,68.5h73.8v166.1H453V123.8h-55.4v55.4h36.9v55.4h-18.4v-36.9h-92.3
		v36.9h-18.5v-36.9h-18.5v36.9h-18.5v-36.9h-36.9v-36.9h-92.3v92.3h18.5v-73.8h18.5v36.9H250v36.9h240V50h-92.3L397.7,68.5
		L397.7,68.5z M508.4,253.1h18.4V50h-18.4V253.1z M176.2,123.8h-18.5v-18.5h18.5V123.8z M231.6,86.9h-18.5v36.9h-18.5V86.9h-55.4
		v55.4h92.3V86.9z M323.9,160.8h-18.5v-18.5h18.5V160.8z M342.3,123.8h-55.4v36.9h-18.5V68.5h18.5V50H250v129.2h92.3V123.8z
		 M286.9,105.4h55.4V86.9h-18.5V68.5h18.5V50h-36.9v36.9h-18.5V105.4z M157.7,50h-18.4v18.5h18.5L157.7,50L157.7,50z M194.6,50
		h-18.4v18.5h18.4C194.6,68.5,194.6,50,194.6,50z M231.6,50h-18.5v18.5h18.5L231.6,50L231.6,50z M379.2,50h-18.5v129.2h18.5V50z"/>
	<path class="st0" d="M158.4,310c-0.7,0-1.4,0.1-2,0.4c-0.6,0.3-1.2,0.7-1.7,1.1c-0.5,0.5-0.9,1.1-1.2,1.7c-0.3,0.6-0.4,1.3-0.5,2.1
		c0,0.7,0.1,1.5,0.4,2.1c0.3,0.7,0.6,1.2,1.1,1.7c0.5,0.5,1,0.9,1.7,1.2c0.6,0.3,1.3,0.4,2,0.4c0.8,0,1.5-0.1,2.1-0.4
		c0.7-0.3,1.2-0.7,1.7-1.2c0.5-0.5,0.9-1.1,1.1-1.8c0.3-0.7,0.4-1.4,0.4-2.2c0-0.7-0.2-1.4-0.5-2c-0.3-0.6-0.6-1.2-1.1-1.6
		c-0.5-0.5-1-0.8-1.6-1.1C159.7,310.2,159.1,310,158.4,310 M143.8,337c-1.1-1.3-2-2.8-2.7-4.3c-0.7-1.5-1.2-3.1-1.5-4.7
		c-0.3-1.6-0.4-3.2-0.3-4.9c0.1-1.6,0.3-3.3,0.8-4.8c0.5-1.6,1.1-3.1,1.9-4.6c0.8-1.5,1.8-2.8,2.9-4.1c1.1-1.3,2.4-2.4,3.9-3.4
		c1.5-1,3.1-1.8,4.8-2.4c0.7-0.2,1.5-0.3,2.2-0.4c0.8-0.1,1.6-0.1,2.5-0.1c1.3,0,2.6,0.2,3.7,0.5c1.1,0.3,2.1,0.8,3,1.5
		c0.9,0.6,1.7,1.4,2.4,2.3c0.7,0.9,1.3,1.9,1.8,3c0.3,0.7,0.6,1.5,0.7,2.3c0.1,0.8,0.2,1.6,0.2,2.4c0,0.9-0.1,1.9-0.3,2.8
		c-0.2,0.9-0.5,1.8-1,2.6h2.6c-0.4,0-0.7,0.1-0.9,0.3c-0.2,0.2-0.3,0.4-0.3,0.8v4.3c0,0.3,0.1,0.6,0.3,0.8c0.2,0.2,0.5,0.3,0.9,0.3
		h-13.1c-1.8-0.1-3.4-0.4-4.8-1.1c-1.4-0.6-2.6-1.5-3.7-2.5c-0.2-0.2-0.4-0.3-0.4-0.5c-0.1-0.2-0.3-0.4-0.6-0.7
		c-0.1-0.2-0.1-0.3-0.2-0.4c-0.1-0.1-0.2-0.3-0.3-0.5c-0.1-0.2-0.3-0.5-0.5-0.9c-0.2-0.4-0.5-0.9-0.9-1.6c-0.4,1.1-0.6,2.2-0.7,3.3
		c-0.1,1.1-0.1,2.2,0,3.2c0.1,1,0.3,2,0.6,3c0.3,1,0.6,1.8,1,2.7c0.4,0.8,0.7,1.6,1.1,2.3c0.4,0.7,0.8,1.3,1.1,1.8
		c0.3,0.5,0.6,0.9,0.8,1.2c0.2,0.3,0.3,0.4,0.3,0.5H143.8z"/>
	<path class="st0" d="M183.2,330.6c0.5,0,1,0.1,1.4,0.3c0.4,0.2,0.8,0.4,1.1,0.8c0.3,0.3,0.6,0.7,0.8,1.2c0.2,0.4,0.3,0.9,0.3,1.5
		c0,0.5-0.1,1-0.3,1.5c-0.2,0.5-0.5,0.9-0.8,1.2c-0.3,0.3-0.7,0.6-1.2,0.8c-0.5,0.2-1,0.3-1.5,0.3c-0.5,0-1-0.1-1.5-0.3
		c-0.5-0.2-0.9-0.5-1.2-0.9c-0.3-0.4-0.6-0.8-0.8-1.3c-0.2-0.5-0.2-1-0.2-1.6c0.1-0.5,0.2-0.9,0.4-1.4c0.2-0.4,0.5-0.8,0.8-1.1
		c0.3-0.3,0.7-0.5,1.1-0.7C182.2,330.7,182.7,330.6,183.2,330.6 M174.5,330.6c0.5,0,1,0.1,1.4,0.3c0.4,0.2,0.8,0.4,1.1,0.8
		s0.6,0.7,0.8,1.2c0.2,0.4,0.3,0.9,0.3,1.5c0,0.5-0.1,1-0.3,1.5c-0.2,0.5-0.5,0.9-0.8,1.2c-0.3,0.4-0.7,0.6-1.2,0.8
		c-0.5,0.2-1,0.3-1.5,0.3c-0.5,0-1-0.1-1.5-0.3c-0.5-0.2-0.9-0.5-1.2-0.9c-0.3-0.4-0.6-0.8-0.8-1.3c-0.2-0.5-0.2-1-0.2-1.6
		c0.1-0.5,0.2-0.9,0.4-1.3c0.2-0.4,0.5-0.8,0.8-1.1c0.3-0.3,0.7-0.5,1.1-0.7C173.5,330.6,174,330.6,174.5,330.6 M170.2,327.1
		c-0.4,0-0.8-0.1-1-0.3c-0.2-0.2-0.3-0.4-0.3-0.8v-4.3c0-0.3,0.1-0.6,0.2-0.7c0.1-0.1,0.3-0.2,0.6-0.3h6.3v-17.2h6.4v17.2h5.5
		c-0.5,0-0.8,0.1-1,0.3c-0.2,0.2-0.3,0.4-0.3,0.8v4.3c0,0.3,0.1,0.6,0.3,0.7c0.2,0.2,0.5,0.3,1,0.3L170.2,327.1L170.2,327.1z"/>
	<path class="st0" d="M205.7,310.1c-0.7,0.3-1.1,0.5-1.4,0.6c-0.3,0.2-0.7,0.4-1.1,0.7s-0.7,0.6-1,1c-0.3,0.3-0.6,0.7-1,1.2
		c-0.4,0.5-0.7,1-0.9,1.6c-0.2,0.5-0.5,1.1-0.7,1.7c-0.2,0.6-0.4,1.2-0.5,1.9c-0.1,0.6-0.2,1.3-0.3,1.9h20.8c0-0.6-0.1-1.3-0.2-1.9
		c-0.1-0.6-0.3-1.3-0.5-1.9c-0.2-0.6-0.4-1.2-0.7-1.7c-0.3-0.5-0.7-1.2-1.3-2c-0.6-0.8-1.1-1.4-1.5-1.8c-0.4-0.4-0.8-0.6-1.1-0.8
		c-0.3-0.2-0.6-0.3-0.9-0.4c-0.3-0.1-0.7-0.3-1-0.4c-0.3-0.1-0.8-0.2-1.3-0.4c-0.5-0.1-1.2-0.2-2-0.2
		C208.5,309.4,207.3,309.6,205.7,310.1 M198.3,306.8c0.4-0.4,1-0.9,1.8-1.4c0.8-0.5,1.5-0.9,2-1.2c0.6-0.2,1.2-0.5,1.9-0.7
		c0.7-0.2,1.4-0.4,2.2-0.6c0.8-0.2,1.9-0.2,3.2-0.2c1.3,0,2.2,0.1,2.6,0.3c1.2,0.2,2.3,0.5,3.3,0.8c1,0.3,2,0.8,2.9,1.3
		c0.9,0.5,1.8,1.2,2.6,1.9c0.8,0.7,1.5,1.4,2.1,2.2c0.6,0.8,1.2,1.6,1.6,2.5c0.4,0.9,0.8,1.9,1.2,2.8c0.3,1,0.6,2,0.8,3
		c0.2,1.1,0.4,2.1,0.4,3.1h2.9c-0.5,0-0.8,0.1-1,0.3c-0.2,0.2-0.3,0.4-0.3,0.8v4.3c0,0.3,0.1,0.6,0.3,0.7c0.2,0.2,0.5,0.3,1,0.3
		h-43.2c-0.4,0-0.8-0.1-1-0.3c-0.2-0.2-0.3-0.4-0.3-0.7v-4.3c0-0.3,0.1-0.6,0.2-0.7c0.1-0.1,0.3-0.2,0.6-0.3h3.9l1.4-0.5l0.6-1.2
		v-15.4h6.4L198.3,306.8L198.3,306.8z"/>
	<path class="st0" d="M246.5,293.3c0.5,0,1,0.1,1.4,0.3c0.4,0.2,0.8,0.4,1.1,0.8c0.3,0.3,0.6,0.7,0.8,1.2c0.2,0.5,0.3,0.9,0.3,1.5
		c0,0.5-0.1,1-0.3,1.5c-0.2,0.5-0.5,0.9-0.8,1.2c-0.4,0.3-0.8,0.6-1.2,0.8c-0.5,0.2-1,0.3-1.5,0.3c-0.5,0-1-0.1-1.5-0.3
		c-0.5-0.2-0.9-0.5-1.2-0.9c-0.3-0.4-0.6-0.8-0.8-1.3c-0.2-0.5-0.2-1-0.2-1.6c0.1-0.5,0.2-0.9,0.4-1.4c0.2-0.4,0.5-0.8,0.8-1.1
		c0.3-0.3,0.7-0.5,1.1-0.7C245.6,293.4,246,293.3,246.5,293.3 M242.7,310.4c-0.7,0-1.4,0.1-2,0.4c-0.6,0.3-1.2,0.6-1.7,1.1
		c-0.5,0.5-0.8,1-1.1,1.6c-0.3,0.6-0.4,1.3-0.5,2c0,0.8,0.1,1.5,0.4,2.1c0.3,0.7,0.7,1.2,1.2,1.7c0.5,0.5,1.1,0.9,1.7,1.1
		c0.6,0.3,1.3,0.4,2.1,0.4c0.7,0,1.4-0.2,2-0.4c0.6-0.3,1.2-0.7,1.7-1.1c0.5-0.5,0.8-1,1.1-1.7c0.3-0.6,0.4-1.3,0.4-2
		c0-0.7-0.2-1.4-0.4-2c-0.3-0.6-0.7-1.2-1.1-1.6c-0.5-0.5-1-0.8-1.6-1.1S243.4,310.4,242.7,310.4 M237.9,293.3c0.5,0,1,0.1,1.4,0.3
		c0.4,0.2,0.8,0.4,1.1,0.8c0.3,0.3,0.6,0.7,0.8,1.2c0.2,0.4,0.3,0.9,0.3,1.5c0,0.5-0.1,1-0.3,1.5c-0.2,0.5-0.5,0.9-0.8,1.2
		c-0.4,0.4-0.8,0.6-1.2,0.8c-0.5,0.2-1,0.3-1.5,0.3c-0.5,0-1-0.1-1.5-0.3c-0.5-0.2-0.9-0.5-1.2-0.9c-0.3-0.4-0.6-0.8-0.8-1.3
		c-0.2-0.5-0.2-1-0.2-1.6c0.1-0.5,0.2-0.9,0.4-1.4c0.2-0.4,0.5-0.8,0.8-1.1s0.7-0.5,1.1-0.7C236.9,293.4,237.4,293.3,237.9,293.3
		 M257.1,320.8c-0.8,0-1.3,0.4-1.3,1.2v4.1c0,0.8,0.4,1.1,1.3,1.1h-14.4h-14.3c-0.4,0-0.8-0.1-1-0.3c-0.2-0.2-0.3-0.5-0.3-0.9v-4.1
		c0-0.4,0.1-0.7,0.3-0.9c0.2-0.2,0.5-0.3,1-0.3h3.8l-0.9-2.6c-0.1-0.4-0.1-0.9-0.2-1.4c-0.1-0.5-0.1-1-0.1-1.5
		c0-0.8,0.1-1.6,0.2-2.4c0.1-0.7,0.4-1.5,0.6-2.2c0.3-0.7,0.7-1.4,1.1-2c0.4-0.7,0.8-1.3,1.4-1.9c0.6-0.5,1.2-0.9,1.8-1.4
		c0.6-0.4,1.3-0.8,2-1.1c0.7-0.3,1.5-0.5,2.3-0.6c0.8-0.1,1.6-0.2,2.4-0.2c0.9,0,1.7,0.1,2.4,0.2c0.8,0.1,1.5,0.4,2.2,0.6
		c0.7,0.3,1.4,0.7,2,1.1c0.6,0.4,1.2,0.9,1.7,1.4c0.5,0.6,1,1.2,1.4,1.9c0.5,0.7,0.8,1.3,1.2,2c0.3,0.7,0.6,1.5,0.7,2.3
		c0.1,0.8,0.2,1.6,0.2,2.4c0,0.8-0.1,1.5-0.2,2.3c-0.1,0.8-0.4,1.5-0.7,2.2c-0.1,0.2-0.1,0.3-0.2,0.5c-0.1,0.2-0.1,0.3-0.2,0.5
		C253.3,320.8,257.1,320.8,257.1,320.8z"/>
	<path class="st0" d="M255.8,327.1c-0.5,0-0.8-0.1-1-0.3c-0.2-0.2-0.3-0.4-0.3-0.7v-4.3c0-0.3,0.1-0.6,0.3-0.7
		c0.2-0.2,0.5-0.3,1-0.3h3.3v-26.2h6.5v32.6C265.6,327.1,255.8,327.1,255.8,327.1z"/>
	<rect x="271.5" y="294.1" class="st0" width="6.4" height="33.1"/>
	<path class="st0" d="M308.2,293.2c0.5,0,1,0.1,1.4,0.3c0.4,0.2,0.8,0.4,1.1,0.8c0.3,0.3,0.6,0.7,0.8,1.2c0.2,0.4,0.3,0.9,0.3,1.5
		c0,0.5-0.1,1-0.3,1.5c-0.2,0.5-0.5,0.9-0.8,1.2c-0.4,0.3-0.8,0.6-1.2,0.8c-0.5,0.2-1,0.3-1.5,0.3c-0.5,0-1-0.1-1.5-0.3
		c-0.5-0.2-0.9-0.5-1.2-0.9c-0.3-0.4-0.6-0.8-0.8-1.3c-0.2-0.5-0.2-1-0.2-1.6c0-0.5,0.2-0.9,0.4-1.4c0.2-0.4,0.5-0.8,0.8-1.1
		c0.3-0.3,0.7-0.5,1.1-0.7C307.2,293.3,307.7,293.2,308.2,293.2 M299.5,293.2c0.5,0,1,0.1,1.4,0.3c0.4,0.2,0.8,0.4,1.1,0.8
		c0.3,0.3,0.6,0.7,0.8,1.2c0.2,0.4,0.3,0.9,0.3,1.5c0,0.5-0.1,1-0.3,1.5c-0.2,0.5-0.5,0.9-0.8,1.2c-0.4,0.4-0.8,0.6-1.2,0.8
		c-0.5,0.2-1,0.3-1.5,0.3c-0.5,0-1-0.1-1.5-0.3c-0.5-0.2-0.9-0.5-1.2-0.9c-0.3-0.4-0.6-0.8-0.8-1.3c-0.2-0.5-0.2-1-0.2-1.6
		c0-0.5,0.2-0.9,0.4-1.4c0.2-0.4,0.5-0.8,0.8-1.1c0.3-0.3,0.7-0.5,1.1-0.7C298.5,293.3,299,293.2,299.5,293.2 M305.8,309.9
		c-1-0.1-2-0.1-2.8,0.2c-0.9,0.2-1.7,0.6-2.4,1.2c-0.7,0.5-1.4,1.2-2,1.9c-0.6,0.8-1.1,1.6-1.5,2.4c-0.4,0.9-0.8,1.7-1.1,2.6
		c-0.3,0.9-0.5,1.8-0.6,2.6h10.4L305.8,309.9L305.8,309.9z M313.4,320.8c-0.5,0-0.8,0.1-1,0.3c-0.2,0.2-0.3,0.4-0.3,0.8v4.3
		c0,0.3,0.1,0.6,0.3,0.7c0.2,0.2,0.5,0.3,1,0.3h-25.1v-6.4c0.2-1.3,0.4-2.6,0.9-4c0.4-1.3,1-2.6,1.7-3.9c0.7-1.3,1.5-2.4,2.4-3.6
		c0.9-1.1,1.9-2.1,3-3c1.1-0.9,2.3-1.6,3.5-2.2c1.3-0.6,2.5-1,3.9-1.2c1.3-0.2,2.7-0.2,4.1,0.1c1.4,0.3,2.8,0.8,4.3,1.6v16.1
		L313.4,320.8L313.4,320.8z"/>
	<path class="st0" d="M330.2,293.3c0.5,0,1,0.1,1.4,0.3c0.4,0.2,0.8,0.4,1.1,0.8c0.3,0.3,0.6,0.7,0.8,1.2c0.2,0.5,0.3,0.9,0.3,1.5
		c0,0.5-0.1,1-0.3,1.5c-0.2,0.5-0.5,0.9-0.8,1.2c-0.4,0.3-0.8,0.6-1.2,0.8c-0.5,0.2-1,0.3-1.5,0.3c-0.5,0-1-0.1-1.5-0.3
		c-0.5-0.2-0.9-0.5-1.2-0.9c-0.3-0.4-0.6-0.8-0.8-1.3c-0.2-0.5-0.2-1-0.2-1.6c0.1-0.5,0.2-0.9,0.4-1.4c0.2-0.4,0.5-0.8,0.8-1.1
		c0.3-0.3,0.7-0.5,1.1-0.7C329.3,293.4,329.7,293.3,330.2,293.3 M326.4,310.4c-0.7,0-1.4,0.1-2,0.4c-0.6,0.3-1.2,0.6-1.7,1.1
		c-0.5,0.5-0.8,1-1.1,1.6c-0.3,0.6-0.4,1.3-0.5,2c0,0.8,0.1,1.5,0.4,2.1c0.3,0.7,0.7,1.2,1.2,1.7c0.5,0.5,1.1,0.9,1.7,1.1
		c0.6,0.3,1.3,0.4,2.1,0.4c0.7,0,1.4-0.2,2-0.4c0.6-0.3,1.2-0.7,1.6-1.1c0.5-0.5,0.8-1,1.1-1.7c0.3-0.6,0.4-1.3,0.4-2
		c0-0.7-0.2-1.4-0.4-2c-0.3-0.6-0.7-1.2-1.1-1.6c-0.5-0.5-1-0.8-1.6-1.1C327.8,310.5,327.1,310.4,326.4,310.4 M321.6,293.3
		c0.5,0,1,0.1,1.4,0.3c0.4,0.2,0.8,0.4,1.1,0.8c0.3,0.3,0.6,0.7,0.8,1.2c0.2,0.4,0.3,0.9,0.3,1.5c0,0.5-0.1,1-0.3,1.5
		c-0.2,0.5-0.5,0.9-0.8,1.2c-0.4,0.4-0.8,0.6-1.2,0.8c-0.5,0.2-0.9,0.3-1.5,0.3c-0.5,0-1-0.1-1.5-0.3c-0.5-0.2-0.9-0.5-1.2-0.9
		c-0.3-0.4-0.6-0.8-0.8-1.3c-0.2-0.5-0.2-1-0.2-1.6c0.1-0.5,0.2-0.9,0.4-1.4c0.2-0.4,0.5-0.8,0.8-1.1c0.3-0.3,0.7-0.5,1.1-0.7
		C320.6,293.4,321.1,293.3,321.6,293.3 M340.8,320.8c-0.8,0-1.3,0.4-1.3,1.2v4.1c0,0.8,0.4,1.1,1.3,1.1h-14.4h-14.3
		c-0.4,0-0.8-0.1-1-0.3c-0.2-0.2-0.3-0.5-0.3-0.9v-4.1c0-0.4,0.1-0.7,0.3-0.9c0.2-0.2,0.5-0.3,1-0.3h3.8l-0.9-2.6
		c-0.1-0.4-0.1-0.9-0.2-1.4c-0.1-0.5-0.1-1-0.1-1.5c0-0.8,0.1-1.6,0.2-2.4c0.1-0.7,0.4-1.5,0.6-2.2c0.3-0.7,0.7-1.4,1.1-2
		c0.4-0.7,0.8-1.3,1.4-1.9c0.6-0.5,1.2-0.9,1.8-1.4c0.6-0.4,1.3-0.8,2-1.1c0.7-0.3,1.5-0.5,2.3-0.6c0.8-0.1,1.6-0.2,2.4-0.2
		s1.7,0.1,2.4,0.2c0.8,0.1,1.5,0.4,2.2,0.6c0.7,0.3,1.4,0.7,2,1.1c0.6,0.4,1.2,0.9,1.7,1.4c0.5,0.6,1,1.2,1.4,1.9
		c0.5,0.7,0.8,1.3,1.2,2c0.3,0.7,0.6,1.5,0.7,2.3c0.1,0.8,0.2,1.6,0.2,2.4c0,0.8-0.1,1.5-0.2,2.3c-0.1,0.8-0.4,1.5-0.7,2.2
		c-0.1,0.2-0.1,0.3-0.2,0.5c-0.1,0.2-0.1,0.3-0.2,0.5C337,320.8,340.8,320.8,340.8,320.8z"/>
	<path class="st0" d="M358.7,310.1c-0.7,0.3-1.1,0.5-1.4,0.6c-0.3,0.2-0.7,0.4-1.1,0.7s-0.7,0.6-1,1c-0.3,0.3-0.6,0.7-1,1.2
		c-0.4,0.5-0.7,1-0.9,1.6c-0.2,0.5-0.5,1.1-0.7,1.7c-0.2,0.6-0.4,1.2-0.5,1.9c-0.1,0.6-0.2,1.3-0.3,1.9h20.8c0-0.6-0.1-1.3-0.2-1.9
		c-0.1-0.6-0.3-1.3-0.5-1.9c-0.2-0.6-0.4-1.2-0.7-1.7c-0.3-0.5-0.7-1.2-1.3-2c-0.6-0.8-1.1-1.4-1.5-1.8c-0.4-0.4-0.8-0.6-1.1-0.8
		c-0.3-0.2-0.6-0.3-0.9-0.4c-0.3-0.1-0.7-0.3-1-0.4c-0.3-0.1-0.8-0.2-1.3-0.4c-0.5-0.1-1.2-0.2-2-0.2
		C361.5,309.4,360.3,309.6,358.7,310.1 M351.3,306.7c0.4-0.4,1-0.8,1.8-1.3c0.8-0.5,1.5-0.9,2-1.1c0.6-0.2,1.2-0.5,1.9-0.7
		c0.7-0.2,1.4-0.4,2.2-0.6c0.8-0.2,1.8-0.2,3.2-0.2c1.3,0,2.2,0.1,2.6,0.3c1.2,0.2,2.3,0.5,3.3,0.8c1,0.3,1.9,0.8,2.9,1.3
		s1.8,1.2,2.6,1.9c0.8,0.7,1.5,1.4,2.1,2.2c0.6,0.8,1.2,1.6,1.6,2.5c0.4,0.9,0.8,1.9,1.2,2.8c0.3,1,0.6,2,0.8,3
		c0.2,1.1,0.4,2.1,0.4,3.1h2.9c-0.5,0-0.8,0.1-1,0.3c-0.2,0.2-0.3,0.4-0.3,0.8v4.3c0,0.3,0.1,0.6,0.3,0.7c0.2,0.2,0.5,0.3,1,0.3
		h-43.2c-0.4,0-0.8-0.1-1-0.3c-0.2-0.2-0.3-0.4-0.3-0.8v-4.3c0-0.3,0.1-0.6,0.2-0.7c0.1-0.1,0.3-0.2,0.6-0.3h3.9l1.3-0.4l0.6-1.3
		v-24.9h6.5L351.3,306.7L351.3,306.7z"/>
	<path class="st0" d="M390.5,293.4c0.5,0,1,0.1,1.4,0.3c0.4,0.2,0.8,0.4,1.1,0.8s0.6,0.7,0.8,1.2c0.2,0.5,0.3,0.9,0.3,1.5
		c0,0.5-0.1,1-0.3,1.5c-0.2,0.5-0.5,0.9-0.8,1.2c-0.4,0.3-0.8,0.6-1.2,0.8s-1,0.3-1.5,0.3c-0.5,0-1-0.1-1.5-0.3s-0.9-0.5-1.2-0.9
		c-0.3-0.4-0.6-0.8-0.8-1.3c-0.2-0.5-0.2-1-0.2-1.6c0.1-0.5,0.2-0.9,0.4-1.3c0.2-0.4,0.5-0.8,0.8-1.1c0.3-0.3,0.7-0.5,1.1-0.7
		C389.6,293.5,390,293.4,390.5,293.4 M381.4,327.1c-0.9,0-1.4-0.3-1.4-1v-4.3c0-0.3,0.1-0.6,0.3-0.7c0.2-0.2,0.6-0.3,1-0.3h5.7
		v-17.3h6.4v17.3h5.6c-0.5,0-0.8,0.1-1,0.3s-0.3,0.4-0.3,0.7v4.3c0,0.3,0.1,0.6,0.3,0.7c0.2,0.1,0.5,0.3,0.9,0.3L381.4,327.1
		L381.4,327.1z"/>
	<path class="st0" d="M412.2,309.7c-0.7,0-1.4,0.1-2,0.4c-0.6,0.3-1.2,0.7-1.7,1.1c-0.5,0.5-0.9,1.1-1.2,1.7
		c-0.3,0.7-0.4,1.3-0.5,2.1c0,0.7,0.1,1.5,0.4,2.1c0.3,0.7,0.6,1.2,1.1,1.7c0.5,0.5,1,0.9,1.7,1.2c0.6,0.3,1.3,0.4,2,0.4
		c0.8,0,1.5-0.1,2.1-0.4c0.7-0.3,1.2-0.7,1.7-1.2c0.5-0.5,0.9-1.1,1.1-1.8c0.3-0.7,0.4-1.4,0.4-2.2c0-0.7-0.2-1.4-0.5-2
		c-0.3-0.6-0.6-1.2-1.1-1.6c-0.5-0.5-1-0.8-1.6-1.1C413.5,309.9,412.9,309.8,412.2,309.7 M397.7,327.1c-0.4,0-0.8-0.1-1-0.3
		c-0.2-0.2-0.3-0.5-0.3-0.9v-4.1c0-0.8,0.4-1.1,1.3-1.1h3.8l-0.9-2.6c-0.1-0.5-0.1-0.9-0.2-1.4c-0.1-0.5-0.1-1-0.1-1.5
		c0-0.9,0.1-1.7,0.2-2.4c0.1-0.7,0.4-1.5,0.6-2.2c0.3-0.7,0.7-1.4,1.1-2c0.4-0.6,0.8-1.3,1.4-1.9c0.6-0.5,1.2-0.9,1.8-1.4
		c0.6-0.4,1.3-0.8,2-1.1c0.7-0.3,1.5-0.5,2.3-0.7c0.8-0.1,1.6-0.2,2.4-0.2c0.9,0,1.7,0.1,2.4,0.2c0.8,0.1,1.5,0.3,2.2,0.7
		c0.7,0.3,1.4,0.7,2,1.1c0.6,0.4,1.2,0.9,1.7,1.4c0.5,0.6,1,1.2,1.4,1.9c0.4,0.7,0.8,1.3,1.2,2c0.3,0.7,0.6,1.5,0.7,2.3
		c0.1,0.8,0.2,1.6,0.2,2.4c0,0.8-0.1,1.5-0.2,2.3c-0.1,0.8-0.4,1.5-0.7,2.2c-0.3,0.7-0.7,1.4-1.2,2c-0.5,0.6-0.9,1.2-1.4,1.8
		c-0.5,0.5-1.1,1-1.7,1.4c-0.6,0.4-1.3,0.8-2,1.1c-1.4,0.7-3,1-4.7,1C412.1,327.1,397.7,327.1,397.7,327.1z"/>
	<path class="st0" d="M452.6,293.2c0.5,0,1,0.1,1.4,0.3c0.4,0.2,0.8,0.4,1.1,0.8c0.3,0.3,0.6,0.7,0.8,1.2c0.2,0.4,0.3,0.9,0.3,1.5
		c0,0.5-0.1,1-0.3,1.5c-0.2,0.5-0.5,0.9-0.8,1.2c-0.4,0.3-0.8,0.6-1.2,0.8c-0.5,0.2-1,0.3-1.5,0.3c-0.5,0-1-0.1-1.5-0.3
		c-0.5-0.2-0.9-0.5-1.2-0.9c-0.3-0.4-0.6-0.8-0.8-1.3c-0.2-0.5-0.2-1-0.2-1.6c0.1-0.5,0.2-0.9,0.4-1.4c0.2-0.4,0.5-0.8,0.8-1.1
		c0.3-0.3,0.7-0.5,1.1-0.7C451.6,293.3,452.1,293.2,452.6,293.2 M443.9,293.2c0.5,0,1,0.1,1.4,0.3c0.4,0.2,0.8,0.4,1.1,0.8
		c0.3,0.3,0.6,0.7,0.8,1.2c0.2,0.4,0.3,0.9,0.3,1.5c0,0.5-0.1,1-0.3,1.5c-0.2,0.5-0.5,0.9-0.8,1.2c-0.4,0.4-0.8,0.6-1.2,0.8
		c-0.5,0.2-1,0.3-1.5,0.3c-0.5,0-1-0.1-1.5-0.3c-0.5-0.2-0.9-0.5-1.2-0.9c-0.3-0.4-0.6-0.8-0.8-1.3c-0.2-0.5-0.2-1-0.2-1.6
		c0.1-0.5,0.2-0.9,0.4-1.4c0.2-0.4,0.5-0.8,0.8-1.1c0.3-0.3,0.7-0.5,1.1-0.7C443,293.3,443.4,293.2,443.9,293.2 M450.2,309.9
		c-1-0.1-2-0.1-2.8,0.2c-0.9,0.2-1.7,0.6-2.4,1.2c-0.7,0.5-1.4,1.2-2,1.9c-0.6,0.8-1.1,1.6-1.5,2.4c-0.4,0.9-0.8,1.7-1.1,2.6
		c-0.3,0.9-0.5,1.8-0.6,2.6h10.4V309.9z M457.8,320.8c-0.4,0-0.8,0.1-1,0.3c-0.2,0.2-0.3,0.4-0.3,0.8v4.3c0,0.3,0.1,0.6,0.3,0.7
		c0.2,0.2,0.5,0.3,1,0.3h-25.1v-6.4c0.2-1.3,0.4-2.6,0.9-4c0.4-1.3,1-2.6,1.7-3.9c0.7-1.3,1.5-2.4,2.4-3.6c0.9-1.1,1.9-2.1,3-3
		c1.1-0.9,2.2-1.6,3.5-2.2c1.2-0.6,2.5-1,3.9-1.2c1.3-0.2,2.7-0.2,4.1,0.1c1.4,0.3,2.8,0.8,4.3,1.6v16.1L457.8,320.8L457.8,320.8z"
		/>
	<path class="st0" d="M465.6,293.3c0.5,0,1,0.1,1.4,0.3c0.4,0.2,0.8,0.4,1.1,0.8c0.3,0.3,0.6,0.7,0.8,1.2c0.2,0.5,0.3,0.9,0.3,1.5
		c0,0.5-0.1,1-0.3,1.5c-0.2,0.5-0.5,0.9-0.8,1.2c-0.4,0.3-0.8,0.6-1.2,0.8c-0.5,0.2-1,0.3-1.5,0.3c-0.5,0-1-0.1-1.5-0.3
		c-0.5-0.2-0.9-0.5-1.2-0.9c-0.3-0.4-0.6-0.8-0.8-1.3c-0.2-0.5-0.2-1-0.2-1.6c0-0.5,0.2-0.9,0.4-1.3c0.2-0.4,0.5-0.8,0.8-1.1
		c0.3-0.3,0.7-0.5,1.1-0.7C464.7,293.4,465.2,293.3,465.6,293.3 M456.6,327.1c-0.5,0-0.8-0.1-1-0.3c-0.2-0.2-0.3-0.4-0.3-0.8v-4.3
		c0-0.3,0.1-0.6,0.3-0.8c0.2-0.2,0.5-0.3,1-0.3h6.3v-17.3h6.3v23.6C469.2,327.1,456.6,327.1,456.6,327.1z"/>
	<path class="st0" d="M484.7,320.8c-0.4,0-0.7,0.1-0.9,0.3c-0.2,0.2-0.3,0.4-0.3,0.8v4.2c0,0.3,0.1,0.6,0.3,0.8
		c0.2,0.2,0.5,0.3,0.9,0.3h-10.4V294h6.4v26.7C480.7,320.8,484.7,320.8,484.7,320.8z"/>
	<path class="st0" d="M498,309.7c-0.7,0-1.4,0.1-2,0.4c-0.6,0.3-1.2,0.7-1.7,1.1c-0.5,0.5-0.9,1.1-1.2,1.7c-0.3,0.7-0.4,1.3-0.5,2.1
		c0,0.7,0.1,1.5,0.4,2.1c0.3,0.7,0.6,1.2,1.1,1.7c0.5,0.5,1,0.9,1.7,1.2c0.6,0.3,1.3,0.4,2,0.4c0.8,0,1.5-0.1,2.1-0.4
		c0.7-0.3,1.2-0.7,1.7-1.2c0.5-0.5,0.9-1.1,1.1-1.8c0.3-0.7,0.4-1.4,0.4-2.2c0-0.7-0.2-1.4-0.5-2c-0.3-0.6-0.6-1.2-1.1-1.6
		c-0.5-0.5-1-0.8-1.6-1.1C499.4,309.9,498.7,309.8,498,309.7 M483.5,327.1c-0.4,0-0.8-0.1-1-0.3c-0.2-0.2-0.3-0.5-0.3-0.9v-4.1
		c0-0.8,0.4-1.1,1.3-1.1h3.8l-0.9-2.6c-0.1-0.5-0.1-0.9-0.2-1.4c-0.1-0.5-0.1-1-0.1-1.5c0-0.9,0.1-1.7,0.2-2.4s0.4-1.5,0.6-2.2
		c0.3-0.7,0.7-1.4,1.1-2c0.4-0.6,0.8-1.3,1.4-1.9c0.6-0.5,1.2-0.9,1.8-1.4c0.6-0.4,1.3-0.8,2-1.1c0.7-0.3,1.5-0.5,2.3-0.7
		c0.8-0.1,1.6-0.2,2.4-0.2c0.9,0,1.7,0.1,2.4,0.2c0.8,0.1,1.5,0.3,2.2,0.7c0.7,0.3,1.4,0.7,2,1.1c0.6,0.4,1.2,0.9,1.7,1.4
		c0.5,0.6,1,1.2,1.4,1.9c0.5,0.7,0.8,1.3,1.2,2c0.3,0.7,0.6,1.5,0.7,2.3c0.1,0.8,0.2,1.6,0.2,2.4c0,0.8-0.1,1.5-0.2,2.3
		c-0.1,0.8-0.4,1.5-0.7,2.2c-0.3,0.7-0.7,1.4-1.2,2c-0.5,0.6-0.9,1.2-1.4,1.8c-0.5,0.5-1.1,1-1.7,1.4c-0.6,0.4-1.3,0.8-2,1.1
		c-1.4,0.7-3,1-4.7,1C497.9,327.1,483.5,327.1,483.5,327.1z"/>
	<path class="st0" d="M523,327.1h-6.4v-33h6.4C523,294.2,523,327.1,523,327.1z M517.4,279c0.6-0.6,1.3-0.9,2.1-1.1
		c0.8-0.2,1.6-0.2,2.5-0.1c0.8,0.1,1.7,0.4,2.5,0.8c0.8,0.4,1.5,0.8,2,1.3l0.4,0.4l-2.4,3.4l-0.6-0.7c-0.4-0.4-0.7-0.7-1.1-1
		c-0.4-0.2-0.9-0.3-1.4-0.3l-1.1,0.3l-0.8,0.8l-0.6,0.8l-0.1,1.2l0.1,0.9l0.6,0.8l1.3,0.9l1.8,0.3h4.4v3.9h-15.4v-3.9h4.3l-0.7-1.8
		c-0.1-0.2-0.2-0.4-0.2-0.7c-0.1-0.3-0.1-0.6-0.1-1l0.5-2.4c0.2-0.4,0.4-0.7,0.6-1c0.2-0.3,0.5-0.6,0.8-0.9L517.4,279z"/>
</g>
</svg>
