<?xml version="1.0" encoding="utf-8"?>
<!-- Generator: Adobe Illustrator 26.0.1, SVG Export Plug-In . SVG Version: 6.00 Build 0)  -->
<svg version="1.1" id="Layer_1" xmlns="http://www.w3.org/2000/svg" xmlns:xlink="http://www.w3.org/1999/xlink" x="0px" y="0px"
	 viewBox="0 0 450 277.09" style="enable-background:new 0 0 450 277.09;" xml:space="preserve">
<style type="text/css">
	.st0{fill:#46B790;}
	.st1{fill:#1CA2B4;}
	.st2{fill:#09838F;}
	.st3{fill:#038373;}
	.st4{fill:#0B979F;}
	.st5{fill:#21B3BF;}
	.st6{fill:#36A38F;}
	.st7{fill:#0B7265;}
	.st8{clip-path:url(#SVGID_00000095309297411544735030000011723479326266300037_);}
</style>
<g id="surface1">
	<path class="st0" d="M196.39,66.91l28.33,28l27.43-28.36L224.61,45L196.39,66.91z"/>
	<path class="st1" d="M220.1,99.51l-24.67,25.24l-29.3-28.9l0.05-0.05C182.29,98.09,200.62,99.42,220.1,99.51"/>
	<path class="st1" d="M282.85,95.24l-28.22,29.51l-25.46-25.27l0.03-0.03c19.47-0.31,37.67-1.86,53.48-4.37"/>
	<path class="st2" d="M199.7,129.5l25.05-25.29l25.42,25.18l-24.87,25.5L199.7,129.5z"/>
	<path class="st3" d="M140.09,129.41l23.32-29.61l27.53,29.84l-24.8,25.7L140.09,129.41z"/>
	<path class="st3" d="M259.23,129.54l27.29-29.74l22.5,28.85l-24.76,25.73L259.23,129.54z"/>
	<path class="st1" d="M288.82,158.88l24.71-25.78l11.52,24.1l-13.74,24.1L288.82,158.88z"/>
	<path class="st2" d="M229.74,159.44l24.8-25.65l23.12,23.41l-22.48,14.82L229.74,159.44z"/>
	<path class="st4" d="M172.48,157.98l23.07-23.61l25.1,25.13l-27.3,13.29L172.48,157.98z"/>
	<path class="st1" d="M124.95,158.58l11.38-23.95l25.43,25.23l-22.7,22.86L124.95,158.58z"/>
	<path class="st5" d="M220.1,99.5c-19.47-0.08-37.81-1.41-53.91-3.7l25.16-24.89"/>
	<path class="st5" d="M282.69,95.08c-15.81,2.5-34.01,4.06-53.48,4.37l28.3-29.18"/>
	<path class="st6" d="M224.61,45l0.11,49.91l27.43-28.36"/>
	<path class="st7" d="M163.41,99.8l2.73,55.54l-26.05-25.93"/>
	<path class="st5" d="M124.95,158.58l36.81,1.28l-25.43-25.23"/>
	<path class="st2" d="M172.48,157.98l48.17,1.51l-27.3,13.29"/>
	<path class="st4" d="M199.7,129.5l50.47-0.12l-25.42-25.18"/>
	<path class="st7" d="M286.51,99.8l-2.26,54.58l24.76-25.73"/>
	<path class="st4" d="M229.74,159.44l47.92-2.23l-23.12-23.41"/>
	<path class="st5" d="M288.82,158.88l36.23-1.67l-11.52-24.1"/>
	<path class="st1" d="M81.62,206.17c0.7,0,1.27-0.22,1.71-0.66c0.44-0.44,0.66-1.02,0.66-1.72c0-0.7-0.22-1.29-0.66-1.75
		c-0.44-0.46-1.01-0.69-1.71-0.69c-0.7,0-1.27,0.23-1.71,0.69c-0.44,0.46-0.66,1.05-0.66,1.75c0,0.71,0.22,1.28,0.66,1.72
		C80.35,205.95,80.92,206.17,81.62,206.17"/>
	<path class="st1" d="M87.12,208.38c-0.74,0.71-1.11,1.57-1.11,2.59v10.49c0,1.16-0.48,2.26-1.43,3.3
		c-0.96,0.88-2.01,1.33-3.16,1.33c-1.15,0-2.2-0.49-3.16-1.47c-0.95-0.98-1.43-2.03-1.43-3.15v-4.74c0-1.1-0.35-2-1.05-2.71v0.03
		c-0.61-0.61-1.5-0.96-2.69-1.06v8.4c0,2.36,0.8,4.33,2.4,5.92c1.6,1.59,3.58,2.39,5.94,2.39c2.36,0,4.37-0.83,6.03-2.48
		c1.01-1.06,1.71-2.3,2.08-3.75l0.35-2.43v-13.75c-1.19,0.06-2.12,0.42-2.78,1.09"/>
	<path class="st1" d="M92.68,201.31v19.08c-0.02,1.01,0.37,1.93,1.18,2.75c0.42,0.45,1.32,0.71,2.68,0.79v-18.96
		C96.54,202.69,95.26,201.47,92.68,201.31"/>
	<path class="st1" d="M99.61,210.88v18.81c0.99-0.08,1.84-0.5,2.53-1.27s1.04-1.6,1.04-2.47v-18.78c-0.47,0.06-1.21,0.36-2.23,0.91
		C99.94,208.62,99.5,209.56,99.61,210.88"/>
	<path class="st1" d="M103.28,200.92c-0.52-0.44-1.11-0.66-1.76-0.66c-0.65,0-1.18,0.22-1.59,0.66c-0.41,0.44-0.61,1.02-0.61,1.72
		c0,0.71,0.2,1.29,0.61,1.75c0.41,0.46,0.94,0.69,1.59,0.69c0.65,0,1.24-0.23,1.76-0.69c0.52-0.46,0.78-1.04,0.78-1.75
		C104.06,201.94,103.8,201.36,103.28,200.92"/>
	<g>
		<defs>
			<rect id="SVGID_1_" x="139.25" y="226.63" width="5.4" height="5.46"/>
		</defs>
		<clipPath id="SVGID_00000119803787810989569400000002395431521827804045_">
			<use xlink:href="#SVGID_1_"  style="overflow:visible;"/>
		</clipPath>
		<g style="clip-path:url(#SVGID_00000119803787810989569400000002395431521827804045_);">
			<path class="st1" d="M142.11,227.27c-0.68,0-1.23,0.24-1.67,0.73c-0.44,0.49-0.66,1.07-0.66,1.74c0,0.67,0.22,1.23,0.66,1.68
				c0.44,0.45,1,0.68,1.67,0.68s1.24-0.22,1.71-0.68c0.46-0.45,0.69-1.01,0.69-1.68c0-0.67-0.23-1.25-0.69-1.74
				C143.35,227.51,142.78,227.27,142.11,227.27"/>
		</g>
	</g>
	<path class="st1" d="M145.88,209.98c-1.78-1.7-3.73-2.51-5.88-2.43h-4.95c0.04,0.98,0.41,1.83,1.12,2.56
		c0.7,0.73,1.46,1.07,2.26,1.03h1.59c1.2-0.04,2.28,0.42,3.25,1.39c0.96,0.97,1.42,2.04,1.38,3.23v4.57h-33.16v-15.36
		c0-1.11-0.37-2-1.11-2.66c-0.55-0.59-1.42-0.94-2.63-1.05v22.68h40.65v-5.04l0.03-0.67v-2.42
		C148.51,213.62,147.66,211.68,145.88,209.98"/>
	<path class="st1" d="M166.63,205.06c0.69,0,1.26-0.24,1.69-0.72c0.43-0.48,0.65-1.08,0.65-1.78c0-0.7-0.22-1.27-0.65-1.69
		c-0.43-0.42-1-0.63-1.69-0.63s-1.27,0.21-1.72,0.63s-0.68,0.99-0.68,1.69c0,0.71,0.22,1.3,0.68,1.78
		C165.36,204.82,165.94,205.06,166.63,205.06"/>
	<path class="st1" d="M161.06,205.06c0.68,0,1.25-0.24,1.72-0.72c0.46-0.48,0.69-1.08,0.69-1.78c0-0.7-0.23-1.27-0.69-1.69
		c-0.46-0.42-1.04-0.63-1.72-0.63c-0.68,0-1.24,0.21-1.67,0.63c-0.44,0.42-0.65,0.99-0.65,1.69c0,0.71,0.22,1.3,0.65,1.78
		C159.82,204.82,160.38,205.06,161.06,205.06"/>
	<path class="st1" d="M197.69,205.06c0.65,0,1.21-0.24,1.68-0.72c0.47-0.48,0.7-1.08,0.7-1.78c0-0.7-0.23-1.27-0.7-1.69
		c-0.47-0.42-1.03-0.63-1.68-0.63c-0.65,0-1.21,0.21-1.66,0.63c-0.46,0.42-0.69,0.99-0.69,1.69c0,0.71,0.23,1.3,0.69,1.78
		C196.49,204.82,197.04,205.06,197.69,205.06"/>
	<path class="st1" d="M192.13,205.06c0.65,0,1.21-0.24,1.67-0.72c0.46-0.48,0.69-1.08,0.69-1.78c0-0.7-0.23-1.27-0.69-1.69
		s-1.02-0.63-1.67-0.63c-0.65,0-1.21,0.21-1.68,0.63c-0.47,0.42-0.7,0.99-0.7,1.69c0,0.71,0.23,1.3,0.7,1.78
		C190.92,204.82,191.48,205.06,192.13,205.06"/>
	<path class="st1" d="M251.16,205.06c0.7,0,1.32-0.24,1.86-0.72c0.55-0.48,0.82-1.08,0.82-1.78c0-0.7-0.27-1.27-0.82-1.69
		c-0.54-0.42-1.17-0.63-1.86-0.63s-1.27,0.21-1.73,0.63c-0.46,0.42-0.68,0.99-0.68,1.69c0,0.71,0.23,1.3,0.68,1.78
		C249.88,204.82,250.46,205.06,251.16,205.06"/>
	<path class="st1" d="M275.9,218.99c-1.04,0.9-2.14,1.35-3.32,1.35h-4.49v-4.71c0-1.06,0.45-2.15,1.35-3.28
		c1-0.92,2.08-1.37,3.26-1.37c1.17,0,2.24,0.48,3.2,1.43v-0.03c0.88,1.02,1.32,2.06,1.32,3.13
		C277.22,216.58,276.78,217.74,275.9,218.99 M234.44,216.7c-0.14,0.47-0.53,1.21-1.19,2.21c-0.66,1-1.78,1.48-3.36,1.42h-10.44
		v-5.33c0.25-1.07,0.82-2.03,1.7-2.87c0.88-0.84,1.86-1.24,2.93-1.2h10.35V216.7z M199.49,220.33h-4.63c-1.12,0-2.17-0.49-3.16-1.46
		v0.03c-0.99-1.05-1.48-2.15-1.48-3.29c0-1.14,0.61-2.34,1.83-3.61c0.67-0.7,1.61-1.05,2.84-1.05c1.22,0,2.29,0.49,3.2,1.46
		c0.93,0.98,1.4,2.04,1.4,3.19V220.33z M168.5,220.33h-4.5c-1.24,0-2.36-0.49-3.34-1.46v0.03c-0.84-1.09-1.26-2.17-1.26-3.22
		c0-1.06,0.44-2.15,1.3-3.31c0.99-0.94,2.23-1.4,3.73-1.4c0.85,0,1.74,0.47,2.67,1.4s1.4,2.02,1.4,3.25V220.33z M272.45,207.37
		c-2.26,0-4.19,0.81-5.81,2.42c-1.61,1.61-2.41,3.56-2.41,5.86v4.69h-3.51h0.05h-7.93v-13.61c-0.7,0.02-1.24,0.15-1.64,0.38
		c-0.4,0.23-0.85,0.63-1.35,1.17c-0.5,0.55-0.75,1.25-0.75,2.11v9.95h-12.21c0.63-1.21,1.07-2.34,1.3-3.41v-9.58h-14.11
		c-1.6,0-3.14,0.46-4.62,1.38v-3.72c0-2.24-1.25-3.48-3.75-3.71v19.04h-12.48v-4.71c0-2.17-0.81-4.15-2.42-5.94
		c-1.85-1.56-3.86-2.34-6.02-2.34c-2.14,0-4.13,0.78-5.97,2.34c-1.57,1.75-2.36,3.86-2.36,6.32c0,1.42,0.5,2.87,1.49,4.33h-15.6
		v-4.69c0-2.25-0.82-4.2-2.45-5.83c-1.61-1.63-3.56-2.45-5.85-2.45c-2.34,0-4.36,0.78-6.08,2.33c-1.56,1.55-2.34,3.52-2.34,5.93
		c0,2.44,0.8,4.45,2.41,6.03c1.62,1.52,3.61,2.28,5.95,2.28h96.76h-0.05h11.87c2.33,0,4.33-0.76,6-2.28
		c1.59-1.56,2.39-3.52,2.39-5.88c0-2.36-0.8-4.36-2.39-6C276.75,208.17,274.71,207.37,272.45,207.37"/>
	<path class="st1" d="M299.88,205.06c0.69,0,1.26-0.24,1.69-0.72c0.43-0.48,0.65-1.08,0.65-1.78c0-0.7-0.22-1.27-0.65-1.69
		s-1-0.63-1.69-0.63c-0.69,0-1.27,0.21-1.72,0.63c-0.45,0.42-0.68,0.99-0.68,1.69c0,0.71,0.22,1.3,0.68,1.78
		C298.61,204.82,299.18,205.06,299.88,205.06"/>
	<path class="st1" d="M294.3,205.06c0.68,0,1.25-0.24,1.72-0.72c0.46-0.48,0.69-1.08,0.69-1.78c0-0.7-0.23-1.27-0.69-1.69
		c-0.46-0.42-1.04-0.63-1.72-0.63c-0.68,0-1.24,0.21-1.67,0.63s-0.65,0.99-0.65,1.69c0,0.71,0.22,1.3,0.65,1.78
		C293.07,204.82,293.62,205.06,294.3,205.06"/>
	<path class="st1" d="M321.94,200.86c-0.47-0.42-1.06-0.63-1.75-0.63c-0.69,0-1.25,0.21-1.66,0.63s-0.62,0.99-0.62,1.69
		c0,0.71,0.21,1.3,0.62,1.78c0.41,0.48,0.97,0.72,1.66,0.72c0.69,0,1.27-0.24,1.75-0.72c0.47-0.48,0.71-1.08,0.71-1.78
		C322.65,201.85,322.42,201.29,321.94,200.86"/>
	<path class="st1" d="M301.75,220.33h-4.5c-1.24,0-2.36-0.49-3.34-1.46v0.03c-0.84-1.09-1.26-2.17-1.26-3.22
		c0-1.06,0.43-2.15,1.3-3.31c0.99-0.94,2.23-1.4,3.73-1.4c0.85,0,1.75,0.47,2.67,1.4c0.93,0.94,1.4,2.02,1.4,3.25V220.33z
		 M318.35,210.97v4.68c0,1.23-0.46,2.35-1.38,3.36c-0.92,0.88-1.96,1.32-3.13,1.32h-8.23v-4.69c0-2.25-0.82-4.2-2.45-5.83
		c-1.61-1.63-3.56-2.45-5.85-2.45c-2.34,0-4.36,0.78-6.08,2.33c-1.56,1.55-2.34,3.52-2.34,5.93c0,2.44,0.8,4.45,2.41,6.03
		c1.62,1.52,3.61,2.28,5.95,2.28h16.59c2.42,0,4.42-0.78,6-2.34c1.58-1.56,2.37-3.54,2.37-5.94v-8.4
		C319.64,207.53,318.35,208.76,318.35,210.97"/>
	<path class="st1" d="M363.61,218.99c-1.04,0.9-2.14,1.35-3.32,1.35h-4.49v-4.71c0-1.06,0.45-2.15,1.35-3.28
		c1-0.92,2.08-1.37,3.26-1.37c1.17,0,2.24,0.48,3.2,1.43v-0.03c0.88,1.02,1.32,2.06,1.32,3.13
		C364.93,216.58,364.49,217.74,363.61,218.99 M360.16,207.37c-2.26,0-4.19,0.81-5.81,2.42c-1.61,1.61-2.42,3.56-2.42,5.86v4.69
		h-21.65v-15.36c0-1.11-0.37-2-1.11-2.66c-0.55-0.58-1.42-0.94-2.63-1.05v22.68h33.75c2.33,0,4.33-0.76,6-2.28
		c1.59-1.56,2.39-3.52,2.39-5.88c0-2.36-0.8-4.36-2.39-6C364.46,208.17,362.42,207.37,360.16,207.37"/>
	<path class="st1" d="M374.32,197.48c0.06-1.48,0.7-2.21,1.93-2.17c0.06-0.51,0.19-0.98,0.41-1.43h-0.03
		c0.04-0.08,0.06-0.16,0.06-0.23c-0.35-0.29-0.59-0.44-0.73-0.44c-1.12,0-2.02,0.41-2.7,1.23c-0.68,0.82-1.04,1.83-1.08,3.04h-1.02
		v2.19h5.76v-2.19"/>
	<path class="st1" d="M372.3,201.31v18.78l0.03,0.17v0.12c0,2.21,1.28,3.38,3.83,3.54L376.13,205
		C376.13,202.74,374.86,201.51,372.3,201.31"/>
</g>
</svg>
