<?xml version="1.0" encoding="UTF-8"?>
<!-- Generator: Adobe Illustrator 28.0.0, SVG Export Plug-In . SVG Version: 6.00 Build 0)  -->
<svg xmlns="http://www.w3.org/2000/svg" xmlns:xlink="http://www.w3.org/1999/xlink" version="1.1" id="Layer_1" x="0px" y="0px" viewBox="0 0 323.1 378.74" style="enable-background:new 0 0 323.1 378.74;" xml:space="preserve">
<style type="text/css">
	.st0{fill-rule:evenodd;clip-rule:evenodd;fill:#922225;}
	.st1{fill-rule:evenodd;clip-rule:evenodd;fill:#BF8C58;}
	.st2{fill:#922225;}
	.st3{fill:#BF8C58;}
</style>
<g>
	<g>
		<g>
			<path class="st0" d="M161.39,0.38C118.61,10.69,91.17,21.4,79.44,32.5V2.92c27.32-2.13,54.63-3.25,81.95-2.83     c27.32-0.42,54.67,0.7,82,2.83V32.5C231.66,21.4,204.17,10.69,161.39,0.38 M160.06,23.99c-36.17,35-63.83,82.02-80.55,117.38     c0,10.36-0.06,19.38-0.06,29.73c10.37-19.96,39.15-99.13,81.97-138.57c42.82,39.44,71.6,118.61,81.97,138.57     c0-10.36-0.06-19.38-0.06-29.73c-16.72-35.36-44.39-82.38-80.56-117.38C161.73,22.98,161.07,22.98,160.06,23.99 M161.05,13.51     C125.7,32.79,97.9,67.22,79.5,92.78c0,10.36-0.06,19.34-0.06,29.7c10.37-14.99,39.15-74.31,81.97-103.54     c42.82,29.23,71.6,88.55,81.97,103.54c0-10.36-0.06-19.34-0.06-29.7c-18.4-25.57-46.21-60.01-81.57-79.29     C161.34,13.27,161.46,13.29,161.05,13.51 M161.37,3.92c-28.08,8-54.67,21.13-81.93,40.4v31.07     c11.3-13.73,48.25-53.48,81.87-66.74h0.21c33.61,13.25,70.57,53.01,81.87,66.74V44.31c-27.27-19.27-53.9-32.39-81.98-40.4     C161.4,3.91,161.38,3.91,161.37,3.92"></path>
			<path class="st0" d="M87.71,230.5h10.94h17.02v10.94H98.65v40.11h17.02v10.94H79.81v-10.94h7.9v-40.11V230.5z M235.53,241.44     v39.99h7.64v10.94H120.83v-7.48v-3.46V230.5h10.94v50.93h6.84v-21.76h10.94v21.76h7.6v-21.76h10.94v21.76h7.6v-21.76h10.94v21.76     h37.98v-39.99h-21.27V230.5h32.21v1.97V241.44z"></path>
			<path class="st1" d="M160.06,37.59C123.89,81.61,96.23,145.52,79.5,189.99c0,13.03-0.06,19.59-0.06,32.61     c10.33-18.24,32.38-82.52,59.31-135.3v149.12h10.94v-172c2.4-4.16,4.83-8.8,7.29-12.65v191.79h-18.23v10.94h18.23h10.94v-10.94     V55.38c2.61,4.28,5.2,8.76,7.75,13.39v185.74h10.94V92.97c25.26,51.4,46.31,111.95,56.78,129.64c0-13.03-0.06-19.59-0.06-32.61     c-16.72-44.47-44.39-108.37-80.55-152.39C161.73,36.33,161.07,36.33,160.06,37.59"></path>
		</g>
		<g>
			<path class="st2" d="M15.71,341.94c-0.94-0.19-1.71-0.46-2.3-0.81c-0.59-0.35-1.02-0.77-1.29-1.25     c-0.27-0.48-0.41-1.01-0.41-1.59c0-0.56,0.12-1.11,0.36-1.65c0.24-0.54,0.59-1.02,1.04-1.44c0.45-0.42,1-0.76,1.64-1.01     c0.64-0.25,1.36-0.38,2.17-0.38h8.9v-5.56l-8.93,0.09c-1.64,0-3.12,0.29-4.43,0.87c-1.31,0.58-2.43,1.34-3.35,2.27     c-0.92,0.93-1.63,2-2.12,3.2c-0.49,1.2-0.74,2.42-0.74,3.64c0,1.36,0.31,2.67,0.93,3.91H2.3v5.5h28.6v-5.5H19.14     C17.8,342.23,16.65,342.13,15.71,341.94"></path>
			<path class="st2" d="M137.04,334.51c-0.98-1.29-2.15-2.44-3.5-3.44c-1.35-1-2.83-1.86-4.42-2.57c-1.59-0.71-3.28-1.27-5.07-1.68     c-1.79-0.41-3.59-0.68-5.41-0.8c-1.83-0.12-3.66-0.09-5.5,0.09c-1.85,0.18-3.63,0.5-5.35,0.96c-1.38,0.34-2.74,0.81-4.06,1.4     c-1.32,0.59-2.55,1.27-3.67,2.03l3.13,4.54c0.72-0.52,1.49-0.97,2.32-1.35c0.82-0.38,1.68-0.71,2.59-0.99     c1.6-0.54,3.27-0.9,5.01-1.07c1.73-0.17,3.46-0.21,5.19-0.13c1.8,0.12,3.59,0.4,5.37,0.83c1.78,0.43,3.4,1.07,4.89,1.93     c1.48,0.85,2.76,1.93,3.82,3.25c1.06,1.31,1.79,2.89,2.19,4.74H96.1h-0.66h-5.5v-16.51h-5.5v16.51h-9.38v-16.51h-5.44v16.51     h-9.38v-16.51h-5.47v16.51h-5.41h-0.66h-6.23v-30.59h-5.5V345c0,0.76,0.27,1.41,0.8,1.94c0.53,0.53,1.18,0.8,1.94,0.8h8.99h0.66     h46.11h0.66h43.85l0.21-3.73c0-1.86-0.27-3.59-0.83-5.17C138.78,337.25,138.02,335.81,137.04,334.51"></path>
			<path class="st2" d="M152.68,308.72h-3.91c-0.82,0-1.4-0.1-1.73-0.3c-0.33-0.2-0.5-0.47-0.5-0.81c0-0.32,0.14-0.61,0.41-0.87     c0.27-0.26,0.64-0.39,1.1-0.39h2.98v-2.08c-0.46,0-0.96,0.01-1.49,0.02c-0.53,0.01-1.04,0.02-1.52,0.02     c-0.54,0-1.03,0.09-1.46,0.29c-0.43,0.19-0.8,0.45-1.11,0.77c-0.31,0.32-0.55,0.68-0.71,1.07c-0.16,0.39-0.24,0.8-0.24,1.22     c0,0.18,0.01,0.37,0.03,0.56c0.02,0.19,0.07,0.37,0.15,0.53h-1.44v2.08h9.44V308.72z"></path>
			<path class="st2" d="M170.6,331.91c0,1.62-0.28,3.12-0.84,4.5c-0.56,1.37-1.32,2.54-2.29,3.5c-0.56-2.83-1.28-5.47-2.15-7.94     c-0.87-2.47-2-4.76-3.38-6.89c-0.92-1.4-1.95-2.71-3.1-3.93c-1.14-1.21-2.43-2.32-3.85-3.32c-1.42-1-2.99-1.89-4.69-2.66     c-1.7-0.77-3.58-1.42-5.62-1.94l-1.35,5.35c1.66,0.42,3.19,0.94,4.59,1.56c1.39,0.62,2.67,1.33,3.82,2.12     c1.15,0.79,2.19,1.67,3.11,2.65c0.92,0.97,1.75,2.02,2.5,3.14c1.26,1.95,2.3,4.1,3.1,6.48c0.8,2.37,1.43,4.95,1.9,7.71h-0.21     l-16.99-0.03v5.5h16.99c1.92,0,3.73-0.42,5.41-1.25c1.68-0.83,3.16-1.97,4.42-3.4c1.26-1.43,2.27-3.11,3.01-5.02     c0.74-1.91,1.11-3.96,1.11-6.15l0.03-20.39h-5.5V331.91z"></path>
			<rect x="182.45" y="311.64" class="st2" width="5.5" height="36.06"></rect>
			<path class="st2" d="M223.82,319.72c0.27,0.27,0.59,0.49,0.96,0.65c0.37,0.16,0.77,0.24,1.19,0.24c0.42,0,0.81-0.08,1.17-0.24     c0.36-0.16,0.68-0.38,0.95-0.65c0.27-0.27,0.48-0.59,0.63-0.95c0.15-0.36,0.22-0.74,0.22-1.14c0-0.88-0.29-1.6-0.86-2.17     c-0.57-0.56-1.28-0.84-2.12-0.84c-0.86,0-1.58,0.28-2.15,0.84c-0.57,0.56-0.86,1.28-0.86,2.17c0,0.4,0.07,0.78,0.23,1.14     C223.34,319.13,223.55,319.45,223.82,319.72"></path>
			<path class="st2" d="M216.15,319.72c0.27,0.27,0.59,0.49,0.96,0.65c0.37,0.16,0.77,0.24,1.19,0.24s0.81-0.08,1.17-0.24     c0.36-0.16,0.68-0.38,0.95-0.65c0.27-0.27,0.48-0.59,0.63-0.95c0.15-0.36,0.23-0.74,0.23-1.14c0-0.88-0.29-1.6-0.86-2.17     c-0.57-0.56-1.28-0.84-2.12-0.84c-0.86,0-1.58,0.28-2.15,0.84c-0.57,0.56-0.86,1.28-0.86,2.17c0,0.4,0.08,0.78,0.22,1.14     C215.67,319.13,215.88,319.45,216.15,319.72"></path>
			<path class="st2" d="M247.43,321.22c0.27,0.27,0.59,0.49,0.95,0.65c0.36,0.16,0.75,0.24,1.17,0.24c0.42,0,0.81-0.08,1.17-0.24     c0.36-0.16,0.68-0.38,0.95-0.65c0.27-0.27,0.49-0.59,0.65-0.95c0.16-0.36,0.24-0.74,0.24-1.14c0-0.42-0.08-0.82-0.24-1.19     c-0.16-0.37-0.38-0.69-0.65-0.96c-0.27-0.27-0.59-0.48-0.95-0.63c-0.36-0.15-0.75-0.23-1.17-0.23c-0.84,0-1.55,0.29-2.12,0.86     c-0.57,0.57-0.86,1.29-0.86,2.15c0,0.4,0.08,0.78,0.23,1.14C246.95,320.63,247.16,320.95,247.43,321.22"></path>
			<path class="st2" d="M250.6,342.23h-9.29h-0.63h-3.58v-19.37h-5.5v2.68c-3.29,0.16-6.17,0.56-8.65,1.2     c-2.48,0.64-4.61,1.44-6.41,2.39c-1.79,0.95-3.29,2-4.5,3.16c-1.2,1.15-2.18,2.32-2.93,3.49c-0.75,1.17-1.32,2.32-1.7,3.43     c-0.38,1.11-0.65,2.1-0.8,2.98c-0.15,0.87-0.23,1.58-0.23,2.12v0.78l0.12,2.65h34.17h0.63h12.06c0.76,0,1.41-0.27,1.94-0.8     c0.53-0.53,0.8-1.18,0.8-1.94v-19.28h-5.5V342.23z M231.59,342.23h-19.4c0.16-0.62,0.42-1.31,0.77-2.08     c0.35-0.76,0.84-1.53,1.46-2.31c0.62-0.78,1.41-1.55,2.38-2.32c0.96-0.76,2.13-1.45,3.5-2.06c1.37-0.61,2.99-1.13,4.86-1.55     c1.86-0.42,4.01-0.7,6.44-0.84V342.23z"></path>
			<path class="st2" d="M304.1,326.39c-1.26-1.25-2.8-2.27-4.6-3.04c-1.8-0.77-3.83-1.16-6.07-1.16c-2.21,0-4.3,0.42-6.29,1.25     c-1.99,0.83-3.71,2.05-5.17,3.65c-0.78,0.84-1.41,1.72-1.88,2.63c-0.47,0.91-0.84,1.85-1.11,2.81c-0.27,0.96-0.45,1.95-0.54,2.95     c-0.09,1-0.14,2-0.14,3.01v1.84c0,0.6,0.02,1.2,0.06,1.8v0.09h-3.97h-0.66h-6.23v-30.59H262V345c0,0.76,0.27,1.41,0.8,1.94     c0.53,0.53,1.18,0.8,1.94,0.8h8.99h0.66h14.92c0.84,0,1.77-0.02,2.78-0.06c1.01-0.04,1.96-0.11,2.84-0.21     c2.26-0.22,4.22-0.71,5.88-1.47c1.65-0.76,3.02-1.69,4.09-2.8c1.07-1.1,1.86-2.32,2.37-3.65c0.51-1.33,0.77-2.68,0.77-4.05     c0-1.64-0.34-3.26-1.02-4.84C306.34,329.07,305.37,327.65,304.1,326.39 M302.1,337.72c-0.31,0.72-0.8,1.38-1.46,1.97     c-0.66,0.59-1.51,1.09-2.54,1.5c-1.03,0.41-2.27,0.69-3.72,0.83c-0.36,0.04-0.72,0.07-1.07,0.11c-0.35,0.03-0.72,0.05-1.11,0.06     c-0.39,0.01-0.82,0.02-1.29,0.03c-0.47,0.01-1.01,0.02-1.61,0.02h-5.5l-0.03-3.37c0-0.76,0.03-1.52,0.09-2.27     c0.06-0.75,0.17-1.47,0.33-2.16c0.16-0.69,0.38-1.34,0.66-1.96c0.28-0.61,0.65-1.17,1.11-1.67c0.88-0.98,1.97-1.75,3.28-2.3     c1.3-0.55,2.7-0.83,4.18-0.83c1.4,0,2.67,0.23,3.8,0.68c1.13,0.45,2.1,1.05,2.89,1.79c0.79,0.74,1.4,1.58,1.82,2.51     c0.42,0.93,0.63,1.88,0.63,2.84C302.57,336.25,302.41,337,302.1,337.72"></path>
			<rect x="313.43" y="311.64" class="st2" width="5.5" height="36.06"></rect>
			<path class="st2" d="M316.37,306.92c-0.82,0-1.4-0.09-1.73-0.29c-0.33-0.19-0.5-0.46-0.5-0.8c0-0.34,0.14-0.64,0.41-0.89     c0.27-0.25,0.64-0.38,1.1-0.38h2.98v-2.11c-0.46,0-0.96,0.01-1.49,0.02c-0.53,0.01-1.04,0.01-1.52,0.01     c-0.54,0-1.03,0.1-1.46,0.29c-0.43,0.19-0.8,0.45-1.11,0.77c-0.31,0.32-0.55,0.68-0.71,1.07c-0.16,0.39-0.24,0.8-0.24,1.22     c0,0.18,0.01,0.37,0.03,0.56c0.02,0.19,0.07,0.37,0.15,0.53h-1.44v2.11h9.44v-2.11H316.37z"></path>
			<path class="st3" d="M8.21,358.07L0,378.35h3.15l2.3-6.04h8.19l2.14,6.04H19l-7.67-20.28H8.21z M6.39,370l3.28-8.9l3.09,8.9H6.39     z"></path>
			<polygon class="st3" points="24.76,358.07 21.81,358.07 21.81,378.35 35.53,378.35 35.53,375.8 24.76,375.8    "></polygon>
			<path class="st3" d="M43.98,358.07l-8.21,20.28h3.15l2.3-6.04h8.19l2.14,6.04h3.22l-7.67-20.28H43.98z M42.15,370l3.28-8.9     l3.09,8.9H42.15z"></path>
			<polygon class="st3" points="70.63,366.37 60.53,366.37 60.53,358.07 57.57,358.07 57.57,378.35 60.53,378.35 60.53,368.94      70.63,368.94 70.63,378.35 73.62,378.35 73.62,358.07 70.63,358.07    "></polygon>
			<path class="st3" d="M90.45,367.45l-6.81-1.66c-0.47-0.16-0.85-0.31-1.15-0.47c-0.3-0.16-0.53-0.33-0.7-0.52     c-0.17-0.19-0.29-0.4-0.34-0.64c-0.06-0.24-0.09-0.52-0.09-0.84c0-0.49,0.11-0.93,0.34-1.31c0.22-0.38,0.54-0.71,0.94-0.97     c0.4-0.27,0.87-0.47,1.41-0.61c0.54-0.14,1.13-0.21,1.77-0.21c0.46,0,0.9,0.04,1.34,0.12c0.43,0.08,0.83,0.19,1.2,0.33     c0.37,0.14,0.69,0.31,0.98,0.51c0.28,0.2,0.52,0.43,0.71,0.68c0.09,0.16,0.16,0.31,0.23,0.44c0.06,0.14,0.12,0.3,0.16,0.47     c0.04,0.17,0.08,0.37,0.1,0.59c0.02,0.22,0.03,0.5,0.03,0.82h3.09l-0.05-0.67c0-0.47-0.03-0.88-0.09-1.24     c-0.06-0.36-0.15-0.67-0.25-0.95c-0.23-0.57-0.57-1.09-1.03-1.55s-1-0.85-1.64-1.17c-0.64-0.32-1.36-0.56-2.16-0.73     c-0.8-0.17-1.65-0.25-2.56-0.25c-1.16,0-2.21,0.14-3.14,0.42c-0.94,0.28-1.74,0.67-2.4,1.18c-0.66,0.51-1.17,1.12-1.54,1.83     c-0.36,0.71-0.54,1.5-0.54,2.37c0,1.18,0.31,2.17,0.94,2.99c0.63,0.81,1.67,1.47,3.13,1.97l6.57,1.56     c0.48,0.17,0.88,0.36,1.2,0.59c0.32,0.23,0.57,0.47,0.76,0.73c0.19,0.26,0.32,0.53,0.39,0.82c0.08,0.29,0.11,0.56,0.11,0.84     c0,0.49-0.13,0.93-0.38,1.33c-0.25,0.4-0.61,0.74-1.07,1.02c-0.46,0.28-1.01,0.5-1.65,0.65c-0.64,0.15-1.35,0.23-2.13,0.23     c-1.99,0-3.49-0.43-4.5-1.28c-0.22-0.17-0.4-0.33-0.55-0.5c-0.15-0.17-0.26-0.35-0.34-0.56c-0.08-0.21-0.14-0.45-0.17-0.71     c-0.03-0.27-0.05-0.59-0.05-0.96v-0.58h-3.07v0.61c0,2.17,0.72,3.8,2.16,4.9c1.44,1.1,3.58,1.65,6.41,1.65     c1.49,0,2.76-0.17,3.83-0.52c1.06-0.35,1.93-0.82,2.6-1.4c0.67-0.58,1.17-1.26,1.48-2.02c0.31-0.76,0.47-1.56,0.47-2.39     C94.37,370,93.06,368.35,90.45,367.45"></path>
			<path class="st3" d="M104.11,358.07l-8.21,20.28h3.15l2.3-6.04h8.19l2.14,6.04h3.22l-7.67-20.28H104.11z M102.29,370l3.28-8.9     l3.09,8.9H102.29z"></path>
			<polygon class="st3" points="134.44,374.93 127.77,358.08 124.18,358.08 124.18,378.35 126.77,378.35 126.77,362.1      133.27,378.35 135.67,378.35 141.89,362.1 141.89,378.35 144.51,378.35 144.51,358.08 140.91,358.08    "></polygon>
			<path class="st3" d="M162.26,370.78c0,0.93-0.13,1.73-0.39,2.4c-0.26,0.67-0.62,1.23-1.09,1.68c-0.47,0.45-1.03,0.78-1.67,0.99     c-0.65,0.21-1.35,0.32-2.12,0.32c-0.93,0-1.79-0.17-2.59-0.5c-0.79-0.33-1.41-0.79-1.85-1.36c-0.19-0.22-0.34-0.45-0.45-0.68     c-0.11-0.23-0.21-0.49-0.29-0.78c-0.08-0.29-0.13-0.61-0.16-0.96c-0.03-0.35-0.04-0.76-0.04-1.2v-12.65h-2.99V371     c0,1.3,0.19,2.44,0.58,3.4c0.38,0.96,0.93,1.77,1.65,2.42c0.72,0.65,1.59,1.13,2.61,1.45c1.02,0.32,2.17,0.48,3.44,0.48     c0.98,0,1.9-0.11,2.77-0.33c0.87-0.23,1.65-0.56,2.35-0.99c0.7-0.44,1.29-0.98,1.79-1.62c0.5-0.64,0.87-1.37,1.11-2.2     c0.22-0.77,0.33-1.71,0.33-2.8v-12.76h-2.99V370.78z"></path>
			<polygon class="st3" points="183.1,374 173.34,358.07 170.04,358.07 170.04,378.35 173,378.35 173,362.27 182.73,378.35      186.08,378.35 186.08,358.07 183.1,358.07    "></polygon>
			<rect x="191.16" y="358.07" class="st3" width="2.96" height="20.28"></rect>
			<path class="st3" d="M202.52,362.34c0.59-0.69,1.31-1.21,2.16-1.57c0.85-0.36,1.81-0.54,2.88-0.54c1.84,0,3.28,0.47,4.34,1.41     c0.22,0.21,0.4,0.4,0.55,0.57c0.15,0.17,0.28,0.36,0.39,0.55c0.11,0.2,0.21,0.43,0.29,0.69c0.08,0.26,0.17,0.58,0.27,0.95h3.02     c-0.1-1.04-0.38-1.98-0.85-2.82c-0.47-0.83-1.09-1.54-1.86-2.13c-0.77-0.58-1.69-1.03-2.74-1.35c-1.06-0.31-2.21-0.47-3.47-0.47     c-1.37,0-2.55,0.18-3.53,0.53c-0.5,0.19-1,0.43-1.5,0.71c-0.5,0.29-0.99,0.63-1.49,1.04c-2.24,1.88-3.37,4.71-3.37,8.51     c0,1.58,0.22,3.01,0.67,4.28c0.45,1.27,1.1,2.35,1.95,3.25c0.85,0.89,1.88,1.58,3.09,2.06c1.21,0.48,2.58,0.72,4.1,0.72     c3.07,0,5.46-1.12,7.19-3.36c0.93-1.23,1.54-2.75,1.82-4.55h-3.02c-0.27,1.72-0.94,3.04-1.99,3.96     c-1.06,0.92-2.42,1.38-4.08,1.38c-1.04,0-1.97-0.19-2.79-0.55c-0.82-0.37-1.52-0.9-2.08-1.58c-0.57-0.68-1-1.51-1.3-2.49     c-0.3-0.98-0.44-2.07-0.44-3.28c0-1.27,0.15-2.41,0.47-3.41C201.48,363.87,201.93,363.02,202.52,362.34"></path>
			<rect x="220.21" y="358.07" class="st3" width="2.96" height="20.28"></rect>
			<path class="st3" d="M242.85,363.95c0-1.19-0.23-2.22-0.69-3.1c-0.46-0.88-1.12-1.54-1.97-1.98c-0.26-0.15-0.53-0.27-0.81-0.37     c-0.28-0.1-0.59-0.18-0.94-0.24s-0.76-0.11-1.22-0.13c-0.47-0.02-1.02-0.04-1.65-0.04h-7.75v20.3h2.86v-8.55h4.35     c1.57,0,2.69-0.06,3.37-0.19c0.72-0.14,1.36-0.37,1.92-0.71c0.56-0.34,1.03-0.76,1.4-1.25c0.38-0.5,0.66-1.06,0.85-1.7     C242.75,365.34,242.85,364.67,242.85,363.95 M239.73,365.53c-0.15,0.43-0.41,0.79-0.76,1.06c-0.35,0.28-0.81,0.48-1.38,0.59     c-0.57,0.12-1.28,0.18-2.12,0.18h-4.81v-6.8h5.03c0.77,0,1.42,0.06,1.96,0.19c0.54,0.13,0.98,0.33,1.32,0.6     c0.34,0.28,0.59,0.63,0.75,1.06c0.16,0.43,0.24,0.94,0.24,1.53C239.96,364.57,239.88,365.1,239.73,365.53"></path>
			<path class="st3" d="M250.49,358.07l-8.21,20.28h3.15l2.3-6.04h8.19l2.14,6.04h3.22l-7.67-20.28H250.49z M248.66,370l3.28-8.9     l3.09,8.9H248.66z"></path>
			<polygon class="st3" points="267.04,358.07 264.08,358.07 264.08,378.35 277.81,378.35 277.81,375.8 267.04,375.8    "></polygon>
			<rect x="280.34" y="358.07" class="st3" width="2.96" height="20.28"></rect>
			<polygon class="st3" points="286.17,360.6 293.18,360.6 293.18,378.35 296.14,378.35 296.14,360.6 303.22,360.6 303.22,358.07      286.17,358.07    "></polygon>
			<polygon class="st3" points="319.55,358.07 313.48,367.68 307.3,358.07 303.59,358.07 311.9,370.36 311.9,378.35 314.92,378.35      314.92,370.36 323.1,358.07    "></polygon>
		</g>
	</g>
</g>
</svg>
