<?xml version="1.0" encoding="UTF-8"?>
<svg xmlns="http://www.w3.org/2000/svg" xmlns:xlink="http://www.w3.org/1999/xlink" width="311.478pt" height="262.957pt" viewBox="0 0 311.478 262.957" version="1.1">
<g id="surface1">
<path style=" stroke:none;fill-rule:nonzero;fill:rgb(76.863098%,62.745667%,31.37207%);fill-opacity:1;" d="M 195.566406 51.210938 L 209.917969 51.210938 L 236.917969 185.738281 L 222.566406 185.738281 Z M 195.566406 51.210938 "/>
<path style=" stroke:none;fill-rule:nonzero;fill:rgb(76.863098%,62.745667%,31.37207%);fill-opacity:1;" d="M 210.574219 174.0625 L 199.84375 120.605469 L 185.496094 120.605469 L 196.226563 174.0625 L 155.660156 174.0625 L 152.523438 143.742188 L 138.175781 143.742188 L 141.3125 174.0625 L 94.214844 174.0625 L 118.871094 51.210938 L 104.523438 51.210938 L 77.523438 185.742188 L 212.917969 185.742188 Z M 210.574219 174.0625 "/>
<path style=" stroke:none;fill-rule:nonzero;fill:rgb(76.863098%,62.745667%,31.37207%);fill-opacity:1;" d="M 123.761719 71.804688 L 130.578125 82.851563 L 137.390625 71.804688 Z M 123.761719 71.804688 "/>
<path style=" stroke:none;fill-rule:nonzero;fill:rgb(76.863098%,62.745667%,31.37207%);fill-opacity:1;" d="M 122.066406 51.210938 L 129.730469 65.152344 L 137.390625 51.210938 Z M 122.066406 51.210938 "/>
<path style=" stroke:none;fill-rule:nonzero;fill:rgb(76.863098%,62.745667%,31.37207%);fill-opacity:1;" d="M 140.738281 51.210938 L 148.398438 65.152344 L 156.0625 51.210938 Z M 140.738281 51.210938 "/>
<path style=" stroke:none;fill-rule:nonzero;fill:rgb(76.863098%,62.745667%,31.37207%);fill-opacity:1;" d="M 159.40625 51.210938 L 167.070313 65.152344 L 174.734375 51.210938 Z M 159.40625 51.210938 "/>
<path style=" stroke:none;fill-rule:nonzero;fill:rgb(76.863098%,62.745667%,31.37207%);fill-opacity:1;" d="M 178.082031 51.210938 L 185.742188 65.152344 L 193.40625 51.210938 Z M 178.082031 51.210938 "/>
<path style=" stroke:none;fill-rule:nonzero;fill:rgb(76.863098%,62.745667%,31.37207%);fill-opacity:1;" d="M 201.949219 44.558594 L 194.285156 30.621094 L 209.613281 30.621094 Z M 183.132813 46.226563 L 190.796875 32.289063 L 198.460938 46.226563 Z M 171.980469 30.621094 L 187.304688 30.621094 L 179.644531 44.558594 Z M 160.828125 46.226563 L 168.492188 32.289063 L 176.15625 46.226563 Z M 149.675781 30.621094 L 165.003906 30.621094 L 157.339844 44.558594 Z M 138.523438 46.226563 L 146.1875 32.289063 L 153.851563 46.226563 Z M 127.371094 30.621094 L 142.699219 30.621094 L 135.035156 44.558594 Z M 116.21875 46.226563 L 123.882813 32.289063 L 131.546875 46.226563 Z M 105.066406 30.621094 L 120.394531 30.621094 L 112.730469 44.558594 Z M 201.09375 16.476563 L 201.09375 27.261719 L 188.09375 27.261719 L 188.09375 16.476563 L 176.304688 16.476563 L 176.304688 27.261719 L 163.308594 27.261719 L 163.308594 16.476563 L 151.519531 16.476563 L 151.519531 27.261719 L 138.519531 27.261719 L 138.519531 16.476563 L 126.734375 16.476563 L 126.734375 27.261719 L 113.734375 27.261719 L 113.734375 16.476563 L 101.945313 16.476563 L 101.945313 27.261719 L 105.066406 48.914063 L 210.175781 48.914063 L 212.882813 27.261719 L 212.882813 16.476563 Z M 201.09375 16.476563 "/>
<path style=" stroke:none;fill-rule:nonzero;fill:rgb(76.863098%,62.745667%,31.37207%);fill-opacity:1;" d="M 137.71875 71.804688 L 144.535156 82.851563 L 151.347656 71.804688 Z M 137.71875 71.804688 "/>
<path style=" stroke:none;fill-rule:nonzero;fill:rgb(76.863098%,62.745667%,31.37207%);fill-opacity:1;" d="M 194.152344 70.980469 C 193.761719 70.691406 193.371094 70.429688 192.980469 70.222656 C 192.742188 70.371094 192.460938 70.5625 192.152344 70.792969 C 191.640625 71.160156 191.050781 71.621094 190.441406 72.179688 L 190.441406 72.191406 C 188.53125 73.910156 186.378906 76.5 185.742188 79.78125 C 185.742188 79.78125 185.808594 78.492188 185.691406 76.8125 C 185.703125 76.800781 185.703125 76.800781 185.691406 76.792969 C 185.71875 76.492188 185.742188 76.179688 185.742188 75.871094 C 185.742188 74.011719 185.179688 72.28125 184.230469 70.839844 C 184.128906 70.671875 184.019531 70.519531 183.910156 70.371094 C 183.871094 70.320313 183.839844 70.28125 183.800781 70.242188 C 182.128906 68.082031 179.511719 66.699219 176.570313 66.699219 C 171.820313 66.699219 167.910156 70.320313 167.453125 74.941406 C 169.121094 72.742188 171.761719 71.332031 174.730469 71.332031 C 179.179688 71.332031 182.902344 74.5 183.730469 78.699219 L 183.730469 78.710938 L 183.910156 80.570313 L 183.980469 81.28125 L 184.359375 85.300781 L 185.390625 85.300781 C 185.390625 85.300781 187.429688 77.019531 190.242188 74.011719 C 191.703125 75.109375 193.292969 76.652344 194.308594 77.992188 L 197.519531 74.570313 C 196.710938 73.300781 195.453125 71.972656 194.152344 70.980469 "/>
<path style=" stroke:none;fill-rule:nonzero;fill:rgb(76.863098%,62.745667%,31.37207%);fill-opacity:1;" d="M 109.273438 133.910156 C 109.9375 133.421875 110.597656 132.984375 111.261719 132.632813 C 111.671875 132.886719 112.148438 133.203125 112.675781 133.59375 C 113.542969 134.214844 114.546875 134.988281 115.582031 135.929688 L 115.582031 135.945313 C 118.832031 138.84375 122.488281 143.199219 123.578125 148.71875 C 123.578125 148.71875 122.585938 129.847656 138.632813 127.695313 C 146.640625 126.621094 152.585938 132.261719 153.632813 138.652344 C 150.792969 134.949219 146.160156 134.261719 141.109375 134.261719 C 135.304688 134.261719 128.304688 141.132813 126.890625 148.199219 C 126.355469 150.605469 126.238281 155.515625 126.621094 159.128906 L 124.871094 159.128906 C 124.871094 159.128906 120.703125 144.074219 115.921875 139.011719 C 113.441406 140.859375 110.734375 143.449219 109 145.707031 L 103.539063 139.949219 C 104.917969 137.816406 107.0625 135.574219 109.273438 133.910156 "/>
<path style=" stroke:none;fill-rule:nonzero;fill:rgb(76.863098%,62.745667%,31.37207%);fill-opacity:1;" d="M 172.089844 126.78125 C 171.625 127.898438 171.183594 129.003906 170.816406 130.101563 C 170.4375 131.183594 170.230469 132.3125 170.226563 133.277344 C 170.242188 134.265625 170.589844 134.910156 171.230469 135.382813 C 171.566406 135.617188 171.953125 135.863281 172.402344 136.074219 C 172.855469 136.285156 173.355469 136.46875 173.867188 136.6875 C 174.90625 137.085938 176.023438 137.515625 177.183594 138.0625 C 177.761719 138.339844 178.355469 138.65625 178.9375 139.058594 C 179.519531 139.460938 180.085938 140.003906 180.480469 140.703125 C 180.890625 141.382813 181.109375 142.21875 181.117188 142.925781 C 181.140625 143.65625 181.023438 144.351563 180.839844 144.988281 C 180.621094 145.613281 180.433594 146.222656 180.152344 146.785156 C 179.921875 147.363281 179.648438 147.914063 179.347656 148.449219 C 178.214844 150.613281 176.855469 152.605469 175.578125 154.59375 C 174.941406 155.585938 174.304688 156.570313 173.800781 157.582031 C 173.289063 158.582031 172.855469 159.601563 172.667969 160.484375 C 172.589844 160.917969 172.542969 161.304688 172.582031 161.589844 C 172.632813 161.835938 172.703125 162.054688 172.839844 162.253906 C 173.121094 162.632813 173.578125 162.996094 174.273438 163.085938 C 174.941406 163.199219 175.8125 163.21875 176.824219 163.042969 C 177.839844 162.878906 178.957031 162.578125 180.34375 162.316406 C 180.015625 163.683594 179.238281 164.839844 178.128906 165.71875 C 177.027344 166.589844 175.511719 167.210938 173.820313 167.0625 C 172.171875 166.917969 170.339844 166.03125 169.386719 164.363281 C 168.90625 163.550781 168.636719 162.601563 168.660156 161.664063 C 168.695313 160.761719 168.902344 159.980469 169.203125 159.296875 C 169.789063 157.9375 170.601563 156.921875 171.402344 155.960938 C 172.21875 155.011719 173.027344 154.121094 173.835938 153.246094 C 174.648438 152.371094 175.453125 151.511719 176.21875 150.628906 C 176.992188 149.753906 177.726563 148.851563 178.320313 147.871094 C 178.863281 146.878906 179.371094 145.804688 179.253906 144.71875 C 179.152344 143.65625 178.675781 142.785156 178.117188 142.453125 C 177.53125 142.097656 176.765625 141.660156 175.742188 141.351563 C 174.738281 141.023438 173.59375 140.785156 172.398438 140.324219 C 171.199219 139.894531 169.878906 139.242188 168.707031 137.925781 C 168.136719 137.269531 167.644531 136.414063 167.4375 135.511719 C 167.21875 134.605469 167.304688 133.734375 167.464844 132.984375 C 167.628906 132.230469 167.929688 131.578125 168.257813 130.988281 C 168.578125 130.390625 168.953125 129.855469 169.359375 129.363281 C 169.753906 128.863281 170.203125 128.414063 170.660156 127.988281 C 171.109375 127.554688 171.578125 127.148438 172.089844 126.78125 "/>
<path style=" stroke:none;fill-rule:nonzero;fill:rgb(100%,100%,100%);fill-opacity:1;" d="M 155.164063 178.628906 C 155.164063 182.304688 152.1875 185.28125 148.511719 185.28125 C 144.839844 185.28125 141.859375 182.304688 141.859375 178.628906 C 141.859375 174.957031 144.839844 171.980469 148.511719 171.980469 C 152.1875 171.980469 155.164063 174.957031 155.164063 178.628906 "/>
<path style=" stroke:none;fill-rule:nonzero;fill:rgb(9.01947%,51.373291%,67.843628%);fill-opacity:1;" d="M 154.1875 178.628906 C 154.1875 181.765625 151.644531 184.304688 148.511719 184.304688 C 145.378906 184.304688 142.839844 181.765625 142.839844 178.628906 C 142.839844 175.496094 145.378906 172.957031 148.511719 172.957031 C 151.644531 172.957031 154.1875 175.496094 154.1875 178.628906 "/>
<path style=" stroke:none;fill-rule:nonzero;fill:rgb(76.863098%,62.745667%,31.37207%);fill-opacity:1;" d="M 22.804688 190.152344 C 33.84375 189.8125 44.882813 189.667969 55.917969 189.421875 L 89.035156 189.003906 C 111.109375 188.730469 133.1875 188.691406 155.261719 188.65625 C 177.335938 188.6875 199.414063 188.726563 221.492188 189 L 254.605469 189.417969 C 265.644531 189.667969 276.679688 189.8125 287.71875 190.152344 C 276.679688 190.492188 265.644531 190.636719 254.605469 190.886719 L 221.492188 191.304688 C 199.414063 191.578125 177.335938 191.617188 155.261719 191.652344 C 133.1875 191.613281 111.109375 191.578125 89.035156 191.300781 L 55.917969 190.882813 C 44.882813 190.636719 33.84375 190.492188 22.804688 190.152344 "/>
<path style=" stroke:none;fill-rule:nonzero;fill:rgb(76.863098%,62.745667%,31.37207%);fill-opacity:1;" d="M 139.800781 109.980469 L 131.5625 109.980469 C 128.960938 108.222656 127.820313 104.042969 127.820313 100.664063 C 127.820313 95.261719 131.628906 92.082031 137.03125 92.082031 C 137.992188 92.082031 138.921875 92.222656 139.800781 92.480469 Z M 197.859375 108.980469 L 173.496094 81.539063 L 172.828125 82.132813 L 172.8125 82.148438 L 167.378906 87 L 167.386719 87.007813 L 158.527344 94.941406 L 163.746094 100.90625 L 172.84375 93.15625 L 186.761719 108.828125 L 186.761719 108.980469 L 150.761719 108.980469 L 150.761719 84.230469 L 132.691406 84.230469 C 123.800781 84.230469 116.601563 91.480469 116.601563 100.421875 C 116.601563 108.800781 122.929688 115.699219 131.050781 116.53125 L 131.050781 116.621094 L 197.859375 116.621094 L 197.859375 108.980469 L 197.84375 108.980469 Z M 197.859375 108.980469 "/>
<path style=" stroke:none;fill-rule:nonzero;fill:rgb(9.01947%,51.373291%,67.843628%);fill-opacity:1;" d="M 28.714844 204.179688 C 29.964844 204.179688 30.984375 203.160156 30.984375 201.910156 C 30.984375 200.617188 29.984375 199.605469 28.714844 199.605469 C 27.445313 199.605469 26.449219 200.617188 26.449219 201.910156 C 26.449219 203.160156 27.464844 204.179688 28.714844 204.179688 "/>
<path style=" stroke:none;fill-rule:nonzero;fill:rgb(9.01947%,51.373291%,67.843628%);fill-opacity:1;" d="M 178.179688 204.179688 C 179.453125 204.179688 180.492188 203.160156 180.492188 201.910156 C 180.492188 200.640625 179.453125 199.605469 178.179688 199.605469 C 176.929688 199.605469 175.914063 200.640625 175.914063 201.910156 C 175.914063 203.140625 176.953125 204.179688 178.179688 204.179688 "/>
<path style=" stroke:none;fill-rule:nonzero;fill:rgb(9.01947%,51.373291%,67.843628%);fill-opacity:1;" d="M 172.367188 204.179688 C 173.617188 204.179688 174.636719 203.160156 174.636719 201.910156 C 174.636719 200.617188 173.636719 199.605469 172.367188 199.605469 C 171.097656 199.605469 170.097656 200.617188 170.097656 201.910156 C 170.097656 203.160156 171.117188 204.179688 172.367188 204.179688 "/>
<path style=" stroke:none;fill-rule:nonzero;fill:rgb(9.01947%,51.373291%,67.843628%);fill-opacity:1;" d="M 34.53125 204.179688 C 35.804688 204.179688 36.839844 203.160156 36.839844 201.910156 C 36.839844 200.640625 35.804688 199.605469 34.53125 199.605469 C 33.28125 199.605469 32.261719 200.640625 32.261719 201.910156 C 32.261719 203.140625 33.300781 204.179688 34.53125 204.179688 "/>
<path style=" stroke:none;fill-rule:nonzero;fill:rgb(9.01947%,51.373291%,67.843628%);fill-opacity:1;" d="M 27.457031 212.753906 C 27.457031 210.753906 28.558594 209.734375 29.484375 209.230469 C 30.195313 208.84375 31.050781 208.648438 31.9375 208.648438 C 32.359375 208.648438 32.789063 208.691406 33.214844 208.78125 L 33.214844 217.011719 L 30.601563 217.011719 C 29.742188 217.011719 28.96875 216.59375 28.40625 215.824219 C 27.785156 215.019531 27.457031 213.957031 27.457031 212.753906 M 103.695313 204.632813 L 99.230469 209.148438 L 100.578125 210.492188 L 101.40625 209.664063 C 101.5625 209.496094 101.75 209.40625 101.796875 209.402344 C 101.902344 209.402344 102.125 209.496094 102.589844 209.96875 L 109.703125 217.011719 L 37.792969 217.011719 L 37.792969 208.984375 C 37.792969 207.886719 37.980469 207.886719 38.4375 207.886719 L 39.597656 207.886719 L 39.597656 205.976563 L 32.40625 205.976563 C 26.695313 205.976563 23.003906 208.621094 23.003906 212.714844 C 23.003906 214.613281 23.863281 216.320313 25.496094 217.644531 C 26.917969 218.800781 28.773438 219.488281 30.601563 219.535156 L 112.203125 219.535156 L 112.617188 219.976563 C 113.082031 220.507813 113.609375 221.109375 113.96875 221.855469 C 114.386719 222.734375 114.464844 223.707031 114.21875 224.699219 C 114.109375 225.03125 114.140625 225.320313 114.308594 225.558594 L 114.589844 225.894531 L 114.902344 225.894531 C 114.933594 225.898438 114.964844 225.898438 115 225.898438 C 115.269531 225.898438 115.628906 225.761719 115.972656 225.191406 C 116.042969 225.050781 116.214844 224.765625 116.644531 224.191406 C 116.984375 223.722656 117.265625 223.136719 117.542969 222.292969 C 118.035156 220.394531 117.542969 218.734375 116.039063 217.234375 Z M 103.695313 204.632813 "/>
<path style=" stroke:none;fill-rule:nonzero;fill:rgb(9.01947%,51.373291%,67.843628%);fill-opacity:1;" d="M 131.929688 222.601563 C 130.703125 222.601563 129.664063 223.640625 129.664063 224.871094 C 129.664063 226.144531 130.679688 227.179688 131.929688 227.179688 C 133.203125 227.179688 134.238281 226.144531 134.238281 224.871094 C 134.238281 223.621094 133.203125 222.601563 131.929688 222.601563 "/>
<path style=" stroke:none;fill-rule:nonzero;fill:rgb(9.01947%,51.373291%,67.843628%);fill-opacity:1;" d="M 142.265625 213.554688 C 142.164063 214.792969 141.824219 215.710938 141.253906 216.285156 C 140.800781 216.738281 140.078125 217.007813 139.320313 217.007813 L 135.515625 217.007813 L 135.515625 209.066406 C 135.515625 207.96875 135.707031 207.96875 136.160156 207.96875 L 137.320313 207.96875 L 137.320313 206.058594 L 130.941406 206.058594 L 130.941406 217.007813 L 126.820313 217.007813 L 126.820313 203.28125 C 126.820313 202.394531 126.859375 202.1875 127.875 202.1875 L 128.625 202.1875 L 128.625 200.277344 L 122.285156 200.277344 L 122.285156 219.535156 L 141.011719 219.535156 C 142.613281 219.519531 144.042969 218.902344 145.152344 217.742188 C 146.257813 216.59375 146.839844 214.984375 146.839844 213.082031 L 146.839844 203.28125 C 146.839844 202.449219 146.839844 202.226563 147.894531 202.226563 L 148.644531 202.226563 L 148.644531 200.277344 L 142.261719 200.277344 Z M 142.265625 213.554688 "/>
<path style=" stroke:none;fill-rule:nonzero;fill:rgb(9.01947%,51.373291%,67.843628%);fill-opacity:1;" d="M 150.988281 219.535156 L 155.566406 219.535156 L 155.566406 203.28125 C 155.566406 202.359375 155.597656 202.183594 156.582031 202.183594 L 157.332031 202.183594 L 157.332031 200.320313 L 150.988281 200.265625 Z M 150.988281 219.535156 "/>
<path style=" stroke:none;fill-rule:nonzero;fill:rgb(9.01947%,51.373291%,67.843628%);fill-opacity:1;" d="M 170.898438 212.753906 C 170.898438 210.753906 172 209.734375 172.925781 209.230469 C 173.636719 208.84375 174.492188 208.648438 175.378906 208.648438 C 175.800781 208.648438 176.234375 208.691406 176.65625 208.78125 L 176.65625 217.011719 L 174.042969 217.011719 C 173.183594 217.011719 172.410156 216.59375 171.847656 215.824219 C 171.226563 215.019531 170.898438 213.957031 170.898438 212.753906 M 244.398438 213.597656 C 244.296875 214.835938 243.957031 215.753906 243.402344 216.3125 C 242.789063 216.890625 242.003906 217.011719 241.453125 217.011719 L 181.234375 217.011719 L 181.234375 208.984375 C 181.234375 207.886719 181.421875 207.886719 181.875 207.886719 L 183.039063 207.886719 L 183.039063 205.976563 L 175.847656 205.976563 C 170.136719 205.976563 166.445313 208.621094 166.445313 212.714844 C 166.445313 214.613281 167.304688 216.320313 168.9375 217.644531 C 170.359375 218.800781 172.214844 219.488281 174.042969 219.535156 L 243.1875 219.535156 L 243.1875 219.527344 C 244.550781 219.5 245.964844 218.824219 247.070313 217.675781 C 248.296875 216.449219 248.972656 214.742188 248.972656 212.878906 L 248.972656 209.066406 C 248.972656 207.96875 249.070313 207.96875 249.617188 207.96875 L 250.777344 207.96875 L 250.777344 206.058594 L 244.394531 206.058594 Z M 244.398438 213.597656 "/>
<path style=" stroke:none;fill-rule:nonzero;fill:rgb(9.01947%,51.373291%,67.843628%);fill-opacity:1;" d="M 246.238281 203.640625 C 247.511719 203.640625 248.546875 202.621094 248.546875 201.371094 C 248.546875 200.101563 247.511719 199.066406 246.238281 199.066406 C 244.988281 199.066406 243.96875 200.101563 243.96875 201.371094 C 243.96875 202.605469 245.011719 203.640625 246.238281 203.640625 "/>
<path style=" stroke:none;fill-rule:nonzero;fill:rgb(9.01947%,51.373291%,67.843628%);fill-opacity:1;" d="M 267.050781 213.289063 C 267.050781 211.539063 267.4375 210.605469 268.019531 209.746094 C 268.613281 208.964844 269.417969 208.585938 270.484375 208.585938 C 271.503906 208.585938 272.246094 209.023438 272.902344 210.019531 C 273.605469 211.054688 273.878906 212.203125 273.878906 214.109375 C 273.878906 215.867188 273.667969 216.722656 273.035156 217.523438 C 272.449219 218.339844 271.65625 218.730469 270.609375 218.730469 C 269.605469 218.730469 268.839844 218.289063 268.199219 217.347656 C 267.488281 216.265625 267.050781 215.210938 267.050781 213.289063 M 270.609375 205.976563 C 268.195313 205.976563 266.042969 206.742188 264.730469 208.058594 C 263.164063 209.492188 262.433594 211.28125 262.433594 213.699219 L 262.4375 214.128906 C 262.332031 215.332031 262.082031 216.117188 261.667969 216.53125 C 261.335938 216.867188 260.878906 217.011719 260.148438 217.011719 L 257.65625 217.011719 L 257.65625 203.28125 C 257.65625 202.394531 257.699219 202.183594 258.710938 202.183594 L 259.460938 202.183594 L 259.460938 200.273438 L 253.121094 200.273438 L 253.121094 219.535156 L 261.269531 219.535156 L 261.269531 219.53125 L 261.332031 219.53125 C 261.78125 219.484375 262.210938 219.394531 262.628906 219.253906 C 263.113281 219.101563 263.542969 218.847656 263.910156 218.496094 C 264.113281 218.773438 264.339844 219.03125 264.582031 219.273438 C 265.945313 220.640625 267.992188 221.421875 270.199219 221.421875 C 272.753906 221.421875 274.78125 220.714844 276.199219 219.339844 C 277.671875 218.003906 278.453125 216.066406 278.453125 213.738281 C 278.453125 211.4375 277.730469 209.550781 276.308594 208.125 C 274.960938 206.777344 272.832031 205.976563 270.609375 205.976563 "/>
<path style=" stroke:none;fill-rule:nonzero;fill:rgb(9.01947%,51.373291%,67.843628%);fill-opacity:1;" d="M 281.089844 219.535156 L 285.664063 219.535156 L 285.664063 203.28125 C 285.664063 202.394531 285.703125 202.183594 286.71875 202.183594 L 287.46875 202.183594 L 287.46875 200.273438 L 281.089844 200.273438 Z M 281.089844 219.535156 "/>
<path style=" stroke:none;fill-rule:nonzero;fill:rgb(9.01947%,51.373291%,67.843628%);fill-opacity:1;" d="M 285.488281 197.40625 C 284.941406 197.40625 284.433594 197.265625 284.433594 196.265625 C 284.433594 195.546875 284.742188 195.253906 285.488281 195.253906 C 286.285156 195.253906 286.324219 195.480469 286.347656 195.644531 L 286.449219 196.28125 L 288.085938 196.28125 L 288.085938 195.53125 C 288.085938 194.804688 288.085938 194.289063 287.5 193.773438 L 287.441406 193.726563 C 287.007813 193.417969 286.269531 193.261719 285.242188 193.261719 C 283.0625 193.261719 281.539063 194.5 281.539063 196.265625 C 281.539063 196.699219 281.621094 197.09375 281.773438 197.445313 L 281.007813 197.445313 L 281.007813 199.476563 L 288.207031 199.476563 L 288.207031 197.40625 Z M 285.488281 197.40625 "/>
<path style=" stroke:none;fill-rule:nonzero;fill:rgb(76.863098%,62.745667%,31.37207%);fill-opacity:1;" d="M 31.007813 245.03125 L 28.292969 238.507813 L 25.476563 245.03125 Z M 36.742188 250.21875 C 36.5 250.289063 36.191406 250.324219 35.847656 250.324219 C 35.335938 250.324219 34.648438 250.253906 33.925781 249.84375 C 33.203125 249.429688 32.484375 248.675781 32.035156 247.402344 L 31.453125 245.925781 L 25.132813 245.925781 L 23.347656 250.21875 L 22.316406 250.21875 L 28.636719 235.347656 L 29.324219 235.347656 L 34.269531 247.402344 C 34.648438 248.226563 34.921875 248.808594 35.300781 249.1875 C 35.675781 249.53125 36.125 249.703125 36.742188 249.773438 Z M 36.742188 250.21875 "/>
<path style=" stroke:none;fill-rule:nonzero;fill:rgb(76.863098%,62.745667%,31.37207%);fill-opacity:1;" d="M 41.757813 249.328125 L 49.726563 249.328125 L 49.726563 250.21875 L 39.734375 250.21875 L 39.734375 238.058594 C 39.734375 236.683594 39.492188 235.792969 38.152344 235.792969 L 37.671875 235.792969 L 37.671875 235.347656 L 39.734375 235.347656 C 40.488281 235.347656 41.039063 235.449219 41.347656 235.828125 C 41.65625 236.238281 41.757813 236.960938 41.757813 238.058594 Z M 41.757813 249.328125 "/>
<path style=" stroke:none;fill-rule:nonzero;fill:rgb(76.863098%,62.745667%,31.37207%);fill-opacity:1;" d="M 55.5 243.109375 L 55.5 249.121094 C 56.1875 249.328125 56.945313 249.429688 57.632813 249.429688 C 60.34375 249.429688 61.925781 248.332031 61.925781 246.269531 C 61.925781 244.242188 60.449219 243.109375 57.632813 243.109375 Z M 55.5 242.214844 L 57.632813 242.214844 C 58.523438 242.214844 59.417969 241.976563 60.105469 241.460938 C 60.792969 240.945313 61.238281 240.191406 61.238281 239.195313 C 61.238281 238.09375 60.652344 237.339844 59.863281 236.824219 C 59.109375 236.34375 58.078125 236.136719 57.183594 236.136719 C 56.601563 236.136719 55.949219 236.242188 55.5 236.378906 Z M 51.414063 235.792969 L 51.414063 235.347656 L 57.289063 235.347656 C 58.457031 235.347656 60 235.449219 61.238281 236 C 62.441406 236.546875 63.367188 237.546875 63.367188 239.296875 C 63.367188 240.636719 62.507813 241.875 60.449219 242.558594 C 61.925781 242.800781 62.816406 243.246094 63.402344 243.832031 C 63.949219 244.484375 64.15625 245.273438 64.15625 246.167969 C 64.15625 247.847656 63.296875 248.878906 62.128906 249.464844 C 60.929688 250.046875 59.382813 250.21875 57.976563 250.21875 L 53.476563 250.21875 L 53.476563 238.058594 C 53.476563 236.683594 53.234375 235.792969 51.894531 235.792969 Z M 51.414063 235.792969 "/>
<path style=" stroke:none;fill-rule:nonzero;fill:rgb(76.863098%,62.745667%,31.37207%);fill-opacity:1;" d="M 75.425781 245.03125 L 72.710938 238.507813 L 69.894531 245.03125 Z M 81.164063 250.21875 C 80.921875 250.289063 80.613281 250.324219 80.269531 250.324219 C 79.753906 250.324219 79.066406 250.253906 78.347656 249.84375 C 77.625 249.429688 76.902344 248.675781 76.457031 247.402344 L 75.871094 245.925781 L 69.554688 245.925781 L 67.765625 250.21875 L 66.734375 250.21875 L 73.054688 235.347656 L 73.742188 235.347656 L 78.6875 247.402344 C 79.066406 248.226563 79.339844 248.808594 79.71875 249.1875 C 80.097656 249.53125 80.542969 249.703125 81.164063 249.773438 Z M 81.164063 250.21875 "/>
<path style=" stroke:none;fill-rule:nonzero;fill:rgb(76.863098%,62.745667%,31.37207%);fill-opacity:1;" d="M 92.910156 235.347656 L 94.9375 235.347656 L 94.9375 247.503906 C 94.9375 248.878906 95.179688 249.773438 96.519531 249.773438 L 96.964844 249.773438 L 96.964844 250.21875 L 94.9375 250.21875 C 94.148438 250.21875 93.667969 250.117188 93.359375 249.703125 C 93.050781 249.289063 92.910156 248.671875 92.910156 247.503906 L 92.910156 243.003906 L 86.179688 243.003906 L 86.179688 250.21875 L 84.152344 250.21875 L 84.152344 238.0625 C 84.152344 236.6875 83.914063 235.792969 82.574219 235.792969 L 82.09375 235.792969 L 82.09375 235.347656 L 84.152344 235.347656 C 84.910156 235.347656 85.457031 235.449219 85.765625 235.828125 C 86.078125 236.242188 86.179688 236.960938 86.179688 238.0625 L 86.179688 242.113281 L 92.910156 242.113281 Z M 92.910156 235.347656 "/>
<path style=" stroke:none;fill-rule:nonzero;fill:rgb(76.863098%,62.745667%,31.37207%);fill-opacity:1;" d="M 107.71875 245.03125 L 105.003906 238.507813 L 102.1875 245.03125 Z M 113.453125 250.21875 C 113.214844 250.289063 112.90625 250.324219 112.5625 250.324219 C 112.046875 250.324219 111.359375 250.253906 110.636719 249.84375 C 109.917969 249.429688 109.195313 248.675781 108.75 247.402344 L 108.164063 245.925781 L 101.84375 245.925781 L 100.058594 250.21875 L 99.027344 250.21875 L 105.347656 235.347656 L 106.035156 235.347656 L 110.980469 247.402344 C 111.359375 248.226563 111.632813 248.808594 112.011719 249.1875 C 112.390625 249.53125 112.835938 249.703125 113.453125 249.773438 Z M 113.453125 250.21875 "/>
<path style=" stroke:none;fill-rule:nonzero;fill:rgb(76.863098%,62.745667%,31.37207%);fill-opacity:1;" d="M 146.078125 251.25 C 144.429688 251.25 143.398438 250.871094 142.746094 250.082031 C 142.128906 249.292969 141.886719 248.089844 141.886719 246.371094 L 141.886719 237.71875 L 136.253906 250.21875 L 135.808594 250.21875 L 129.96875 237.476563 L 129.96875 250.21875 L 129.042969 250.21875 L 129.042969 235.347656 L 131.207031 235.347656 L 136.597656 247.058594 L 141.886719 235.347656 L 143.914063 235.347656 L 143.914063 246.371094 C 143.914063 249.121094 144.601563 250.769531 146.078125 250.769531 Z M 146.078125 251.25 "/>
<path style=" stroke:none;fill-rule:nonzero;fill:rgb(76.863098%,62.745667%,31.37207%);fill-opacity:1;" d="M 149.792969 238.058594 C 149.792969 236.6875 149.550781 235.792969 148.210938 235.792969 L 147.765625 235.792969 L 147.765625 235.347656 L 149.792969 235.347656 C 150.582031 235.347656 151.097656 235.449219 151.40625 235.828125 C 151.714844 236.242188 151.820313 236.960938 151.820313 238.058594 L 151.820313 244.484375 C 151.820313 246.0625 152.058594 247.296875 152.710938 248.195313 C 153.332031 249.085938 154.292969 249.535156 155.800781 249.535156 C 157.523438 249.535156 158.65625 249.085938 159.375 248.160156 C 160.097656 247.199219 160.371094 245.789063 160.371094 243.796875 L 160.371094 235.347656 L 161.296875 235.347656 L 161.296875 243.796875 C 161.296875 245.996094 161.023438 247.675781 160.167969 248.777344 C 159.304688 249.875 157.867188 250.457031 155.53125 250.457031 C 153.367188 250.457031 151.921875 249.875 151.027344 248.777344 C 150.136719 247.675781 149.792969 245.996094 149.792969 243.796875 Z M 149.792969 238.058594 "/>
<path style=" stroke:none;fill-rule:nonzero;fill:rgb(76.863098%,62.745667%,31.37207%);fill-opacity:1;" d="M 166.589844 250.21875 L 165.691406 250.21875 L 165.691406 238.0625 C 165.691406 236.6875 165.214844 235.792969 163.667969 235.792969 L 163.460938 235.792969 L 163.460938 235.347656 L 164.902344 235.347656 C 166.382813 235.347656 167.238281 235.863281 167.960938 236.6875 L 175.824219 246.507813 L 175.824219 235.347656 L 176.753906 235.347656 L 176.753906 250.457031 L 176.273438 250.457031 L 166.589844 238.40625 Z M 166.589844 250.21875 "/>
<path style=" stroke:none;fill-rule:nonzero;fill:rgb(76.863098%,62.745667%,31.37207%);fill-opacity:1;" d="M 179.804688 235.347656 L 181.832031 235.347656 L 181.832031 247.503906 C 181.832031 248.878906 182.074219 249.773438 183.410156 249.773438 L 183.859375 249.773438 L 183.859375 250.21875 L 181.832031 250.21875 C 181.042969 250.21875 180.5625 250.117188 180.25 249.703125 C 179.945313 249.289063 179.804688 248.671875 179.804688 247.503906 Z M 179.804688 235.347656 "/>
<path style=" stroke:none;fill-rule:nonzero;fill:rgb(76.863098%,62.745667%,31.37207%);fill-opacity:1;" d="M 198.664063 240.085938 C 198.113281 237.132813 196.570313 235.792969 194.0625 235.792969 C 192.585938 235.792969 191.246094 236.238281 190.25 237.371094 C 189.253906 238.507813 188.636719 240.292969 188.636719 243.007813 C 188.636719 244.691406 189.046875 246.371094 189.90625 247.644531 C 190.800781 248.914063 192.140625 249.773438 194.0625 249.773438 C 196.332031 249.773438 197.875 248.675781 199.144531 246.613281 L 199.59375 246.957031 C 198.871094 248.363281 197.941406 249.257813 196.945313 249.875 C 195.917969 250.460938 194.75 250.664063 193.375 250.664063 C 191.246094 250.664063 189.492188 249.808594 188.292969 248.433594 C 187.089844 247.058594 186.402344 245.136719 186.402344 243.007813 C 186.402344 240.738281 187.191406 238.714844 188.464844 237.269531 C 189.699219 235.792969 191.449219 234.898438 193.375 234.898438 C 195.882813 234.898438 197.738281 235.726563 198.5625 236.6875 C 199.144531 237.40625 199.144531 238.714844 199.144531 240.085938 Z M 198.664063 240.085938 "/>
<path style=" stroke:none;fill-rule:nonzero;fill:rgb(76.863098%,62.745667%,31.37207%);fill-opacity:1;" d="M 201.542969 235.347656 L 203.570313 235.347656 L 203.570313 247.503906 C 203.570313 248.878906 203.8125 249.773438 205.152344 249.773438 L 205.597656 249.773438 L 205.597656 250.21875 L 203.570313 250.21875 C 202.78125 250.21875 202.300781 250.117188 201.992188 249.703125 C 201.683594 249.289063 201.542969 248.671875 201.542969 247.503906 Z M 201.542969 235.347656 "/>
<path style=" stroke:none;fill-rule:nonzero;fill:rgb(76.863098%,62.745667%,31.37207%);fill-opacity:1;" d="M 213.261719 243.351563 C 213.875 243.351563 214.738281 243.109375 215.457031 242.5625 C 216.179688 242.007813 216.730469 241.082031 216.730469 239.746094 C 216.730469 238.40625 216.179688 237.476563 215.457031 236.925781 C 214.738281 236.375 213.875 236.136719 213.261719 236.136719 C 212.675781 236.136719 212.023438 236.242188 211.574219 236.375 L 211.574219 243.109375 C 212.023438 243.246094 212.675781 243.351563 213.261719 243.351563 M 211.574219 244.140625 L 211.574219 250.21875 L 209.546875 250.21875 L 209.546875 238.0625 C 209.546875 236.6875 209.308594 235.792969 207.96875 235.792969 L 207.488281 235.792969 L 207.488281 235.347656 L 213.363281 235.347656 C 214.324219 235.347656 215.734375 235.449219 216.902344 236.070313 C 218.070313 236.6875 218.992188 237.855469 218.992188 239.847656 C 218.992188 241.152344 218.582031 242.042969 217.996094 242.664063 C 217.378906 243.316406 216.625 243.695313 215.90625 243.867188 C 215.148438 244.070313 214.460938 244.140625 214.046875 244.140625 Z M 211.574219 244.140625 "/>
<path style=" stroke:none;fill-rule:nonzero;fill:rgb(76.863098%,62.745667%,31.37207%);fill-opacity:1;" d="M 229.917969 245.03125 L 227.207031 238.507813 L 224.390625 245.03125 Z M 235.65625 250.21875 C 235.414063 250.289063 235.105469 250.324219 234.765625 250.324219 C 234.246094 250.324219 233.5625 250.253906 232.839844 249.84375 C 232.117188 249.429688 231.398438 248.675781 230.949219 247.402344 L 230.367188 245.925781 L 224.046875 245.925781 L 222.261719 250.21875 L 221.230469 250.21875 L 227.550781 235.347656 L 228.234375 235.347656 L 233.183594 247.402344 C 233.5625 248.226563 233.835938 248.808594 234.214844 249.1875 C 234.59375 249.53125 235.035156 249.703125 235.65625 249.773438 Z M 235.65625 250.21875 "/>
<path style=" stroke:none;fill-rule:nonzero;fill:rgb(76.863098%,62.745667%,31.37207%);fill-opacity:1;" d="M 240.671875 249.328125 L 248.644531 249.328125 L 248.644531 250.21875 L 238.648438 250.21875 L 238.648438 238.058594 C 238.648438 236.683594 238.40625 235.792969 237.070313 235.792969 L 236.585938 235.792969 L 236.585938 235.347656 L 238.648438 235.347656 C 239.402344 235.347656 239.953125 235.449219 240.261719 235.828125 C 240.570313 236.238281 240.671875 236.960938 240.671875 238.058594 Z M 240.671875 249.328125 "/>
<path style=" stroke:none;fill-rule:nonzero;fill:rgb(76.863098%,62.745667%,31.37207%);fill-opacity:1;" d="M 251.976563 235.347656 L 254.003906 235.347656 L 254.003906 247.503906 C 254.003906 248.878906 254.246094 249.773438 255.582031 249.773438 L 256.03125 249.773438 L 256.03125 250.21875 L 254.003906 250.21875 C 253.210938 250.21875 252.734375 250.117188 252.421875 249.703125 C 252.117188 249.289063 251.976563 248.671875 251.976563 247.503906 Z M 251.976563 235.347656 "/>
<path style=" stroke:none;fill-rule:nonzero;fill:rgb(76.863098%,62.745667%,31.37207%);fill-opacity:1;" d="M 270.457031 235.347656 L 270.457031 236.242188 L 265.375 236.242188 L 265.375 250.21875 L 263.347656 250.21875 L 263.347656 236.242188 L 261.320313 236.242188 C 259.503906 236.242188 258.507813 237.03125 258.507813 238.851563 L 258.058594 238.851563 L 258.058594 237.167969 C 258.058594 236.6875 258.128906 236.242188 258.4375 235.898438 C 258.710938 235.585938 259.191406 235.347656 259.980469 235.347656 Z M 270.457031 235.347656 "/>
<path style=" stroke:none;fill-rule:nonzero;fill:rgb(76.863098%,62.745667%,31.37207%);fill-opacity:1;" d="M 280.972656 242.902344 L 285.679688 235.347656 L 286.710938 235.347656 L 281.421875 243.898438 L 281.421875 250.21875 L 279.394531 250.21875 L 279.394531 244.070313 L 275.582031 238.265625 C 275.132813 237.613281 274.722656 237.03125 274.207031 236.550781 C 273.695313 236.136719 273.109375 235.863281 272.320313 235.792969 L 272.320313 235.347656 L 274.34375 235.347656 C 275.167969 235.347656 275.824219 235.65625 276.371094 236.101563 C 276.886719 236.585938 277.332031 237.203125 277.710938 237.820313 Z M 280.972656 242.902344 "/>
</g>
</svg>
