<?xml version="1.0" encoding="utf-8"?>
<!-- Generator: Adobe Illustrator 23.0.1, SVG Export Plug-In . SVG Version: 6.00 Build 0)  -->
<svg version="1.1" id="Layer_1" xmlns="http://www.w3.org/2000/svg" xmlns:xlink="http://www.w3.org/1999/xlink" x="0px" y="0px"
	 viewBox="0 0 1000 1000" style="enable-background:new 0 0 1000 1000;" xml:space="preserve">
<style type="text/css">
	.st0{fill:none;}
	.st1{fill:#402F82;}
	.st2{fill:url(#SVGID_1_);}
	.st3{fill:url(#SVGID_2_);}
	.st4{fill:#FFFFFF;}
	.st5{fill:#06A9B6;}
</style>
<path class="st0" d="M316.7,478.9c12.6,0,18.8-7.3,18.8-22.4c0-17.2-9.1-23.3-17.5-23.3c-11.3,0-16.9,3.6-17.1,11v23.4
	c0,2.7-0.3,5.4-0.9,8l0.3,0.1C305.4,477.9,311,479,316.7,478.9z"/>
<path class="st0" d="M132.9,472.5c5,0,10-1,14.6-3v-27.6c0-7.2-5.7-10.9-16.8-10.9c-9.2,0-18.7,2.7-18.7,22.5
	C112,461.7,114.1,472.5,132.9,472.5z"/>
<path class="st0" d="M133.7,607.5c14.1,0,19.8-6.6,19.8-22.8s-5.7-22.8-19.8-22.8c-13.8,0-19.7,6.8-19.7,22.8
	S119.9,607.5,133.7,607.5z"/>
<path class="st1" d="M213.2,550.1h-25.4v11.7h25.7c12.6,0,18.9,8.2,18.9,24.3v21.4h-54v11.7h199.7v-34.4c0-21.7-11.6-34.7-31-34.7
	h-33.7v11.7h34c12.3,0,18.7,7.8,19,23.3v22.4H244.2v-22.7C244.2,563.1,232.6,550.1,213.2,550.1z"/>
<rect x="137.3" y="523.1" class="st1" width="12.8" height="12.7"/>
<rect x="338.1" y="631.4" class="st1" width="12.8" height="12.7"/>
<rect x="117.4" y="523.1" class="st1" width="12.8" height="12.7"/>
<path class="st1" d="M102.2,584.7c0,28.6,17.1,34.6,31.5,34.6s31.6-6,31.6-34.6s-17.2-34.6-31.6-34.6S102.2,556.1,102.2,584.7z
	 M133.7,561.8c14.1,0,19.8,6.6,19.8,22.8s-5.7,22.8-19.8,22.8c-13.8,0-19.7-6.8-19.7-22.8S119.9,561.8,133.7,561.8L133.7,561.8z"/>
<path class="st1" d="M376.3,356.8c2.3,0,4.6,0.4,6.8,1.1l2.1,0.8v-6.9l-1-0.3c-2.6-0.9-5.3-1.4-8-1.4c-7.9,0-12.4,4.4-12.4,12v7.5
	c0,1.3-0.8,1.3-1.1,1.3h-5.6v6.7h28.1v-6.7h-14.8v-9.8C370.6,358.5,371.6,356.8,376.3,356.8z"/>
<rect x="181" y="394.5" class="st1" width="12.8" height="12.7"/>
<rect x="133.3" y="394.5" class="st1" width="12.8" height="12.7"/>
<rect x="113.4" y="394.5" class="st1" width="12.8" height="12.7"/>
<rect x="366.5" y="390.4" class="st1" width="11.7" height="100.3"/>
<path class="st1" d="M237.5,390.4v77.2c0,15.3,8.2,23.1,24.4,23.1h14.8c7.1,0,12.5-1.5,16.5-4.5l6.5,2c5.5,1.7,11.2,2.5,17,2.6
	c14.1,0,30.5-8.9,30.5-34.1c0-25.8-15.1-35-29.3-35c-27.5,0-28.9,18.6-28.9,22.3v22.6c0,8.1-2,12.3-13.2,12.5h-13.9
	c-10.9-0.2-12.7-4.1-12.7-12.5v-76L237.5,390.4z M300.8,467.6v-23.4c0.2-7.4,5.8-11,17.1-11c8.5,0,17.5,6.1,17.5,23.3
	c0,15.1-6.2,22.4-18.8,22.4c-5.7,0-11.3-1.1-16.5-3.3l-0.3-0.1C300.5,472.9,300.8,470.2,300.8,467.6z"/>
<path class="st1" d="M100.2,454.3c0,18.8,11.7,30,31.2,30c5.9,0,11.8-0.9,17.5-2.6l1.9-0.6c3.8,6.4,10.9,9.6,21.2,9.6h21.8
	c16.2,0,24.4-7.8,24.4-23.1v-46.1h-11.7v44.9c0,8.3-1.8,12.1-12,12.5h-22.7c-10.7-0.3-12.5-4.1-12.5-12.5v-24.9
	c0-5.2-2.1-22.3-28.6-22.3C123.6,419.2,100.2,421.8,100.2,454.3z M130.7,431c11.2,0,16.8,3.7,16.8,10.9v27.6c-4.6,2-9.6,3-14.6,3
	c-18.8,0-21-10.9-21-19C112,433.7,121.4,431,130.7,431z"/>
<linearGradient id="SVGID_1_" gradientUnits="userSpaceOnUse" x1="281.9348" y1="134.1003" x2="283.3748" y2="134.1003" gradientTransform="matrix(0 253.66 -253.66 0 34685.9492 -71232.0938)">
	<stop  offset="0" style="stop-color:#06A9B6"/>
	<stop  offset="0.2" style="stop-color:#06A9B6"/>
	<stop  offset="0.37" style="stop-color:#1D78A1"/>
	<stop  offset="0.54" style="stop-color:#305090"/>
	<stop  offset="0.67" style="stop-color:#3C3886"/>
	<stop  offset="0.75" style="stop-color:#402F82"/>
	<stop  offset="1" style="stop-color:#402F82"/>
</linearGradient>
<path class="st2" d="M500.8,650.2h338.4c33.7,0,61-27.4,61-61.1V483c0-81.5-57.2-119.3-63.7-123.3l-6.9-4.2
	c-10.4-6.7-23.8-6.8-34.3-0.2l-7.3,4.4c-3.1,1.9-17.9,11.6-32.4,30.2c-10.9-62.6-55.8-91.9-61.6-95.4l-7.9-4.8
	c-4.9-2.8-10.4-4.2-16-4.2l0,0c-6,0-12,1.6-17.1,4.8l-7,4.2c-5.7,3.5-50.6,32.8-61.5,95.3c-14.6-18.6-29.6-28.3-32.7-30.2l-6.9-4.2
	c-10.4-6.6-23.7-6.6-34.1,0l-7.1,4.3c-6.5,4-63.8,41.7-63.8,123.4v106C439.9,622.7,467.2,650.1,500.8,650.2z M696.3,581.2V417.9
	c0-2-0.1-4.1-0.2-6.3v-0.2c0-0.1,0-0.3,0-0.4c-0.1-1.8-0.2-3.6-0.5-5.4c-2.2-19.7-11.3-38.1-25.5-51.9
	c-14.3,13.8-23.3,32.1-25.5,51.9c-0.2,1.8-0.4,3.6-0.5,5.4c0,0.2,0,0.4,0,0.6c-0.1,1.8-0.2,3.8-0.2,6.3v35.5
	c0,16.5-13.2,30-29.7,30.3c-0.6,0-1.1-0.4-1.2-1c0,0,0,0,0-0.1v-64.8c0-66.5,47.1-96,49.1-97.1l7.5-4.5c0.3-0.2,0.8-0.2,1.1-0.1
	l7.4,4.5c2,1.2,49.1,30.5,49.1,97.1l0,162.2c0,4.5,3.6,8.1,8.1,8.2h95.1c4.5,0,8.1-3.7,8.1-8.2v-97.1c0-2.1-0.1-4.2-0.2-6.3
	c0-0.1,0-0.3,0-0.4v-0.2c-0.1-2-0.3-3.8-0.5-5.4c-3.3-27.2-17.3-44.1-25.6-51.9c-8.1,7.6-22.2,24.6-25.5,51.9
	c-0.2,1.6-0.3,3.4-0.5,5.4v0.2c0,0.1,0,0.3,0,0.4c-0.1,2-0.2,4.1-0.2,6.3v64.8c0,0.6-0.5,1.1-1.1,1.1c0,0,0,0,0,0
	c-16.5-0.3-29.7-13.8-29.7-30.3l-0.1-35.6c0-64.9,44.2-94,49.2-97.1l7.4-4.5c0.2-0.1,0.4-0.2,0.6-0.2c0.3,0,0.5,0.1,0.7,0.2l7.3,4.4
	c2,1.2,49.1,30.8,49.1,97.1v106c0,16.7-13.5,30.2-30.2,30.3H614.1c-0.6,0-1.1-0.5-1.1-1.1c0,0,0,0,0,0c0.2-16.5,13.6-29.8,30.1-29.9
	h55.7C696.6,586.7,696.4,584.5,696.3,581.2L696.3,581.2z M470.8,483.1c0-66.2,47.1-95.9,49.1-97.1l7.4-4.5c0.2-0.1,0.4-0.2,0.6-0.2
	c0.2,0,0.4,0.1,0.6,0.2l7.3,4.4c2,1.2,49.1,30.4,49.1,97.1v135.2c0,0.6-0.5,1.1-1.1,1.1c0,0,0,0,0,0h-83
	c-16.7-0.1-30.1-13.6-30.1-30.3L470.8,483.1z"/>
<linearGradient id="SVGID_2_" gradientUnits="userSpaceOnUse" x1="281.9348" y1="134.661" x2="283.3748" y2="134.661" gradientTransform="matrix(0 253.66 -253.66 0 34685.9492 -71232.0938)">
	<stop  offset="0" style="stop-color:#06A9B6"/>
	<stop  offset="0.2" style="stop-color:#06A9B6"/>
	<stop  offset="0.37" style="stop-color:#1D78A1"/>
	<stop  offset="0.54" style="stop-color:#305090"/>
	<stop  offset="0.67" style="stop-color:#3C3886"/>
	<stop  offset="0.75" style="stop-color:#402F82"/>
	<stop  offset="1" style="stop-color:#402F82"/>
</linearGradient>
<path class="st3" d="M509.6,588.3h44.4V483.1c0-2,0-4.1-0.2-6.3v-0.2c0-0.2,0-0.3,0-0.5c-0.2-2.1-0.3-3.8-0.5-5.3
	c-3.3-27.2-17.3-44.1-25.5-51.9c-8.1,7.6-22.2,24.6-25.5,51.9c-0.2,1.7-0.4,3.6-0.5,5.4v0.5c-0.2,2.3-0.2,4.4-0.2,6.4v97.1
	C501.6,584.7,505.2,588.3,509.6,588.3z"/>
<path class="st4" d="M613,618.2c0,0.6,0.5,1.1,1.1,1.1c0,0,0,0,0,0h225.1c16.7-0.1,30.2-13.6,30.2-30.3v-106
	c0-66.4-47.1-95.9-49.1-97.1l-7.3-4.4c-0.2-0.1-0.5-0.2-0.7-0.2c-0.2,0-0.4,0.1-0.6,0.2l-7.4,4.5c-5,3.1-49.2,32.3-49.2,97.1
	l0.1,35.6c0,16.5,13.2,30,29.7,30.3c0.6,0,1.1-0.5,1.1-1.1c0,0,0,0,0,0v-64.8c0-2.3,0.1-4.3,0.2-6.3c0-0.1,0-0.2,0-0.4v-0.2
	c0.1-2,0.3-3.8,0.5-5.4c3.3-27.3,17.4-44.2,25.5-51.9c8.2,7.8,22.2,24.7,25.6,51.9c0.2,1.6,0.3,3.4,0.5,5.4v0.2c0,0.1,0,0.3,0,0.4
	c0.1,2.1,0.2,4.2,0.2,6.3v97.1c0,4.5-3.6,8.1-8.1,8.2h-95c-4.5,0-8.1-3.7-8.1-8.2l0-162.2c0-66.7-47.1-96-49.1-97.1l-7.4-4.5
	c-0.4-0.2-0.8-0.2-1.1,0.1l-7.5,4.5c-2,1.2-49.1,30.6-49.1,97.1v64.8c0,0.6,0.5,1.1,1.1,1.1c16.5-0.3,29.7-13.8,29.7-30.3v-35.5
	c0-2.5,0.1-4.5,0.2-6.3c0-0.2,0-0.4,0-0.6c0.1-1.8,0.3-3.6,0.5-5.4c2.2-19.7,11.2-38.1,25.5-51.9c14.3,13.8,23.3,32.1,25.5,51.9
	c0.3,1.8,0.4,3.6,0.5,5.4c0,0.1,0,0.3,0,0.4v0.2c0.1,2.2,0.2,4.3,0.2,6.3v163.3c0,3.2,0.2,5.4,2.4,7.1h-55.5
	C626.6,588.5,613.2,601.8,613,618.2z"/>
<path class="st4" d="M500.8,619.3h83c0.6,0,1.1-0.5,1.1-1.1c0,0,0,0,0,0V483.1c0-66.7-47.1-95.9-49.1-97.1l-7.3-4.4
	c-0.2-0.1-0.4-0.2-0.6-0.2c-0.2,0-0.4,0-0.6,0.2l-7.4,4.5c-2,1.2-49.1,30.9-49.1,97.1v106C470.7,605.7,484.2,619.3,500.8,619.3z
	 M501.5,483.1c0-2.1,0-4.2,0.2-6.4v-0.5c0.1-1.8,0.3-3.6,0.5-5.4c3.3-27.3,17.4-44.2,25.5-51.9c8.2,7.8,22.2,24.7,25.5,51.9
	c0.2,1.5,0.3,3.2,0.5,5.3c0,0.2,0,0.3,0,0.5v0.2c0.1,2.2,0.2,4.3,0.2,6.3v105.3h-44.4c-4.5,0-8.1-3.7-8.1-8.2V483.1z"/>
<path class="st5" d="M485.2,302.8c0,9.6,7.8,17.4,17.4,17.4c9.6,0,17.4-7.8,17.4-17.4c0-9.6-7.8-17.4-17.4-17.4
	C493,285.4,485.2,293.2,485.2,302.8C485.2,302.8,485.2,302.8,485.2,302.8z"/>
<path class="st5" d="M535.7,302.8c0,9.6,7.8,17.4,17.4,17.3c9.6,0,17.4-7.8,17.3-17.4c0-9.6-7.8-17.3-17.4-17.3
	C543.5,285.4,535.7,293.1,535.7,302.8C535.7,302.7,535.7,302.8,535.7,302.8z"/>
<path class="st1" d="M794.9,698.3c0,9.6,7.7,17.4,17.3,17.4s17.4-7.7,17.4-17.3c0-9.6-7.7-17.4-17.3-17.4c0,0,0,0-0.1,0
	C802.7,681,794.9,688.8,794.9,698.3L794.9,698.3z"/>
</svg>
