<?xml version="1.0" encoding="utf-8"?>
<!-- Generator: Adobe Illustrator 26.0.1, SVG Export Plug-In . SVG Version: 6.00 Build 0)  -->
<svg version="1.1" id="Layer_1" xmlns="http://www.w3.org/2000/svg" xmlns:xlink="http://www.w3.org/1999/xlink" x="0px" y="0px"
	 viewBox="0 0 1000 1000" style="enable-background:new 0 0 1000 1000;" xml:space="preserve">
<style type="text/css">
	.st0{fill:#FFFFFF;}
	.st1{fill:#177A6A;}
	.st2{fill:none;}
	.st3{fill:#DD8726;}
	.st4{fill:#167B6A;}
</style>
<g>
	<g>
		<path class="st0" d="M728.6,387.3c0,126.2-102.6,228.8-228.8,228.8S271,513.5,271,387.3c0-126.1,102.6-228.8,228.8-228.8
			C625.9,158.6,728.6,261.2,728.6,387.3z"/>
	</g>
	<path class="st1" d="M606.3,466.2c-5.4,4.7-15.3,12.6-27.4,20c-19.2,11.6-40.9,17.4-63.9,19.6c-4.7,0.4-9.4,0.6-14,0.6h-0.7
		c-4.7,0-9.4-0.2-14-0.6c-23-2.1-44.7-7.9-63.9-19.6c-12.2-7.4-22-15.3-27.4-20h82.5c0,1.2-0.1,2.4,0,3.6c0.8,13.4,7.2,23,19.3,28.9
		c1.2,0.6,2.4,0.8,3.5,0.8h0.7c1.2,0,2.3-0.3,3.5-0.8c12.1-5.9,18.5-15.6,19.2-28.9c0.1-1.2,0.1-2.4,0-3.6H606.3z"/>
	<g>
		<path class="st2" d="M557.8,249.5c-4.7-20.3-15.4-36.5-32.1-48.9c-5.8-4.3-12.2-7.6-18.7-10.4c-1.5-0.7-6.2-2.3-6.3-2.3
			c-0.1,0-4.8,1.6-6.3,2.3c-6.6,2.9-13,6.2-18.7,10.4c-16.7,12.4-27.4,28.7-32.1,48.9c-1.6,7-1.9,14.2-1.9,21.4
			c0,53.2,0,134.3,0,192.8c4.2,0,8.7,0,13.3,0c0-38.6,0-95.3,0-126.8c0-3.5,0.2-6.9,0.6-10.4c0.8-7.8,3.2-15.1,7.1-21.9
			c7.4-13.1,18.3-22.5,32.5-27.8c1.6-0.6,5.4-1.8,5.5-1.8s3.9,1.2,5.5,1.8c14.2,5.3,25,14.7,32.5,27.8c3.9,6.8,6.3,14.2,7.1,21.9
			c0.4,3.5,0.6,6.9,0.6,10.4c0,30.3,0,87.2,0,126.8c4.6,0,9,0,13.3,0c0-59,0-141.1,0-192.8C559.7,263.7,559.4,256.6,557.8,249.5z"/>
		<path class="st2" d="M539.9,329.5c-1.3-13.9-6.9-25.8-17.1-35.5c-5-4.7-10.7-8.3-17-10.9c-0.9-0.4-5.1-1.9-5.1-1.9s-4,1.5-4.8,1.8
			c-6.4,2.6-12.2,6.2-17.3,11c-10.2,9.7-15.9,21.5-17.1,35.5c-0.3,2.8-0.2,5.6-0.2,8.4c0,31.2,0,87.4,0,125.8c24.6,0,53.3,0,78.8,0
			V337.9C540.1,335.1,540.1,332.3,539.9,329.5z"/>
		<path class="st3" d="M545.7,326.5c-0.8-7.8-3.2-15.1-7.1-21.9c-7.4-13.1-18.3-22.5-32.5-27.8c-1.6-0.6-5.4-1.8-5.5-1.8
			s-3.9,1.2-5.5,1.8c-14.2,5.3-25,14.7-32.5,27.8c-3.9,6.8-6.3,14.2-7.1,21.9c-0.4,3.5-0.6,6.9-0.6,10.4c0,31.5,0,88.2,0,126.8
			c2.1,0,4.1,0,6.3,0c0-38.3,0-94.6,0-125.8c0-2.8-0.1-5.6,0.2-8.4c1.3-13.9,6.9-25.8,17.1-35.5c5.1-4.8,10.9-8.4,17.3-11
			c0.8-0.3,4.8-1.8,4.8-1.8s4.2,1.6,5.1,1.9c6.3,2.5,12,6.1,17,10.9c10.2,9.7,15.8,21.5,17.1,35.5c0.3,2.8,0.2,5.6,0.2,8.4v125.8
			c2.1,0,4.2,0,6.3,0c0-39.6,0-96.6,0-126.8C546.3,333.4,546.1,330,545.7,326.5z"/>
		<path class="st3" d="M441.6,270.9c0-7.2,0.3-14.3,1.9-21.4c4.7-20.3,15.4-36.5,32.1-48.9c5.8-4.3,12.2-7.6,18.7-10.4
			c1.5-0.7,6.2-2.3,6.3-2.3c0.1,0,4.8,1.6,6.3,2.3c6.6,2.9,13,6.2,18.7,10.4c16.7,12.4,27.4,28.7,32.1,48.9c1.6,7,1.9,14.2,1.9,21.4
			c0,51.7,0,133.9,0,192.8c3.4,0,6.6,0,9.8,0c0-59.2,0-141.6,0-193.5c0-2.2,0.1-4.5,0-6.7c-0.4-15-4.7-28.9-12-41.9
			c-6-10.7-14.2-19.6-23.7-27.2c-7.3-5.8-15.3-10.1-23.9-13.4c-1.7-0.6-9-3.2-9.1-3.2c0,0-5.9,2-6.8,2.4c-9.5,3.3-18.3,8-26.2,14.2
			c-9.5,7.6-17.6,16.5-23.7,27.2c-7.3,13-11.6,26.9-12,41.9c-0.1,2.2-0.1,4.5-0.1,6.7v193.4c3.1,0,6.3,0,9.7,0
			C441.6,405.2,441.6,324,441.6,270.9z"/>
		<path class="st3" d="M392.3,463.7c0.7,0.6,1.6,1.5,2.7,2.4h7.1v-2.5C398.2,463.7,394.6,463.7,392.3,463.7z"/>
		<path class="st3" d="M418.5,463.6c-1.2,0-2.5,0-3.8,0C415.9,463.7,417.1,463.7,418.5,463.6L418.5,463.6z"/>
		<path class="st3" d="M402.1,463.6L402.1,463.6c4,0.1,8.4,0,12.6,0C407.8,463.7,403.3,463.6,402.1,463.6z"/>
		<path class="st3" d="M418.5,463.7v2.5h13.4v-2.5C426.9,463.7,422.4,463.7,418.5,463.7z"/>
		<path class="st3" d="M546.3,463.7c0,0.8,0,1.7,0,2.5h13.3c0-0.8,0-1.6,0-2.5C555.4,463.7,550.9,463.7,546.3,463.7z"/>
		<path class="st3" d="M441.6,463.7c0,0.8,0,1.7,0,2.5H455c0-0.8,0-1.7,0-2.5C450.3,463.7,445.8,463.7,441.6,463.7z"/>
		<path class="st3" d="M609,463.7c-1.5,0-17.3,0-39.6,0c0,0.8,0,1.6,0,2.5h36.9C607.4,465.2,608.3,464.4,609,463.7z"/>
		<path class="st3" d="M540.1,463.7v2.5h6.3c0-0.8,0-1.6,0-2.5C544.3,463.7,542.2,463.7,540.1,463.7z"/>
		<path class="st3" d="M455,463.7c0,0.8,0,1.7,0,2.5h6.3c0-0.8,0-1.7,0-2.5C459.1,463.7,457,463.7,455,463.7z"/>
		<path class="st3" d="M559.6,463.7c0,0.8,0,1.6,0,2.5h9.8c0-0.8,0-1.6,0-2.5C566.3,463.7,563,463.7,559.6,463.7z"/>
		<path class="st3" d="M431.9,463.7v2.5h9.7c0-0.8,0-1.7,0-2.5C438.2,463.7,434.9,463.7,431.9,463.7z"/>
		<path class="st3" d="M414.7,463.7c-4.2,0-8.6,0-12.6,0.1v2.5h16.4v-2.5C417.1,463.7,415.9,463.7,414.7,463.7z"/>
	</g>
	<path class="st1" d="M635.8,554.5c-19.4,15.7-41,27.6-63.9,35.5c-22.8,8-46.8,12-70.9,12h-0.7c-48.2-0.1-96-16.1-134.8-47.5
		c-84-68.1-97.3-175.7-62.7-252.8c-8.1,25.6-11.7,51.9-10.1,78.7c1.7,26.7,8.1,52.3,19.8,76.7c6.3-4.3,12.2-8.5,18.2-12.4
		c5.9-3.9,12-7.5,18-11.2c35.5,55.5,85.3,85.4,151.4,86.9h0.1l0,0c0.1,0,0.2,0,0.3,0c0.1,0,0.2,0,0.3,0l0,0h0.1
		c66.1-1.5,115.9-31.4,151.4-86.9c6,3.7,12.1,7.3,18,11.2c6,3.9,11.8,8.1,18.1,12.4c11.7-24.4,18.2-49.9,19.9-76.7
		c1.7-26.9-1.9-53.1-10.1-78.7C733,378.8,719.8,486.5,635.8,554.5z"/>
	<path class="st3" d="M509.1,446.4c0,0,2.8-1.2,7.8,3c0,0,0.2-4.5-6.3-8.3c0,0,1.7-1.1,4.4-0.7c0,0-1.6-4.8-8.6-3.1
		c0,0,0.9-1.5,4.4-1.7c0,0-3.2-3-8.8,0.5c0,0-0.3-1.7-1-3.2l0,0l0,0l0,0l0,0c-0.7,1.5-1,3.2-1,3.2c-5.6-3.5-8.8-0.5-8.8-0.5
		c3.5,0.2,4.4,1.7,4.4,1.7c-7-1.7-8.6,3.1-8.6,3.1c2.6-0.4,4.4,0.7,4.4,0.7c-6.5,3.8-6.3,8.3-6.3,8.3c5-4.2,7.8-3,7.8-3
		c-3.9,2.6-2.3,8.6-2.3,8.6c3.3-5.5,9.1-5.9,9.1-5.9v17.2l1.4,1l0,0l0,0l0,0l0,0l1.4-1v-17.2c0,0,5.8,0.4,9.1,5.9
		C511.5,455,513,449.1,509.1,446.4z"/>
	<g>
		<g>
			<path class="st3" d="M418.5,190.4c-28,13.1-51.4,32.1-70.2,56.9c-23.7,31.4-36.6,66.8-38.4,106.1c-1.2,27,2.9,53.2,13.1,78.7
				c0.3-0.2,18.3-11,18.8-11.4c-19.3-43.2-22.5-87.4-7-132.2c2.7-8,6-15.5,9.6-22.7c7.1-12.9,15.7-25,25.8-36
				c29.4-30,65.9-49.7,109-56.8v-0.4C448.8,175,418.5,190.4,418.5,190.4z"/>
		</g>
	</g>
	<path class="st3" d="M582.9,190.4c28,13.1,51.4,32.1,70.2,56.9c23.7,31.4,36.6,66.8,38.4,106.1c1.2,27-2.9,53.2-13.1,78.7
		c-0.3-0.2-18.3-11-18.8-11.4c19.3-43.2,22.5-87.4,7-132.2c-2.7-8-6-15.5-9.6-22.7c-7.1-12.9-15.7-25-25.8-36
		c-29.4-30-65.9-49.7-109-56.8v-0.4C552.7,175,582.9,190.4,582.9,190.4z"/>
	<path class="st3" d="M461.2,463.7c0,0.8,0,1.7,0,2.5h16.2c0-0.2,0-1.1,0-2.5C471.9,463.7,466.5,463.7,461.2,463.7z"/>
	<path class="st3" d="M540.1,466.2v-2.5c-5.3,0-10.8,0-16.3,0c0,1.4,0,2.3,0,2.5H540.1z"/>
	<path class="st1" d="M500.6,356.8c0,0,4.5,1.9,5.4,2.3c10.6,5.3,17.7,16.5,17.8,28.8c0.1,23.4,0,78.4,0,78.4c0,1.2,0.1,2.4,0,3.6
		c-0.8,13.4-7.2,23.1-19.3,29c-1.2,0.6-2.4,0.8-3.5,0.8h-0.7c-1.2,0-2.3-0.3-3.5-0.8c-12.1-5.9-18.5-15.6-19.3-29
		c-0.1-1.2,0-2.4,0-3.6c0,0-0.1-55,0-78.4c0-12.5,7.4-24,18.4-29.1C496.5,358.4,500.6,356.8,500.6,356.8 M500.6,352.2l-1.6,0.7
		c-1,0.4-4.3,1.8-4.9,2.1c-12.6,5.9-20.8,18.8-20.9,32.9c-0.1,23.1,0,77.9,0,78.5c0,1.2-0.1,2.4,0,3.8c0.9,15,8.2,26,21.6,32.5
		c1.8,0.8,3.6,1.2,5.4,1.2h0.7c1.8,0,3.6-0.4,5.3-1.2c13.5-6.6,20.8-17.6,21.7-32.5c0.1-1.3,0.1-2.6,0-3.9c0-0.5,0.1-55.2,0-78.4
		c-0.1-13.7-7.9-26.5-20.1-32.5c-0.9-0.4-4.5-2-5.6-2.4L500.6,352.2L500.6,352.2z"/>
	<path class="st3" d="M504,471.6c1.3-0.8,13.4-8.2,22.5-7.6c0,0-7-5.7-20.4,2.8L501,470l-5.1-3.2c-13.4-8.5-20.4-2.8-20.4-2.8
		c9.1-0.6,21.2,6.8,22.5,7.6l0,0c0.1,0,0.1,0.1,0.1,0.1l-0.1,0.1l0,0l-6.7,4c0,0-0.6-0.5-1.2-1.5c-1.5-2.1-3.8-1.3-3.5,0
		c0.2,0.8,0.7,0.6,1.7,0.8c0.9,0.2,1.9,2.1,1.9,2.1s-1.9,1.5-3.4,1.2c-2.9-1.1-3.4,2-0.7,2.4c1.7,0.3,5.4-2,5.4-2
		c1.7,2.5,4.3,2.7,5.3,2c0.6-0.8,0.1-1.8-1.2-1.4c-1.3,0.4-2.1-1.2-2.1-1.2l7.6-4.9l7.6,4.9c0,0-0.9,1.6-2.1,1.2
		c-1.3-0.4-1.8,0.6-1.2,1.4c1,0.7,3.6,0.5,5.3-2c0,0,3.7,2.3,5.4,2c2.7-0.5,2.2-3.5-0.7-2.4c-1.5,0.2-3.4-1.2-3.4-1.2s1-1.8,1.9-2.1
		c0.9-0.2,1.5,0,1.7-0.8c0.3-1.3-2-2-3.5,0c-0.6,0.9-1.2,1.5-1.2,1.5l-6.7-4l0,0l-0.1-0.1C503.9,471.7,503.9,471.7,504,471.6
		L504,471.6z"/>
	<g>
		<g>
			<path class="st0" d="M383.4,499.9c-6.4,6-12.9,12-19.5,17.9c-4.2-4.1-7.4-6.9-11.2-11.3c-1.5-1.8-2.6-3.2-3.2-4.4
				c-0.7-1.2-1.1-2.2-1.2-2.9c-0.1-0.8,0-1.4,0.4-1.9s0.9-1,1.6-1.5c0.4-0.3,0.8-0.5,1.3-0.7c0.4-0.2,0.9-0.4,1.3-0.7
				c-0.6-1-1.2-2-1.8-3c-0.3,0.1-0.6,0.3-0.9,0.4c-0.3,0.2-0.7,0.3-1,0.5s-0.7,0.3-1,0.5s-0.6,0.3-0.8,0.5c-0.6,0.4-1.1,0.8-1.6,1.2
				c-0.5,0.4-0.9,0.9-1.2,1.4c-0.3,0.5-0.5,1.1-0.6,1.8c-0.1,0.7,0,1.5,0.2,2.4s0.7,1.9,1.3,3c0.6,1.1,1.5,2.4,2.6,3.7
				c5.1,6.3,9.9,10.7,15.8,16.2c7.5-6.8,14.8-13.8,22-20.8C385,501.4,384.2,500.7,383.4,499.9z"/>
			<path class="st0" d="M365.4,505c-0.2-0.2-0.3-0.4-0.5-0.5c-0.4-0.4-0.7-0.9-0.9-1.3c-0.2-0.4-0.3-0.8-0.3-1.2
				c0-0.4,0.1-0.7,0.2-1c0.2-0.3,0.4-0.6,0.6-0.7c0.5-0.4,1-0.5,1.5-0.4s1,0.5,1.4,1c0.2,0.2,0.4,0.4,0.5,0.6s0.2,0.4,0.3,0.5
				c0.6-0.4,1.2-0.8,1.8-1.1c-0.2-0.3-0.4-0.6-0.6-0.8c-0.2-0.2-0.4-0.5-0.6-0.7c-0.5-0.5-1-0.9-1.4-1.2c-0.5-0.3-1-0.4-1.4-0.5
				c-0.5-0.1-0.9,0-1.4,0.1c-0.4,0.1-0.8,0.3-1.2,0.6c-0.3,0.3-0.6,0.5-0.8,0.8c-0.2,0.3-0.4,0.6-0.5,0.9s-0.2,0.6-0.2,0.8
				c0,0.2,0,0.5,0,0.6c-0.6-0.7-1.2-1.4-1.8-2.1c-0.6,0.4-1.1,0.8-1.7,1.3c1.6,1.9,3.3,3.8,5,5.7C364.3,505.9,364.9,505.4,365.4,505
				z"/>
			<path class="st0" d="M412.2,557.3c-0.2-0.2-0.5-0.4-0.8-0.5s-0.6-0.2-1-0.2c-0.3,0-0.6,0-0.9,0.1s-0.6,0.2-0.8,0.4
				c-0.3,0.2-0.4,0.4-0.6,0.7c-0.3,0.6-0.3,1.1-0.1,1.7c0.2,0.6,0.7,1,1.3,1.3c0.3,0.1,0.6,0.2,1,0.2c0.3,0,0.7,0,1-0.1
				s0.6-0.2,0.8-0.4c0.2-0.2,0.4-0.4,0.6-0.7c0.1-0.3,0.2-0.6,0.2-0.8c0-0.3-0.1-0.6-0.2-0.8C412.6,557.8,412.4,557.6,412.2,557.3z"
				/>
			<path class="st0" d="M436.4,547.6c-1.5,3.8-3.1,7.6-4.7,11.4c-2.3-0.8-8.7-3.9-10.9-4.7l0,0l0,0c-0.1,0-0.1,0-0.2-0.1
				c-1.2-0.5-2.1-0.9-2.9-1.5c-0.7-0.5-1.3-1.1-1.7-1.8c1.7-3.3,3.3-6.6,4.9-9.9c-1.1-0.5-2.3-1-3.4-1.5c-1.5,3-3.1,5.9-4.6,8.8
				c-0.4,0.7-0.8,1.2-1.2,1.4c-0.4,0.2-0.9,0.3-1.3,0.1s-6.2-3.1-11.8-6.7c-4.8-3-9.6-6.7-9.8-6.8c-1.3-0.9-2.6-1.8-3.8-2.7
				c0.8-0.9,1.5-1.8,2.3-2.8s1.5-2,1.9-2.8c0.4-0.9,0.7-1.7,0.9-2.5c0.1-0.8,0.2-1.5,0-2.1c-0.1-0.7-0.3-1.2-0.6-1.8
				c-0.3-0.5-0.6-1-1-1.5c-0.4-0.4-0.8-0.8-1.2-1.1c-1-0.8-2.1-1.4-3.2-1.7s-2.3-0.5-3.4-0.4s-2.2,0.4-3.3,0.9c-1.1,0.5-2,1.2-2.9,2
				c-0.7,0.7-1.3,1.5-1.7,2.4c-0.5,0.9-0.7,1.9-0.6,2.9c0,1,0.3,2.1,1,3.3c0.6,1.1,1.6,2.3,3.1,3.4c1,0.7,1.9,1.5,2.9,2.2
				c-1.4,0.9-3.2,1.1-5.2,0.6c-2.1-0.5-4.4-1.6-6.9-3.5c-0.8,1-1.5,1.9-2.3,2.9c1.5,1.1,3.1,2,4.7,2.7s3.1,1.2,4.6,1.5s3,0.2,4.4,0
				c1.4-0.3,2.8-0.9,4.1-1.8c1.4,1,2.8,1.9,4.2,2.9l0,0l0,0l0,0l0,0c1.8,1.2,12.6,8.3,14,9.2c1.7,1.1,8.3,4.7,9,5
				c0.9,0.4,1.7,0.5,2.4,0.5c0.8-0.1,1.4-0.3,2-0.7c0.4,0.8,1,1.6,1.8,2.3s1.9,1.4,3.4,1.9c0.1,0,0.1,0.1,0.2,0.1l0,0l0,0
				c3.6,1.4,11.3,4.9,14.9,6.1c1.9-5,3.9-10,5.8-15C438.8,548.4,437.6,548,436.4,547.6z M381.8,531.5c-1-0.8-2.1-1.5-3.1-2.3
				c-0.8-0.6-1.4-1.3-1.8-1.9c-0.4-0.6-0.6-1.3-0.7-1.9c-0.1-0.6,0-1.2,0.3-1.7c0.2-0.5,0.6-1,1-1.5c0.5-0.5,1.1-0.9,1.7-1.2
				s1.2-0.5,1.8-0.5c0.6-0.1,1.2,0,1.8,0.2c0.6,0.2,1.1,0.4,1.6,0.8c0.4,0.3,0.8,0.8,1.1,1.2c0.3,0.5,0.5,1,0.5,1.7
				s-0.2,1.4-0.6,2.3c-0.4,0.9-1.1,1.9-2.1,3C382.9,530.3,382.4,530.9,381.8,531.5z"/>
			<path class="st0" d="M437.9,537.7c-0.2-0.2-0.4-0.3-0.7-0.4c-0.3-0.1-0.5-0.1-0.8-0.1s-0.6,0.1-0.8,0.2c-0.2,0.1-0.5,0.3-0.7,0.5
				s-0.4,0.5-0.5,0.7c-0.2,0.6-0.3,1.1,0,1.6c0.2,0.5,0.6,0.9,1.2,1.1c0.3,0.1,0.6,0.1,0.8,0.1c0.3,0,0.6-0.1,0.8-0.2
				c0.3-0.1,0.5-0.3,0.7-0.5s0.4-0.5,0.5-0.7c0.1-0.3,0.2-0.6,0.2-0.9c0-0.3-0.1-0.6-0.2-0.8C438.3,538.1,438.1,537.9,437.9,537.7z"
				/>
			<path class="st0" d="M443.2,539.4c-0.2-0.2-0.4-0.3-0.7-0.4c-0.3-0.1-0.5-0.1-0.8-0.1s-0.5,0.1-0.8,0.2c-0.2,0.1-0.5,0.3-0.7,0.5
				s-0.4,0.5-0.5,0.8c-0.2,0.6-0.2,1.1,0,1.7c0.2,0.5,0.6,0.9,1.2,1.1c0.3,0.1,0.6,0.1,0.8,0.1c0.3,0,0.6-0.1,0.8-0.2
				c0.2-0.1,0.5-0.3,0.7-0.5s0.3-0.5,0.4-0.8s0.1-0.6,0.1-0.9c0-0.3-0.1-0.6-0.2-0.8C443.5,539.8,443.4,539.6,443.2,539.4z"/>
			<path class="st0" d="M461,547.7c0.3,0.1,0.6,0.1,0.8,0c0.3-0.1,0.5-0.2,0.8-0.3c0.2-0.2,0.4-0.4,0.6-0.6c0.2-0.2,0.3-0.5,0.3-0.8
				c0.1-0.3,0.1-0.6,0-0.9c-0.1-0.3-0.2-0.5-0.3-0.8c-0.1-0.2-0.3-0.4-0.6-0.6c-0.2-0.2-0.5-0.3-0.8-0.3c-0.3-0.1-0.6,0-0.8,0
				c-0.3,0.1-0.5,0.2-0.7,0.3c-0.2,0.2-0.4,0.4-0.6,0.6c-0.2,0.2-0.3,0.5-0.4,0.8c-0.1,0.6-0.1,1.1,0.2,1.6
				C460,547.3,460.4,547.6,461,547.7z"/>
			<path class="st0" d="M466.6,548.7c0.3,0,0.6,0,0.8,0c0.3-0.1,0.5-0.2,0.8-0.4c0.2-0.2,0.4-0.4,0.6-0.6c0.2-0.2,0.3-0.5,0.3-0.8
				c0.1-0.3,0-0.6,0-0.9c-0.1-0.3-0.2-0.5-0.3-0.8c-0.2-0.2-0.3-0.4-0.6-0.6c-0.2-0.2-0.5-0.3-0.8-0.3s-0.6,0-0.8,0
				c-0.3,0.1-0.5,0.2-0.7,0.4s-0.4,0.4-0.6,0.6c-0.2,0.2-0.3,0.5-0.3,0.8c-0.1,0.6,0,1.1,0.3,1.6C465.5,548.3,466,548.6,466.6,548.7
				z"/>
			<path class="st0" d="M483.8,552.4c0.3,0,0.6,0,0.8-0.1c0.3-0.1,0.5-0.2,0.7-0.4s0.4-0.4,0.5-0.7s0.2-0.5,0.2-0.8s0-0.6-0.1-0.9
				c-0.1-0.3-0.2-0.5-0.4-0.7c-0.2-0.2-0.4-0.4-0.6-0.5s-0.5-0.2-0.8-0.2s-0.6,0-0.8,0.1c-0.3,0.1-0.5,0.2-0.7,0.4s-0.4,0.4-0.5,0.7
				s-0.2,0.5-0.3,0.8c-0.1,0.6,0.1,1.1,0.4,1.6C482.7,552.2,483.2,552.4,483.8,552.4z"/>
			<path class="st0" d="M490.1,553.2c0.3,0,0.6,0,0.8-0.1c0.3-0.1,0.5-0.2,0.7-0.4s0.4-0.4,0.5-0.7s0.2-0.5,0.2-0.8s0-0.6-0.1-0.9
				c-0.1-0.3-0.2-0.5-0.4-0.7c-0.2-0.2-0.4-0.4-0.6-0.5c-0.3-0.1-0.5-0.2-0.8-0.2s-0.6,0-0.8,0.1c-0.3,0.1-0.5,0.2-0.7,0.4
				s-0.4,0.4-0.5,0.7s-0.2,0.5-0.2,0.8c0,0.6,0.1,1.1,0.5,1.6C489,553,489.5,553.2,490.1,553.2z"/>
			<path class="st0" d="M535.8,548.8c0.5,0.3,1,0.4,1.6,0.3c0.3-0.1,0.5-0.2,0.8-0.3c0.2-0.2,0.4-0.4,0.6-0.6
				c0.1-0.2,0.2-0.5,0.3-0.8c0-0.3,0-0.6,0-0.9c-0.1-0.3-0.2-0.6-0.4-0.8s-0.4-0.4-0.6-0.6c-0.2-0.2-0.5-0.3-0.8-0.3
				c-0.3-0.1-0.6-0.1-0.8,0c-0.3,0.1-0.5,0.2-0.7,0.3c-0.2,0.2-0.4,0.4-0.5,0.6c-0.1,0.2-0.2,0.5-0.3,0.8c0,0.3,0,0.6,0,0.9
				C535,548,535.4,548.5,535.8,548.8z"/>
			<path class="st0" d="M566,554.8c-0.2-0.5-0.6-1.1-1-1.6c-0.4-0.6-0.9-1.1-1.4-1.6s-1.1-0.9-1.8-1.3c-0.7-0.4-1.4-0.7-2.1-0.9
				c-0.7-0.2-1.5-0.3-2.3-0.3s-1.6,0.1-2.5,0.4c-0.4,0.1-0.8,0.3-1.3,0.5c-0.4,0.2-0.9,0.6-1.3,1c-0.4,0.4-0.8,0.9-1.2,1.5
				s-0.7,1.3-1,2.2s-0.5,1.9-0.6,3s-0.2,2.5-0.1,4c0,0.9-0.2,1.6-0.8,2.2c-0.6,0.6-3.7,0.5-4.6,0.5c-0.9,0-1.8-0.1-2.6-0.4
				c-0.4-1.5-1.3-10.1-1.3-10.1l-3.6,0.7c0,0,0.9,9.5,0.9,9.7c0.1,0.5,0,0.8-0.1,1.1c-0.2,0.4-0.5,0.7-1,0.8
				c-1.5,0.3-5.3,1.2-6.8,1.5c-1.5,0.2,2.8-0.5,1.3-0.2c-0.2-1.2-0.4-2.3-0.6-3.5c-0.3-1.4-0.7-2.7-1.2-3.9c-0.6-1.2-1.3-2.2-2.1-3
				c-0.9-0.8-1.9-1.4-3.1-1.8c-1.2-0.4-2.6-0.5-4.1-0.3c-0.9,0.1-1.7,0.3-2.4,0.5c-0.8,0.3-1.5,0.6-2.2,1s-1.3,0.9-2,1.5
				c-0.6,0.5-1.2,1.1-1.7,1.7c-0.4-5.4-0.7-10.8-1-16.3c-1.1,0.1-2.3,0.1-3.4,0.1c0.3,7.1,0.6,14.3,0.9,21.4
				c-0.4,0.8-0.8,1.6-1.1,2.4c-0.3,0.8-0.6,1.5-0.7,2.1c-1.8,0-6.2,0-8,0c-1.9,0-3.8,0-5.7-0.1c0.1-0.3,0.3-0.6,0.5-1
				s0.4-0.8,0.6-1.3s0.3-1,0.4-1.6s0.2-1.1,0.2-1.7c0-1-0.1-1.9-0.4-2.8c-0.3-0.9-0.8-1.7-1.4-2.4s-1.4-1.2-2.3-1.7
				c-0.9-0.4-1.9-0.7-3.1-0.7c-1.4-0.1-2.6,0-3.7,0.4c-1.1,0.3-2.1,0.8-3,1.5s-1.6,1.5-2.1,2.4s-0.9,1.9-1,3c0,0.3,0,0.7,0,1.2
				c0,0.4,0.1,0.9,0.3,1.3c0.1,0.5,0.3,0.9,0.6,1.3c0.2,0.4,0.5,0.8,0.9,1.2v0.1c-2.1-0.2-6.7-0.5-8.8-0.8c-0.5-0.1-1-0.1-1.5-0.2
				c-0.6-0.1-1.1-0.2-1.5-0.3s-0.6-0.3-0.8-0.6c-0.2-0.2-0.3-0.6-0.3-0.9c0-0.4,0-0.8,0.1-1.4c0.7-4.2,1.5-8.4,2.2-12.6
				c-1.2-0.2-2.4-0.4-3.6-0.6c-0.1,0.7-0.3,1.4-0.4,2.1c-0.8,0.1-1.6,0.2-2.6,0.3c-0.9,0.1-1.9,0.2-2.9,0.4s-2,0.4-3,0.7
				s-1.9,0.7-2.8,1.1c-0.9,0.5-1.6,1-2.3,1.7c-0.6,0.7-1.1,1.5-1.4,2.5c-0.3,1.1-0.3,2-0.1,2.9c0.2,0.9,0.7,1.6,1.2,2.3
				c0.6,0.6,1.3,1.2,2.1,1.6c0.8,0.4,1.7,0.7,2.6,0.9c1,0.2,2,0.3,3.1,0.2c1-0.1,2.2-0.3,3.4-0.7c0,0.4,0.1,0.8,0.3,1.3
				c0.2,0.4,0.5,0.8,0.9,1.1s0.9,0.7,1.6,0.9c0.7,0.3,1.5,0.5,2.5,0.6c0.9,0.1,1.7,0.2,2.6,0.3l0,0l0,0l0,0l0,0
				c0.8,0.1,4.1,0.3,4.9,0.4c1.1,0.1,2.1,0.2,3.2,0.3s2.2,0.1,3.2,0.2c1.1,0,2.1,0,3.1,0s1.9-0.1,2.8-0.2c1.2,0.3,2.5,0.5,4,0.7
				s3.1,0.3,4.9,0.3c0.8,0,1.6,0,2.5,0c17.1,0,27.9-1.5,34.7-2.6c1.8-0.3,3.6-0.6,5.3-1c0.9-0.2,1.7-0.5,2.2-1s0.9-1,1.1-1.7
				c0.9,0.4,2.8,0.7,3.9,0.8c2,0.3,5.3-0.6,5.7-0.9c0.3-0.3,0.6-0.7,0.8-1.1c0.2-0.4,0.4-1,0.5-1.5c0.4,0.2,1,0.5,1.6,0.7
				s1.3,0.3,2.1,0.4c0.8,0.1,1.6,0.1,2.4,0c0.9-0.1,1.8-0.3,2.7-0.6c1-0.3,1.8-0.7,2.5-1.2s1.3-1,1.7-1.6s0.8-1.2,1-1.8
				s0.3-1.3,0.4-1.9c0-0.6,0-1.2-0.1-1.8C566.4,555.9,566.3,555.3,566,554.8z M461.9,564.1c-0.8,0.3-1.6,0.5-2.5,0.6s-1.9,0-2.9-0.2
				c-0.6-0.1-1.1-0.3-1.6-0.5s-0.9-0.5-1.3-0.8s-0.6-0.7-0.8-1.2c-0.2-0.5-0.2-1,0-1.6c0.2-0.7,0.6-1.3,1.2-1.8s1.4-0.9,2.3-1.2
				s2-0.5,3.2-0.6s2.5-0.2,4-0.2C462.9,559.2,462.4,561.7,461.9,564.1z M489.7,566c-0.1,0.5-0.3,1-0.5,1.4s-0.4,0.8-0.6,1.2
				c-0.2,0.3-0.4,0.6-0.6,0.9c-0.5,0-0.9,0-1.4-0.1c-0.9-0.1-1.7-0.2-2.5-0.5s-1.4-0.7-2-1.2c-0.5-0.5-1-1.1-1.2-1.8
				c-0.3-0.7-0.4-1.4-0.3-2.2c0.1-0.7,0.3-1.4,0.6-1.9c0.3-0.5,0.7-0.9,1.2-1.2s1-0.5,1.6-0.7c0.6-0.1,1.2-0.2,1.7-0.1
				c0.6,0,1.1,0.2,1.6,0.4s1,0.5,1.4,1c0.4,0.4,0.7,0.9,0.9,1.5c0.2,0.6,0.3,1.3,0.3,2C490,565,489.9,565.5,489.7,566z M509.9,569.5
				c0.2-0.7,0.4-1.5,0.7-2.3c0.3-0.8,0.7-1.6,1.1-2.4c0.4-0.8,0.9-1.5,1.5-2.2s1.2-1.3,1.8-1.9c0.7-0.6,1.4-1,2.1-1.4
				c0.8-0.4,1.6-0.6,2.4-0.7c0.8-0.1,1.5,0,2.3,0.1c0.7,0.1,1.4,0.5,2,0.9c0.6,0.5,1.1,1.1,1.6,2c0.4,0.8,0.8,1.9,1,3.2
				c0.2,1,0.3,2,0.5,3.1C521.3,568.8,515.6,569.2,509.9,569.5z M562.7,559.6c-0.4,0.4-0.8,0.8-1.4,1.1c-0.6,0.3-1.3,0.6-2.1,0.9
				c-0.6,0.2-1.2,0.3-1.8,0.4c-0.6,0.1-1.3,0.1-1.9,0.1c-0.6,0-1.1,0-1.6-0.1s-0.8-0.2-1-0.3c-0.2-0.9-0.2-1.9-0.2-2.8
				c0-0.9,0.2-1.8,0.4-2.6c0.3-0.8,0.6-1.5,1.1-2.1s1.1-1,1.9-1.3c0.8-0.3,1.6-0.3,2.3-0.1s1.4,0.5,2,0.9s1.1,0.9,1.6,1.4
				c0.4,0.5,0.8,1,1,1.5c0.3,0.7,0.4,1.3,0.4,1.8C563.2,558.7,563,559.2,562.7,559.6z"/>
			<path class="st0" d="M580.3,534.6c0.2-0.2,0.3-0.5,0.3-0.7c0.1-0.3,0.1-0.5,0-0.8c0-0.3-0.2-0.6-0.3-0.8
				c-0.2-0.3-0.4-0.5-0.6-0.7c-0.2-0.2-0.5-0.3-0.8-0.4c-0.3-0.1-0.5-0.1-0.8-0.1s-0.5,0.1-0.8,0.2c-0.2,0.1-0.5,0.3-0.6,0.5
				c-0.2,0.2-0.3,0.5-0.3,0.7c-0.1,0.3-0.1,0.5,0,0.8c0,0.3,0.1,0.6,0.3,0.8c0.3,0.5,0.8,0.9,1.3,1.1c0.6,0.2,1.1,0.1,1.6-0.1
				C579.9,534.9,580.1,534.8,580.3,534.6z"/>
			<path class="st0" d="M585,532c0.2-0.2,0.3-0.5,0.3-0.7c0.1-0.3,0.1-0.5,0-0.8c0-0.3-0.2-0.6-0.3-0.8c-0.2-0.3-0.4-0.5-0.6-0.7
				c-0.2-0.2-0.5-0.3-0.8-0.4c-0.3-0.1-0.5-0.1-0.8-0.1s-0.5,0.1-0.8,0.2c-0.2,0.1-0.5,0.3-0.6,0.5c-0.2,0.2-0.3,0.5-0.3,0.7
				c-0.1,0.3-0.1,0.5,0,0.8c0,0.3,0.1,0.6,0.3,0.8c0.3,0.5,0.8,0.9,1.3,1.1c0.6,0.2,1.1,0.1,1.6-0.1
				C584.7,532.4,584.9,532.2,585,532z"/>
			<path class="st0" d="M597.7,523.6c0.4,0.5,0.9,0.8,1.5,0.9c0.6,0.1,1.1,0,1.6-0.3c0.2-0.2,0.4-0.4,0.6-0.6
				c0.1-0.2,0.2-0.5,0.3-0.7c0-0.3,0-0.5-0.1-0.8s-0.2-0.5-0.4-0.8c-0.2-0.2-0.4-0.4-0.7-0.6c-0.3-0.2-0.5-0.3-0.8-0.3
				c-0.3-0.1-0.6-0.1-0.8,0c-0.3,0-0.5,0.2-0.8,0.3c-0.2,0.2-0.4,0.4-0.5,0.6c-0.1,0.2-0.2,0.5-0.2,0.7c0,0.3,0,0.5,0.1,0.8
				C597.4,523.1,597.5,523.4,597.7,523.6z"/>
			<path class="st0" d="M604.3,527.4c-1,0.7-2.8,2.3-3.8,3c2.5,3.3,6.5,9.7,6.5,9.7c-2,1.3-5.5,3.2-7.6,4.4l0,0
				c-0.4,0.3-0.8,0.5-1.3,0.8s-1,0.5-1.4,0.6s-0.7,0.1-1,0.1c-0.3-0.1-0.6-0.3-0.9-0.5c-0.3-0.3-0.6-0.6-0.9-1.1
				c-2.5-3.5-4.9-7.1-7.4-10.7c-1,0.6-2.1,1.2-3.1,1.8c0.4,0.6,0.8,1.2,1.2,1.9c-0.5,0.5-1.1,1.1-1.7,1.8c-0.6,0.6-1.3,1.3-1.9,2.1
				c-0.6,0.7-1.2,1.5-1.8,2.3c-0.5,0.8-1,1.7-1.3,2.5c-0.3,0.9-0.5,1.8-0.4,2.7c0,0.9,0.3,1.8,0.8,2.7c0.5,1,1.2,1.7,2,2.2
				s1.7,0.8,2.6,0.9c0.9,0.1,1.8,0.1,2.8-0.1c0.9-0.2,1.8-0.5,2.6-0.9c0.9-0.5,1.7-1,2.4-1.7s1.4-1.6,2-2.6c0.3,0.3,0.7,0.5,1.1,0.7
				c0.4,0.2,0.9,0.3,1.5,0.3s1.2-0.1,1.9-0.3s1.5-0.6,2.3-1.1c0.7-0.4,1.5-0.9,2.2-1.3l0,0c3.2-2,8-5.3,11-7.4
				C609.2,536,607.7,531.6,604.3,527.4z M589.3,548.6c-0.6,0.6-1.4,1.2-2.3,1.6c-0.5,0.3-1,0.5-1.5,0.6s-1.1,0.2-1.6,0.2
				s-1-0.2-1.5-0.4s-0.8-0.6-1.1-1.2c-0.4-0.6-0.5-1.3-0.4-2s0.4-1.5,0.9-2.2c0.5-0.8,1.1-1.6,1.9-2.4c0.8-0.8,1.7-1.7,2.8-2.6
				c1.4,2.1,2.8,4.3,4.3,6.4C590.4,547.3,590,547.9,589.3,548.6z"/>
			<path class="st0" d="M652.2,505.1c-0.2-0.7-0.4-1.3-0.7-1.8c-0.3-0.6-0.7-1.1-1.1-1.5c-0.4-0.5-0.8-0.8-1.3-1.2
				c-0.5-0.3-1.1-0.7-1.7-0.9c-0.6-0.3-1.3-0.5-2-0.7s-1.4-0.2-2.2-0.3c-0.8,0-1.5,0.1-2.3,0.2c-0.7,0.2-1.4,0.4-2.1,0.8
				c-0.7,0.4-1.3,0.9-1.9,1.6c-0.3,0.3-0.5,0.7-0.8,1.1s-0.5,0.9-0.6,1.5c-0.2,0.6-0.2,1.2-0.3,1.9c0,0.7,0.1,1.5,0.3,2.4
				s0.6,1.8,1.1,2.9s1.2,2.2,2,3.5c1.2,1.9-14,12.8-15.8,14.2c-0.4,0.3-0.7,0.6-1.1,0.9c-0.3,0.3-0.7,0.5-1,0.5
				c-0.3,0.1-0.6,0.1-0.9,0c-0.3-0.1-0.7-0.3-1.1-0.6c-0.4-0.3-0.8-0.8-1.4-1.3c-3.6-3.8-11.1-15.2-12.6-16.9
				c-0.9,0.7-1.8,1.4-2.7,2c1.6,1.9,7.8,12.1,13.2,18.4c0.6,0.7,1.2,1.2,1.9,1.6c0.7,0.4,1.4,0.7,2.1,0.8c0.7,0.1,1.5,0.1,2.3-0.1
				c0.8-0.2,1.5-0.6,2.3-1.2c0.5-0.4,1.1-0.9,1.6-1.3c1.8-1.5,14.6-10.3,16-13.7c0.2-0.4,1.2-1.8,1-2.4c0.5,0,1.1-0.1,1.7-0.2
				c0.6-0.1,1.3-0.4,2-0.7s1.4-0.7,2.1-1.2c0.7-0.5,1.4-1.1,2-1.8c0.7-0.7,1.1-1.5,1.5-2.2c0.3-0.7,0.5-1.5,0.6-2.2
				C652.4,506.4,652.4,505.7,652.2,505.1z M648.8,506.3c-0.1,0.5-0.3,1.1-0.6,1.6c-0.3,0.6-0.8,1.2-1.3,1.8
				c-0.4,0.4-0.8,0.8-1.3,1.2c-0.5,0.4-1,0.7-1.5,1c-0.5,0.3-1,0.5-1.4,0.7c-0.4,0.2-0.8,0.2-1.1,0.2c-0.7-0.7-1.2-1.5-1.7-2.3
				s-0.8-1.7-1-2.5s-0.3-1.6-0.2-2.4s0.4-1.4,0.9-2s1.2-1,1.9-1.2s1.4-0.3,2.2-0.2c0.7,0.1,1.4,0.2,2.1,0.5c0.7,0.2,1.2,0.5,1.6,0.8
				c0.6,0.4,1,0.9,1.3,1.4C648.8,505.3,648.9,505.8,648.8,506.3z"/>
			<path class="st0" d="M630.9,477.8c0.3,0.2,0.6,0.4,0.9,0.5c0.3,0.1,0.6,0.2,0.8,0.2c0.3,0,0.5,0,0.7,0s0.4,0,0.5-0.1
				c-0.4,0.5-0.8,1.1-1.2,1.6c0.5,0.3,0.9,0.7,1.4,1c1.2-1.5,2.3-3,3.4-4.5c-0.5-0.3-1-0.7-1.4-1c-0.1,0.1-0.2,0.3-0.3,0.4
				c-0.3,0.4-0.6,0.7-0.9,0.8c-0.3,0.2-0.6,0.3-0.9,0.4c-0.3,0.1-0.6,0-0.9,0c-0.3-0.1-0.5-0.2-0.7-0.3c-0.5-0.3-0.7-0.7-0.7-1.1
				s0.2-0.8,0.5-1.2c0.1-0.2,0.3-0.3,0.4-0.5c0.1-0.1,0.2-0.2,0.3-0.3c-0.4-0.4-0.9-0.8-1.3-1.2c-0.2,0.2-0.4,0.4-0.5,0.5
				c-0.1,0.2-0.3,0.3-0.4,0.5c-0.3,0.4-0.5,0.8-0.6,1.2c-0.1,0.4-0.1,0.8-0.1,1.2c0.1,0.4,0.2,0.7,0.4,1
				C630.3,477.4,630.6,477.6,630.9,477.8z"/>
			<path class="st0" d="M638,480l-2,2.7c0,0,18.9,18.2,21.5,19.9c0.8-1.1,2.3-3.2,2.3-3.2L638,480z"/>
		</g>
	</g>
	<g>
		<g>
			<path class="st4" d="M179.5,704.2v-63.6h13.6v75h-60.2c-4.1,0-7.8-0.2-10.8-0.7c-3.1-0.5-5.7-1.2-7.9-2.1c-2.2-0.9-4-1.9-5.5-3.2
				c-1.4-1.2-2.6-2.6-3.4-4.1s-1.4-3.1-1.7-4.8c-0.3-1.7-0.5-3.5-0.5-5.3c0-0.7,0-1.5,0.1-2.5c0.1-0.9,0.2-1.9,0.3-3
				c0.1-1,0.3-2.1,0.4-3.1s0.3-2,0.5-2.9l12.1,1c-0.2,1.3-0.5,2.6-0.7,4c-0.2,1.3-0.3,2.6-0.3,4c0,2.1,0.3,3.8,0.8,5.2
				s1.6,2.6,3.1,3.5s3.7,1.6,6.4,2s6.3,0.6,10.7,0.6L179.5,704.2L179.5,704.2z M156.2,673.6c-0.7-0.2-1.5-0.3-2.3-0.4
				c-0.8-0.1-1.5-0.2-2.1-0.2c-1.2,0-2.2,0.3-2.8,0.8s-1,1.3-1,2.4c0,0.5,0.1,1,0.3,1.5s0.6,1,1.1,1.5c0.5,0.4,1.1,0.8,1.8,1.1
				s1.6,0.4,2.6,0.4h3.6v6.3h-20.5v-6.3h4.9c-0.6-0.7-1.1-1.6-1.4-2.7c-0.4-1.1-0.5-2.1-0.5-3.1c0-1.1,0.2-2.2,0.7-3.2
				c0.4-1,1.1-1.9,2-2.6c0.9-0.8,2.1-1.4,3.4-1.8c1.4-0.4,3.1-0.7,5-0.7c0.7,0,1.6,0,2.6,0.1s2.2,0.2,3.7,0.5L156.2,673.6z"/>
			<path class="st4" d="M231.5,715.6c-4.7,0-8.7-0.6-11.9-1.9c-3.2-1.3-5.9-2.9-7.9-4.9s-3.4-4.3-4.3-6.7c-0.9-2.5-1.3-4.9-1.3-7.3
				c0-3.2,0.6-6.2,1.7-9.1c1.2-2.9,2.8-5.4,5-7.6c2.1-2.2,4.7-3.9,7.8-5.2c3-1.3,6.4-1.9,10.2-1.9c1.5,0,3.1,0.1,4.8,0.4
				c1.7,0.3,3.3,0.8,4.9,1.5c1.6,0.7,3.1,1.7,4.5,2.9s2.7,2.8,3.8,4.6c1.1,1.9,2,4.1,2.6,6.7c0.6,2.6,1,5.6,1,9v8.1h9.5
				c1,0,1.7,0.1,2.3,0.2c0.6,0.1,1,0.4,1.2,0.7c0.3,0.3,0.4,0.7,0.5,1.2s0.1,1,0.1,1.7v3.7c0,0.9-0.1,1.6-0.2,2.1s-0.3,0.9-0.6,1.2
				c-0.3,0.3-0.7,0.5-1.3,0.5c-0.5,0.1-1.2,0.1-2,0.1h-10.3c-1.3,3.3-3.1,6.3-5.5,8.9c-2.4,2.6-5.3,4.9-8.6,6.8
				c-3.3,1.9-6.9,3.5-11,4.6c-4,1.2-8.3,2-12.7,2.5l-1.3-11.2c3.2-0.2,6.2-0.7,8.9-1.4s5.1-1.6,7.3-2.6c2.1-1,4-2.2,5.5-3.5
				s2.8-2.7,3.6-4.2h-6.3V715.6z M238.9,704.2v-5c0-3.6-0.3-6.5-0.9-8.7c-0.6-2.2-1.3-4-2.2-5.3s-2-2.1-3.2-2.6s-2.4-0.7-3.6-0.7
				c-1.3,0-2.6,0.3-3.8,0.8c-1.2,0.6-2.3,1.3-3.3,2.3c-0.9,1-1.7,2.2-2.3,3.6c-0.6,1.4-0.9,3-0.9,4.7c0,3.3,1,6,3.1,7.9
				c2,1.9,5.2,2.9,9.6,2.9L238.9,704.2L238.9,704.2z"/>
			<path class="st4" d="M287.3,698.4c0,0.6,0,1.2-0.1,1.9c-0.1,0.6-0.1,1.2-0.2,1.8c1.7,0.7,3.5,1.2,5.5,1.6c2,0.3,4,0.5,6.1,0.5
				h0.4c1,0,1.7,0.1,2.3,0.2c0.6,0.1,1,0.4,1.2,0.7c0.3,0.3,0.4,0.7,0.5,1.2s0.1,1,0.1,1.7v3.7c0,0.9-0.1,1.6-0.2,2.1
				s-0.3,0.9-0.6,1.2c-0.3,0.3-0.7,0.5-1.3,0.5c-0.5,0.1-1.2,0.1-2,0.1h-0.6c-3.5,0-6.4-0.4-8.9-1.2s-4.6-1.8-6.5-3.1
				c-1.2,1.3-2.7,2.4-4.6,3.1c-1.8,0.8-4,1.1-6.6,1.1h-10.5c-0.8,0-1.5,0-2-0.1s-0.9-0.3-1.3-0.5c-0.3-0.3-0.5-0.7-0.6-1.2
				s-0.2-1.2-0.2-2.1v-3.7c0-0.7,0-1.2,0.1-1.7s0.2-0.9,0.5-1.2s0.7-0.5,1.2-0.7c0.5-0.1,1.3-0.2,2.3-0.2h5.9c1.1,0,2.1-0.1,3-0.4
				c0.8-0.2,1.5-0.7,2-1.2c0.5-0.6,0.9-1.3,1.1-2.3s0.4-2.2,0.4-3.7v-23.8h13.6L287.3,698.4L287.3,698.4z M273.9,730.6
				c0-0.9,0.2-1.8,0.5-2.6s0.8-1.5,1.4-2.1s1.3-1.1,2.1-1.4c0.8-0.3,1.7-0.5,2.6-0.5s1.8,0.2,2.6,0.5c0.8,0.3,1.5,0.8,2.1,1.4
				c0.6,0.6,1.1,1.3,1.4,2.1s0.5,1.7,0.5,2.6c0,0.9-0.2,1.8-0.5,2.6s-0.8,1.5-1.4,2.1s-1.3,1.1-2.1,1.4c-0.8,0.3-1.7,0.5-2.6,0.5
				s-1.8-0.2-2.6-0.5c-0.8-0.3-1.5-0.8-2.1-1.4c-0.6-0.6-1.1-1.3-1.4-2.1C274.1,732.4,273.9,731.5,273.9,730.6z"/>
			<path class="st4" d="M298.7,715.6c-0.8,0-1.5,0-2-0.1s-0.9-0.3-1.3-0.5c-0.3-0.3-0.5-0.7-0.6-1.2s-0.2-1.2-0.2-2.1V708
				c0-0.7,0-1.2,0.1-1.7s0.2-0.9,0.5-1.2s0.7-0.5,1.2-0.7c0.5-0.1,1.3-0.2,2.3-0.2h13.4v-31.4h13.6v42.8L298.7,715.6L298.7,715.6z
				 M305.3,653.1c0-0.9,0.2-1.8,0.5-2.6s0.8-1.5,1.4-2.1s1.3-1.1,2.1-1.4c0.8-0.3,1.7-0.5,2.6-0.5s1.8,0.2,2.6,0.5
				c0.8,0.3,1.5,0.8,2.1,1.4c0.6,0.6,1.1,1.3,1.4,2.1s0.5,1.7,0.5,2.6c0,0.9-0.2,1.8-0.5,2.6s-0.8,1.5-1.4,2.1s-1.3,1.1-2.1,1.4
				c-0.8,0.3-1.7,0.5-2.6,0.5s-1.8-0.2-2.6-0.5c-0.8-0.3-1.5-0.8-2.1-1.4c-0.6-0.6-1.1-1.3-1.4-2.1
				C305.5,654.9,305.3,654.1,305.3,653.1z M321,653.1c0-0.9,0.2-1.8,0.5-2.6s0.8-1.5,1.4-2.1s1.3-1.1,2.1-1.4
				c0.8-0.3,1.7-0.5,2.6-0.5s1.8,0.2,2.6,0.5c0.8,0.3,1.5,0.8,2.1,1.4c0.6,0.6,1.1,1.3,1.4,2.1s0.5,1.7,0.5,2.6
				c0,0.9-0.2,1.8-0.5,2.6s-0.8,1.5-1.4,2.1s-1.3,1.1-2.1,1.4c-0.8,0.3-1.7,0.5-2.6,0.5s-1.8-0.2-2.6-0.5c-0.8-0.3-1.5-0.8-2.1-1.4
				c-0.6-0.6-1.1-1.3-1.4-2.1C321.2,654.9,321,654.1,321,653.1z"/>
			<path class="st4" d="M407.8,697.7c0,1.3,0.1,2.3,0.2,3.1s0.4,1.5,0.7,2c0.4,0.5,0.9,0.9,1.5,1.1c0.6,0.2,1.5,0.3,2.6,0.3h3.8
				c1,0,1.7,0.1,2.3,0.2c0.6,0.1,1,0.4,1.2,0.7c0.3,0.3,0.4,0.7,0.5,1.2s0.1,1,0.1,1.7v3.7c0,0.9-0.1,1.6-0.2,2.1s-0.3,0.9-0.6,1.2
				c-0.3,0.3-0.7,0.5-1.3,0.5c-0.5,0.1-1.2,0.1-2,0.1h-6.1c-2.4,0-4.4-0.2-6.1-0.5c-1.7-0.4-3.2-0.9-4.4-1.5c-1.2-0.6-2.2-1.3-3-2.1
				s-1.4-1.7-1.8-2.6c-2.3,1.2-4.5,2-6.6,2.5s-4.4,0.7-6.7,0.7c-2.3,0-4.7-0.3-7.1-1c-2.4-0.6-4.6-1.6-6.5-3c-2-1.4-3.5-3.1-4.8-5.2
				c-1.2-2.1-1.9-4.7-1.9-7.7c0-2.6,0.5-5,1.6-7.2c1-2.1,2.4-4.1,4.2-5.8c1.8-1.7,3.8-3.2,6-4.5s4.6-2.5,7-3.5s4.8-1.8,7.2-2.5
				c2.4-0.7,4.6-1.3,6.6-1.8V664h13.5L407.8,697.7L407.8,697.7z M394.4,680.4c-3,0.6-5.7,1.4-8.1,2.2c-2.4,0.9-4.5,1.8-6.2,2.9
				c-1.7,1.1-3,2.3-4,3.7c-0.9,1.4-1.4,2.9-1.4,4.6c0,1.4,0.3,2.5,0.8,3.4s1.2,1.7,2.1,2.3s1.8,1,2.9,1.2s2.2,0.4,3.2,0.4
				c2,0,3.9-0.3,5.7-0.8c1.8-0.6,3.5-1.3,4.9-2.2v-17.7H394.4z M378,650.4c0-0.9,0.2-1.8,0.5-2.6s0.8-1.5,1.4-2.1s1.3-1.1,2.1-1.4
				c0.8-0.3,1.7-0.5,2.6-0.5s1.8,0.2,2.6,0.5c0.8,0.3,1.5,0.8,2.1,1.4c0.6,0.6,1.1,1.3,1.4,2.1s0.5,1.7,0.5,2.6
				c0,0.9-0.2,1.8-0.5,2.6s-0.8,1.5-1.4,2.1s-1.3,1.1-2.1,1.4c-0.8,0.3-1.7,0.5-2.6,0.5s-1.8-0.2-2.6-0.5c-0.8-0.3-1.5-0.8-2.1-1.4
				c-0.6-0.6-1.1-1.3-1.4-2.1C378.1,652.2,378,651.4,378,650.4z M393.6,650.4c0-0.9,0.2-1.8,0.5-2.6s0.8-1.5,1.4-2.1
				s1.3-1.1,2.1-1.4c0.8-0.3,1.7-0.5,2.6-0.5s1.8,0.2,2.6,0.5c0.8,0.3,1.5,0.8,2.1,1.4c0.6,0.6,1.1,1.3,1.4,2.1s0.5,1.7,0.5,2.6
				c0,0.9-0.2,1.8-0.5,2.6s-0.8,1.5-1.4,2.1s-1.3,1.1-2.1,1.4c-0.8,0.3-1.7,0.5-2.6,0.5s-1.8-0.2-2.6-0.5c-0.8-0.3-1.5-0.8-2.1-1.4
				c-0.6-0.6-1.1-1.3-1.4-2.1C393.8,652.2,393.6,651.4,393.6,650.4z"/>
			<path class="st4" d="M473.1,715.6c-3.9,0-7.7-0.2-11.3-0.5c-3.6-0.3-6.8-0.7-9.5-1.2c-2,0.3-4.2,0.5-6.5,0.7s-4.8,0.4-7.3,0.5
				s-5,0.2-7.6,0.3c-2.5,0.1-5,0.1-7.4,0.1h-7.2c-0.8,0-1.5,0-2.1-0.1s-1-0.3-1.3-0.5c-0.3-0.3-0.6-0.7-0.7-1.2s-0.2-1.2-0.2-2.1
				v-3.7c0-0.7,0-1.2,0.1-1.7s0.3-0.9,0.5-1.2c0.3-0.3,0.7-0.5,1.3-0.7c0.6-0.1,1.4-0.2,2.4-0.2h13.1c-0.7-0.9-1.3-1.9-1.8-3
				s-1-2.1-1.3-3.2c-0.3-1-0.6-2-0.8-3c-0.2-1-0.3-1.8-0.3-2.5c0-2.9,0.6-5.7,1.7-8.3s2.8-4.9,5-6.9s4.8-3.6,7.8-4.8
				s6.5-1.8,10.3-1.8c3.4,0,6.4,0.5,9,1.6c2.6,1,4.8,2.5,6.6,4.3c1.8,1.8,3.1,3.9,4,6.3c0.9,2.4,1.4,4.9,1.4,7.6
				c0,1.1-0.1,2.3-0.3,3.6c-0.2,1.3-0.5,2.5-0.8,3.7s-0.7,2.4-1.1,3.5s-0.7,2.1-1.1,2.9h12.6c1,0,1.8,0.1,2.4,0.2
				c0.6,0.1,1,0.4,1.3,0.7s0.5,0.7,0.5,1.2c0.1,0.5,0.1,1,0.1,1.7v3.7c0,0.9-0.1,1.6-0.2,2.1s-0.4,0.9-0.7,1.2
				c-0.3,0.3-0.8,0.5-1.3,0.5c-0.6,0.1-1.3,0.1-2.1,0.1h-7.2V715.6z M433.2,653.1c0-0.9,0.2-1.8,0.5-2.6s0.8-1.5,1.4-2.1
				s1.3-1.1,2.1-1.4c0.8-0.3,1.7-0.5,2.6-0.5s1.8,0.2,2.6,0.5c0.8,0.3,1.5,0.8,2.1,1.4c0.6,0.6,1.1,1.3,1.4,2.1s0.5,1.7,0.5,2.6
				c0,0.9-0.2,1.8-0.5,2.6s-0.8,1.5-1.4,2.1s-1.3,1.1-2.1,1.4c-0.8,0.3-1.7,0.5-2.6,0.5s-1.8-0.2-2.6-0.5c-0.8-0.3-1.5-0.8-2.1-1.4
				c-0.6-0.6-1.1-1.3-1.4-2.1C433.4,654.9,433.2,654.1,433.2,653.1z M438.2,691.4c0,2,0.4,3.7,1.1,5.3s1.7,2.9,2.9,4
				c1.2,1.1,2.6,2,4.3,2.6c1.6,0.6,3.4,0.9,5.3,0.9h2c0.3-0.7,0.7-1.4,1.1-2.3c0.4-0.9,0.8-1.9,1.1-2.9c0.3-1,0.6-2.1,0.9-3.3
				c0.2-1.1,0.3-2.3,0.3-3.4c0-1.8-0.3-3.3-0.8-4.7s-1.2-2.5-2-3.4c-0.9-0.9-1.8-1.6-2.9-2.1s-2.2-0.7-3.4-0.7
				c-1.2,0-2.4,0.2-3.6,0.6c-1.2,0.4-2.3,1-3.2,1.9c-0.9,0.8-1.7,1.9-2.3,3.2C438.5,688.1,438.2,689.6,438.2,691.4z M448.9,653.1
				c0-0.9,0.2-1.8,0.5-2.6s0.8-1.5,1.4-2.1s1.3-1.1,2.1-1.4c0.8-0.3,1.7-0.5,2.6-0.5s1.8,0.2,2.6,0.5c0.8,0.3,1.5,0.8,2.1,1.4
				c0.6,0.6,1.1,1.3,1.4,2.1s0.5,1.7,0.5,2.6c0,0.9-0.2,1.8-0.5,2.6s-0.8,1.5-1.4,2.1s-1.3,1.1-2.1,1.4c-0.8,0.3-1.7,0.5-2.6,0.5
				s-1.8-0.2-2.6-0.5c-0.8-0.3-1.5-0.8-2.1-1.4c-0.6-0.6-1.1-1.3-1.4-2.1C449.1,654.9,448.9,654.1,448.9,653.1z"/>
			<path class="st4" d="M480.1,715.6c-0.8,0-1.5,0-2-0.1s-0.9-0.3-1.3-0.5c-0.3-0.3-0.5-0.7-0.6-1.2s-0.2-1.2-0.2-2.1V708
				c0-0.7,0-1.2,0.1-1.7s0.2-0.9,0.5-1.2s0.7-0.5,1.2-0.7c0.5-0.1,1.3-0.2,2.3-0.2h11.1c0.6-1.4,1.2-2.9,2-4.5
				c0.7-1.6,1.6-3.3,2.5-5v-54.1h13.6v37c3-2.6,6.3-4.7,9.9-6.3s7.5-2.4,11.8-2.4c4,0,7.5,0.7,10.4,2.1c2.9,1.4,5.4,3.3,7.3,5.7
				c1.9,2.4,3.4,5.3,4.3,8.6c0.9,3.3,1.4,6.9,1.4,10.7v8.1h8.9c1,0,1.7,0.1,2.3,0.2c0.6,0.1,1,0.4,1.2,0.7c0.3,0.3,0.4,0.7,0.5,1.2
				s0.1,1,0.1,1.7v3.7c0,0.9-0.1,1.6-0.2,2.1c-0.1,0.5-0.3,0.9-0.6,1.2s-0.7,0.5-1.3,0.5c-0.5,0.1-1.2,0.1-2,0.1h-83.2V715.6z
				 M541.1,697.2c0-3.2-0.3-6-1-8.1c-0.7-2.2-1.5-3.9-2.7-5.2c-1.1-1.3-2.4-2.2-4-2.8c-1.5-0.6-3.2-0.8-4.9-0.8
				c-2.3,0-4.7,0.6-7.1,1.9c-2.4,1.3-4.6,3-6.8,5.2c-2.1,2.2-4.1,4.7-5.9,7.7c-1.8,2.9-3.2,6-4.4,9.2h36.6v-7.1H541.1z"/>
			<path class="st4" d="M588.8,698.4c0,0.6,0,1.2-0.1,1.9c-0.1,0.6-0.1,1.2-0.2,1.8c1.7,0.7,3.5,1.2,5.5,1.6c2,0.3,4,0.5,6.1,0.5
				h0.4c1,0,1.7,0.1,2.3,0.2c0.6,0.1,1,0.4,1.2,0.7c0.3,0.3,0.4,0.7,0.5,1.2s0.1,1,0.1,1.7v3.7c0,0.9-0.1,1.6-0.2,2.1
				c-0.1,0.5-0.3,0.9-0.6,1.2s-0.7,0.5-1.3,0.5c-0.5,0.1-1.2,0.1-2,0.1h-0.6c-3.5,0-6.4-0.4-8.9-1.2s-4.6-1.8-6.5-3.1
				c-1.2,1.3-2.7,2.4-4.6,3.1c-1.8,0.8-4,1.1-6.6,1.1h-10.5c-0.8,0-1.5,0-2-0.1s-0.9-0.3-1.3-0.5c-0.3-0.3-0.5-0.7-0.6-1.2
				s-0.2-1.2-0.2-2.1v-3.7c0-0.7,0-1.2,0.1-1.7s0.2-0.9,0.5-1.2s0.7-0.5,1.2-0.7c0.5-0.1,1.3-0.2,2.3-0.2h5.9c1.1,0,2.1-0.1,3-0.4
				c0.8-0.2,1.5-0.7,2-1.2c0.5-0.6,0.9-1.3,1.1-2.3c0.2-1,0.4-2.2,0.4-3.7v-23.8h13.6L588.8,698.4L588.8,698.4z M575.1,653.1
				c0-0.9,0.2-1.8,0.5-2.6s0.8-1.5,1.4-2.1c0.6-0.6,1.3-1.1,2.1-1.4c0.8-0.3,1.7-0.5,2.6-0.5c0.9,0,1.8,0.2,2.6,0.5s1.5,0.8,2.1,1.4
				c0.6,0.6,1.1,1.3,1.4,2.1c0.3,0.8,0.5,1.7,0.5,2.6c0,0.9-0.2,1.8-0.5,2.6s-0.8,1.5-1.4,2.1c-0.6,0.6-1.3,1.1-2.1,1.4
				c-0.8,0.3-1.7,0.5-2.6,0.5c-0.9,0-1.8-0.2-2.6-0.5s-1.5-0.8-2.1-1.4c-0.6-0.6-1.1-1.3-1.4-2.1
				C575.2,654.9,575.1,654.1,575.1,653.1z"/>
			<path class="st4" d="M636.9,716.2c-2.5,0-4.7-0.2-6.6-0.6c-1.9-0.4-3.7-1-5.2-1.6c-1.5-0.7-2.9-1.4-4.1-2.3
				c-1.2-0.9-2.2-1.7-3.2-2.5c-3.1,4.4-7.6,6.5-13.5,6.5h-4.1c-0.8,0-1.5,0-2-0.1s-0.9-0.3-1.3-0.5c-0.3-0.3-0.5-0.7-0.6-1.2
				s-0.2-1.2-0.2-2.1v-3.7c0-0.7,0-1.2,0.1-1.7s0.2-0.9,0.5-1.2s0.7-0.5,1.2-0.7c0.5-0.1,1.3-0.2,2.3-0.2h2.5c1.7,0,3.2-0.5,4.5-1.4
				s2.2-2.3,2.8-4.2c1.7-5.7,3.7-10.3,5.8-13.8c2.2-3.5,4.5-6.2,6.8-8.1c2.3-1.9,4.6-3.2,6.9-3.8c2.2-0.6,4.3-1,6.1-1
				c2.6,0,4.9,0.3,7.1,1c2.1,0.7,4,1.6,5.7,2.7c1.7,1.1,3.2,2.5,4.4,4s2.3,3.2,3.1,4.9s1.4,3.5,1.8,5.3c0.4,1.8,0.6,3.6,0.6,5.3
				c0,2.7-0.5,5.3-1.4,7.8s-2.3,4.7-4.1,6.7s-4,3.5-6.7,4.7C643.4,715.6,640.4,716.2,636.9,716.2z M645.7,695.1
				c0-1.2-0.2-2.5-0.7-3.9s-1.1-2.7-2-3.9s-2-2.2-3.4-3.1c-1.3-0.8-2.9-1.2-4.6-1.2c-1.7,0-3.2,0.5-4.6,1.5c-1.4,1-2.7,2.4-3.8,4
				c-1.1,1.7-2.1,3.6-2.9,5.7c-0.8,2.2-1.5,4.4-1.9,6.6c0.5,0.5,1.1,0.9,2.1,1.4c0.9,0.5,2,0.9,3.2,1.3c1.2,0.4,2.4,0.7,3.7,1
				s2.5,0.4,3.6,0.4c1.7,0,3.3-0.2,4.6-0.5c1.4-0.4,2.6-0.9,3.6-1.7s1.7-1.8,2.3-3.1C645.5,698.4,645.7,696.9,645.7,695.1z"/>
			<path class="st4" d="M738.4,697.7c0,1.3,0.1,2.3,0.2,3.1c0.1,0.8,0.4,1.5,0.7,2c0.4,0.5,0.9,0.9,1.5,1.1c0.6,0.2,1.5,0.3,2.6,0.3
				h3.8c1,0,1.7,0.1,2.3,0.2c0.6,0.1,1,0.4,1.2,0.7c0.3,0.3,0.4,0.7,0.5,1.2s0.1,1,0.1,1.7v3.7c0,0.9-0.1,1.6-0.2,2.1
				c-0.1,0.5-0.3,0.9-0.6,1.2s-0.7,0.5-1.3,0.5c-0.5,0.1-1.2,0.1-2,0.1H741c-2.4,0-4.4-0.2-6.1-0.5c-1.7-0.4-3.2-0.9-4.4-1.5
				s-2.2-1.3-3-2.1s-1.4-1.7-1.8-2.6c-2.3,1.2-4.5,2-6.6,2.5s-4.4,0.7-6.7,0.7s-4.7-0.3-7.1-1c-2.4-0.6-4.6-1.6-6.5-3
				c-2-1.4-3.5-3.1-4.8-5.2c-1.2-2.1-1.9-4.7-1.9-7.7c0-2.6,0.5-5,1.6-7.2c1-2.1,2.4-4.1,4.2-5.8s3.8-3.2,6-4.5s4.6-2.5,7-3.5
				s4.8-1.8,7.2-2.5s4.6-1.3,6.6-1.8V664h13.5v33.7H738.4z M724.9,680.4c-3,0.6-5.7,1.4-8.1,2.2c-2.4,0.9-4.5,1.8-6.2,2.9
				c-1.7,1.1-3,2.3-4,3.7c-0.9,1.4-1.4,2.9-1.4,4.6c0,1.4,0.3,2.5,0.8,3.4s1.2,1.7,2.1,2.3c0.9,0.6,1.8,1,2.9,1.2
				c1.1,0.2,2.2,0.4,3.2,0.4c2,0,3.9-0.3,5.7-0.8c1.8-0.6,3.5-1.3,4.9-2.2L724.9,680.4L724.9,680.4z M708.5,650.4
				c0-0.9,0.2-1.8,0.5-2.6s0.8-1.5,1.4-2.1c0.6-0.6,1.3-1.1,2.1-1.4c0.8-0.3,1.7-0.5,2.6-0.5c0.9,0,1.8,0.2,2.6,0.5s1.5,0.8,2.1,1.4
				c0.6,0.6,1.1,1.3,1.4,2.1c0.3,0.8,0.5,1.7,0.5,2.6c0,0.9-0.2,1.8-0.5,2.6s-0.8,1.5-1.4,2.1c-0.6,0.6-1.3,1.1-2.1,1.4
				c-0.8,0.3-1.7,0.5-2.6,0.5c-0.9,0-1.8-0.2-2.6-0.5s-1.5-0.8-2.1-1.4c-0.6-0.6-1.1-1.3-1.4-2.1
				C708.7,652.2,708.5,651.4,708.5,650.4z M724.2,650.4c0-0.9,0.2-1.8,0.5-2.6s0.8-1.5,1.4-2.1c0.6-0.6,1.3-1.1,2.1-1.4
				c0.8-0.3,1.7-0.5,2.6-0.5c0.9,0,1.8,0.2,2.6,0.5s1.5,0.8,2.1,1.4c0.6,0.6,1.1,1.3,1.4,2.1c0.3,0.8,0.5,1.7,0.5,2.6
				c0,0.9-0.2,1.8-0.5,2.6s-0.8,1.5-1.4,2.1c-0.6,0.6-1.3,1.1-2.1,1.4c-0.8,0.3-1.7,0.5-2.6,0.5c-0.9,0-1.8-0.2-2.6-0.5
				s-1.5-0.8-2.1-1.4c-0.6-0.6-1.1-1.3-1.4-2.1C724.3,652.2,724.2,651.4,724.2,650.4z"/>
			<path class="st4" d="M746.7,715.6c-0.8,0-1.5,0-2-0.1s-0.9-0.3-1.3-0.5c-0.3-0.3-0.5-0.7-0.6-1.2s-0.2-1.2-0.2-2.1V708
				c0-0.7,0-1.2,0.1-1.7s0.2-0.9,0.5-1.2s0.7-0.5,1.2-0.7c0.5-0.1,1.3-0.2,2.3-0.2h13.4v-31.4h13.6v42.8L746.7,715.6L746.7,715.6z
				 M760,653.1c0-0.9,0.2-1.8,0.5-2.6s0.8-1.5,1.4-2.1c0.6-0.6,1.3-1.1,2.1-1.4c0.8-0.3,1.7-0.5,2.6-0.5c0.9,0,1.8,0.2,2.6,0.5
				s1.5,0.8,2.1,1.4c0.6,0.6,1.1,1.3,1.4,2.1c0.3,0.8,0.5,1.7,0.5,2.6c0,0.9-0.2,1.8-0.5,2.6s-0.8,1.5-1.4,2.1
				c-0.6,0.6-1.3,1.1-2.1,1.4c-0.8,0.3-1.7,0.5-2.6,0.5c-0.9,0-1.8-0.2-2.6-0.5s-1.5-0.8-2.1-1.4c-0.6-0.6-1.1-1.3-1.4-2.1
				C760.2,654.9,760,654.1,760,653.1z"/>
			<path class="st4" d="M790.4,640.6H804v54.8c0,1.7,0.1,3.2,0.4,4.3c0.3,1.1,0.6,2,1.1,2.7s1.1,1.1,1.9,1.4
				c0.8,0.3,1.7,0.4,2.7,0.4h2.6c1,0,1.7,0.1,2.3,0.2c0.6,0.1,1,0.4,1.2,0.7c0.3,0.3,0.4,0.7,0.5,1.2s0.1,1,0.1,1.7v3.7
				c0,0.9-0.1,1.6-0.2,2.1c-0.1,0.5-0.3,0.9-0.6,1.2s-0.7,0.5-1.3,0.5c-0.5,0.1-1.2,0.1-2,0.1h-5.8c-2.9,0-5.4-0.4-7.5-1.3
				c-2.1-0.8-3.8-2-5.1-3.5s-2.3-3.3-3-5.5c-0.6-2.1-0.9-4.5-0.9-7.1V640.6z"/>
			<path class="st4" d="M849.2,716.2c-2.5,0-4.7-0.2-6.6-0.6c-1.9-0.4-3.7-1-5.2-1.6c-1.5-0.7-2.9-1.4-4.1-2.3
				c-1.2-0.9-2.2-1.7-3.2-2.5c-3.1,4.4-7.6,6.5-13.5,6.5h-4.1c-0.8,0-1.5,0-2-0.1s-0.9-0.3-1.3-0.5c-0.3-0.3-0.5-0.7-0.6-1.2
				s-0.2-1.2-0.2-2.1v-3.7c0-0.7,0-1.2,0.1-1.7s0.2-0.9,0.5-1.2s0.7-0.5,1.2-0.7c0.5-0.1,1.3-0.2,2.3-0.2h2.5c1.7,0,3.2-0.5,4.5-1.4
				s2.2-2.3,2.8-4.2c1.7-5.7,3.7-10.3,5.8-13.8c2.2-3.5,4.5-6.2,6.8-8.1c2.3-1.9,4.6-3.2,6.9-3.8c2.2-0.6,4.3-1,6.1-1
				c2.6,0,4.9,0.3,7.1,1c2.1,0.7,4,1.6,5.7,2.7c1.7,1.1,3.2,2.5,4.4,4s2.3,3.2,3.1,4.9s1.4,3.5,1.8,5.3c0.4,1.8,0.6,3.6,0.6,5.3
				c0,2.7-0.5,5.3-1.4,7.8s-2.3,4.7-4.1,6.7s-4,3.5-6.7,4.7C855.7,715.6,852.6,716.2,849.2,716.2z M858,695.1c0-1.2-0.2-2.5-0.7-3.9
				s-1.1-2.7-2-3.9s-2-2.2-3.4-3.1c-1.3-0.8-2.9-1.2-4.6-1.2c-1.7,0-3.2,0.5-4.6,1.5c-1.4,1-2.7,2.4-3.8,4c-1.1,1.7-2.1,3.6-2.9,5.7
				c-0.8,2.2-1.5,4.4-1.9,6.6c0.5,0.5,1.1,0.9,2.1,1.4c0.9,0.5,2,0.9,3.2,1.3c1.2,0.4,2.4,0.7,3.7,1s2.5,0.4,3.6,0.4
				c1.7,0,3.3-0.2,4.6-0.5c1.4-0.4,2.6-0.9,3.6-1.7s1.7-1.8,2.3-3.1C857.7,698.4,858,696.9,858,695.1z"/>
			<path class="st4" d="M897.3,619.3c-0.6-0.1-1.3-0.2-2.2-0.3s-1.6-0.2-2.2-0.2c-1.1,0-2,0.2-2.7,0.7s-1,1.3-1,2.5s0.5,2.2,1.5,3.1
				c1,0.9,2.6,1.3,4.8,1.3h3v6.3h-19.4v-6.3h5.1c-0.6-0.7-1.1-1.5-1.5-2.6c-0.5-1-0.7-2.1-0.7-3.2c0-1,0.2-2.1,0.6-3.1
				c0.4-1,1-1.9,1.9-2.7s2-1.4,3.3-1.9s2.9-0.7,4.8-0.7c0.8,0,1.7,0,2.6,0.1c0.9,0.1,2,0.2,3.2,0.4L897.3,619.3z M882.1,640.6h13.6
				v75h-13.6V640.6z"/>
		</g>
		<g>
			<path class="st4" d="M102.8,770.1h17.4l12.9,41.2h0.2l12.9-41.2h17.4v54.3h-10.4v-44.8H153l-14.6,44.8H128l-14.6-44.8l-0.2,0.2
				v44.7h-10.4V770.1z"/>
			<path class="st4" d="M212.1,824.4h-9.9V819H202c-1.6,2.1-3.6,3.6-5.8,4.7c-2.3,1.1-4.7,1.7-7.3,1.7c-2.4,0-4.4-0.4-6.1-1.2
				c-1.7-0.8-3.1-1.9-4.2-3.3c-1.1-1.4-1.9-3.1-2.5-5c-0.5-1.9-0.8-4-0.8-6.2v-25.3h10.4v21.4c0,0.3,0,0.6,0.1,0.9
				c0,0.3,0.1,0.6,0.1,0.9c0.1,1,0.1,1.9,0.2,2.9c0,1,0.2,1.9,0.6,2.8c0.5,1.3,1.2,2.3,2.3,3c1,0.7,2.2,1,3.6,1
				c1.8,0,3.3-0.4,4.5-1.3c1.2-0.8,2.1-1.9,2.8-3.2s1.2-2.7,1.5-4.3s0.4-3.1,0.4-4.6v-19.6h10.4v40.1H212.1z"/>
			<path class="st4" d="M222.8,784.3h9.9v5.5h0.2c1.7-2.2,3.6-3.8,5.8-4.8s4.6-1.6,7.4-1.6c2.4,0,4.5,0.4,6.2,1.2s3.1,1.9,4.2,3.3
				c1.1,1.4,1.9,3.1,2.4,5s0.8,4,0.8,6.2v25.3h-10.4V803c0-1.3,0-2.6-0.1-3.9c-0.1-1.2-0.3-2.5-0.8-3.8c-0.5-1.5-1.3-2.5-2.2-3.1
				c-0.9-0.5-2.2-0.8-3.7-0.8c-1.7,0-3.2,0.4-4.4,1.3c-1.2,0.8-2.1,1.9-2.8,3.2s-1.2,2.7-1.5,4.3s-0.5,3.1-0.5,4.5v19.6h-10.4
				L222.8,784.3L222.8,784.3z"/>
			<path class="st4" d="M270.6,767.1H281v10h-10.4V767.1z M270.6,784.3H281v40.1h-10.4V784.3z"/>
			<path class="st4" d="M318,793c-1.1-0.6-2.2-1-3.4-1.2c-1.2-0.2-2.4-0.3-3.6-0.3c-1.8,0-3.4,0.4-4.7,1.1c-1.3,0.7-2.4,1.7-3.3,2.8
				c-0.9,1.2-1.5,2.5-1.9,4s-0.6,3.1-0.6,4.7c0,1.7,0.2,3.3,0.6,4.9c0.4,1.6,1.1,3,2,4.2s2,2.2,3.4,2.9s3,1.1,4.9,1.1
				c1.3,0,2.6-0.2,4.1-0.6c1.5-0.4,2.8-0.8,3.9-1.3l0.5,8.7c-1.6,0.5-3.3,0.9-5.1,1c-1.8,0.2-3.6,0.3-5.3,0.3c-3.2,0-6-0.5-8.5-1.6
				s-4.5-2.5-6.2-4.4s-2.9-4.1-3.8-6.7c-0.9-2.6-1.3-5.4-1.3-8.5c0-3,0.4-5.7,1.3-8.3c0.9-2.5,2.1-4.7,3.8-6.6
				c1.7-1.8,3.7-3.3,6.1-4.4c2.4-1.1,5.2-1.6,8.3-1.6c1.7,0,3.4,0.1,5.1,0.3s3.4,0.5,5,1L318,793z"/>
			<path class="st4" d="M326.7,767.1h10.4v10h-10.4V767.1z M326.7,784.3h10.4v40.1h-10.4V784.3z"/>
			<path class="st4" d="M348.1,784.3h10v5.7h0.2c0.6-1.2,1.4-2.2,2.3-3s1.9-1.5,3-2.1c1.1-0.5,2.2-0.9,3.5-1.2
				c1.2-0.3,2.5-0.4,3.7-0.4c3.1,0,5.8,0.6,7.9,1.7c2.2,1.1,3.9,2.7,5.2,4.6c1.3,1.9,2.3,4.1,2.8,6.6c0.6,2.5,0.9,5.2,0.9,7.9
				c0,2.8-0.3,5.5-0.9,8s-1.6,4.8-2.9,6.7c-1.4,1.9-3.1,3.5-5.3,4.6c-2.2,1.2-4.8,1.7-8,1.7c-2.5,0-4.7-0.5-6.5-1.4
				c-1.9-0.9-3.6-2.3-5.2-4.2h-0.2v20.9h-10.4v-56.1H348.1z M368,791.5c-1.7,0-3.2,0.4-4.4,1.2c-1.2,0.8-2.2,1.8-2.9,3.1
				c-0.7,1.3-1.3,2.7-1.6,4.2c-0.3,1.5-0.5,3-0.5,4.5c0,1.4,0.2,2.8,0.5,4.3c0.4,1.5,0.9,2.9,1.6,4.1c0.7,1.3,1.7,2.3,2.8,3.1
				c1.2,0.8,2.5,1.2,4.1,1.2c1.7,0,3.1-0.4,4.3-1.3c1.1-0.8,2-1.9,2.7-3.2s1.1-2.7,1.4-4.2s0.4-3,0.4-4.4s-0.1-2.8-0.4-4.4
				c-0.3-1.5-0.7-2.9-1.3-4.1s-1.5-2.3-2.6-3.1C371.1,791.9,369.7,791.5,368,791.5z"/>
			<path class="st4" d="M397.4,786.4c2.3-1,4.6-1.8,7-2.3s4.8-0.8,7.4-0.8c5.5,0,9.7,1.3,12.5,4c2.9,2.7,4.3,6.8,4.3,12.4
				c0,4.1,0,8.2,0.1,12.3s0.2,8.1,0.5,12.3H420c-0.1-1-0.2-2-0.3-3c-0.1-1-0.1-2-0.1-3h-0.2c-0.6,1.1-1.4,2.1-2.3,2.9
				c-0.9,0.9-1.9,1.6-3,2.2c-1.1,0.6-2.2,1.1-3.4,1.4c-1.2,0.3-2.4,0.5-3.7,0.5c-1.7,0-3.5-0.3-5.1-0.8c-1.7-0.5-3.2-1.3-4.5-2.3
				s-2.4-2.3-3.2-3.7c-0.8-1.5-1.2-3.2-1.2-5.1c0-1.3,0.1-2.6,0.4-3.8s0.8-2.4,1.6-3.5c1-1.5,2.2-2.6,3.7-3.5c1.4-0.9,3-1.5,4.7-2
				c1.7-0.4,3.4-0.7,5.2-0.9c1.8-0.1,3.6-0.2,5.3-0.2c0.9,0,1.8,0,2.6,0c0.9,0,1.7,0,2.5,0c0-1.6-0.2-3-0.5-4.1
				c-0.4-1.1-0.9-2-1.7-2.7c-0.7-0.7-1.7-1.2-2.8-1.5c-1.1-0.3-2.5-0.5-4-0.5c-2.3,0-4.5,0.4-6.6,1.1c-2.1,0.8-4,1.8-5.8,3.2
				L397.4,786.4z M403.1,812.8c0,0.9,0.2,1.7,0.6,2.3s0.9,1.1,1.6,1.5c0.6,0.4,1.3,0.7,2.1,0.8c0.8,0.2,1.6,0.2,2.3,0.2
				c1.7,0,3.1-0.3,4.3-1c1.2-0.6,2.2-1.5,2.9-2.6c0.8-1.1,1.3-2.3,1.7-3.7c0.4-1.4,0.6-2.8,0.6-4.3v-0.2h-6.3
				c-1.1,0-2.2,0.1-3.4,0.3c-1.2,0.2-2.2,0.6-3.2,1.2c-0.9,0.5-1.7,1.3-2.3,2.1C403.4,810.4,403.1,811.5,403.1,812.8z"/>
			<path class="st4" d="M439.2,766h10.4v58.4h-10.4V766z"/>
			<path class="st4" d="M460.8,767.1h10.4v10h-10.4V767.1z M460.8,784.3h10.4v40.1h-10.4V784.3z"/>
			<path class="st4" d="M498.3,825.3c-2.1,0-3.9-0.3-5.5-0.9c-1.6-0.6-2.9-1.4-4-2.5s-1.9-2.5-2.4-4.1s-0.8-3.4-0.8-5.5V792h-7.7
				v-7.6h7.7v-8L496,773v11.4h9.3v7.6H496v19c0,0.8,0.1,1.6,0.2,2.3c0.2,0.7,0.4,1.4,0.8,2s0.9,1.1,1.5,1.4c0.6,0.4,1.4,0.5,2.3,0.5
				c0.8,0,1.6-0.1,2.5-0.2c0.8-0.2,1.6-0.4,2.3-0.9l0.3,8.2c-1.2,0.4-2.5,0.6-3.8,0.8C500.9,825.3,499.6,825.3,498.3,825.3z"/>
			<path class="st4" d="M529.1,813.6h0.2l9.7-29.3h10.6l-15,39.8c-0.5,1.4-1.1,2.8-1.6,4.3c-0.5,1.4-1.1,2.8-1.7,4.1
				s-1.3,2.5-2.1,3.6s-1.7,2.1-2.8,2.9c-1.1,0.8-2.3,1.5-3.7,2s-3,0.7-4.8,0.7c-2.5,0-5-0.4-7.4-1.1l0.7-7.7
				c0.8,0.3,1.7,0.5,2.7,0.6s1.9,0.1,2.7,0.1c1,0,1.9-0.2,2.7-0.5s1.6-0.8,2.3-1.6c0.5-0.6,0.9-1.2,1.2-2c0.3-0.7,0.5-1.5,0.5-2.3
				c0,0,0-0.2,0-0.4c0-0.3,0-0.4,0-0.4L508,784.3h11.5L529.1,813.6z"/>
			<path class="st4" d="M575.6,797.1c0-4.2,0.6-8,1.7-11.5c1.2-3.4,2.9-6.4,5.1-8.8c2.3-2.4,5-4.3,8.4-5.7c3.3-1.3,7.1-2,11.4-2
				c4.3,0,8.1,0.7,11.4,2c3.3,1.3,6.1,3.2,8.3,5.7c2.3,2.5,4,5.4,5.1,8.8c1.2,3.4,1.7,7.2,1.7,11.4s-0.6,8-1.7,11.4
				c-1.2,3.5-2.9,6.4-5.1,8.9c-2.2,2.5-5,4.4-8.3,5.8c-3.3,1.4-7.1,2.1-11.4,2.1c-4.3,0-8.1-0.7-11.4-2.1c-3.3-1.4-6.1-3.3-8.4-5.8
				c-2.3-2.5-4-5.5-5.1-8.9C576.2,805.1,575.6,801.3,575.6,797.1z M602.3,777.7c-2.7,0-5.1,0.6-7,1.7c-1.9,1.2-3.5,2.7-4.7,4.5
				s-2.1,3.9-2.7,6.3c-0.6,2.3-0.8,4.7-0.8,7.1c0,2.4,0.3,4.8,0.9,7.1c0.6,2.3,1.5,4.4,2.7,6.2s2.8,3.3,4.7,4.4
				c1.9,1.1,4.3,1.7,7,1.7c2.8,0,5.1-0.6,7.1-1.7c1.9-1.1,3.5-2.6,4.7-4.5s2.1-4,2.6-6.3c0.5-2.4,0.8-4.7,0.8-7.1
				c0-2.4-0.3-4.8-0.8-7.1c-0.6-2.3-1.4-4.4-2.7-6.2c-1.2-1.8-2.8-3.3-4.7-4.4C607.4,778.3,605,777.7,602.3,777.7z"/>
			<path class="st4" d="M641.7,792H634v-7.6h7.7v-5.6c0-2,0.3-3.8,0.8-5.5s1.4-3.1,2.4-4.3c1.1-1.2,2.4-2.1,4-2.8s3.4-1,5.5-1
				c2.5,0,5.1,0.3,7.6,0.9l-0.8,8.6c-0.4-0.3-0.8-0.5-1.1-0.7s-0.7-0.3-1-0.4c-0.3-0.1-0.7-0.2-1.1-0.2c-0.4,0-0.8-0.1-1.3-0.1
				c-0.9,0-1.6,0.2-2.2,0.5c-0.6,0.4-1.1,0.8-1.4,1.4c-0.4,0.6-0.6,1.2-0.8,2c-0.2,0.7-0.2,1.5-0.2,2.2v5h9.1v7.6h-9.1v32.4h-10.4
				V792z"/>
			<path class="st4" d="M700.6,778.7H685v-8.6h42v8.6h-15.5v45.7h-10.9V778.7z"/>
			<path class="st4" d="M726.2,786.4c2.3-1,4.6-1.8,7-2.3s4.8-0.8,7.4-0.8c5.5,0,9.7,1.3,12.5,4c2.9,2.7,4.3,6.8,4.3,12.4
				c0,4.1,0,8.2,0.1,12.3s0.2,8.1,0.5,12.3h-9.2c-0.1-1-0.2-2-0.3-3s-0.1-2-0.1-3h-0.2c-0.6,1.1-1.4,2.1-2.3,2.9
				c-0.9,0.9-1.9,1.6-3,2.2c-1.1,0.6-2.2,1.1-3.4,1.4c-1.2,0.3-2.4,0.5-3.7,0.5c-1.7,0-3.5-0.3-5.1-0.8c-1.7-0.5-3.2-1.3-4.5-2.3
				s-2.4-2.3-3.2-3.7c-0.8-1.5-1.2-3.2-1.2-5.1c0-1.3,0.1-2.6,0.4-3.8c0.3-1.2,0.8-2.4,1.6-3.5c1-1.5,2.2-2.6,3.7-3.5
				c1.4-0.9,3-1.5,4.7-2c1.7-0.4,3.4-0.7,5.2-0.9c1.8-0.1,3.6-0.2,5.3-0.2c0.9,0,1.8,0,2.6,0c0.9,0,1.7,0,2.5,0c0-1.6-0.2-3-0.5-4.1
				c-0.4-1.1-0.9-2-1.7-2.7c-0.7-0.7-1.7-1.2-2.8-1.5s-2.5-0.5-4-0.5c-2.3,0-4.5,0.4-6.6,1.1c-2.1,0.8-4,1.8-5.8,3.2L726.2,786.4z
				 M731.8,812.8c0,0.9,0.2,1.7,0.6,2.3c0.4,0.6,0.9,1.1,1.6,1.5c0.6,0.4,1.3,0.7,2.1,0.8c0.8,0.2,1.6,0.2,2.3,0.2
				c1.7,0,3.1-0.3,4.3-1c1.2-0.6,2.2-1.5,2.9-2.6c0.8-1.1,1.3-2.3,1.7-3.7s0.6-2.8,0.6-4.3v-0.2h-6.3c-1.1,0-2.2,0.1-3.4,0.3
				s-2.2,0.6-3.2,1.2c-0.9,0.5-1.7,1.3-2.3,2.1C732.1,810.4,731.8,811.5,731.8,812.8z"/>
			<path class="st4" d="M767.7,766h10.4v23.4h0.2c1.4-2.1,3.2-3.6,5.2-4.6s4.3-1.5,6.8-1.5c3.1,0,5.8,0.6,7.9,1.7
				c2.2,1.1,3.9,2.7,5.2,4.6c1.3,1.9,2.3,4.1,2.8,6.6c0.6,2.5,0.9,5.2,0.9,7.9s-0.3,5.4-0.9,7.9c-0.6,2.5-1.6,4.8-2.9,6.7
				c-1.3,2-3.1,3.5-5.2,4.7c-2.1,1.2-4.8,1.7-7.8,1.7c-2.5,0-4.7-0.5-6.8-1.4c-2.1-1-3.9-2.4-5.4-4.4h-0.2v4.9h-10.1V766H767.7z
				 M787.6,791.5c-1.7,0-3.2,0.4-4.4,1.2s-2.2,1.8-2.9,3.1s-1.3,2.7-1.6,4.2s-0.5,3-0.5,4.5c0,1.4,0.2,2.8,0.5,4.3
				c0.4,1.5,0.9,2.9,1.6,4.1c0.7,1.3,1.7,2.3,2.8,3.1c1.2,0.8,2.5,1.2,4.1,1.2c1.7,0,3.1-0.4,4.3-1.3c1.1-0.8,2-1.9,2.7-3.2
				s1.1-2.7,1.4-4.2c0.3-1.5,0.4-3,0.4-4.4s-0.1-2.8-0.4-4.4c-0.3-1.5-0.7-2.9-1.3-4.1c-0.6-1.3-1.5-2.3-2.6-3.1
				C790.7,791.9,789.3,791.5,787.6,791.5z"/>
			<path class="st4" d="M852.1,824.4h-9.9V819H842c-1.6,2.1-3.6,3.6-5.8,4.7c-2.3,1.1-4.7,1.7-7.3,1.7c-2.4,0-4.4-0.4-6.1-1.2
				c-1.7-0.8-3.1-1.9-4.2-3.3c-1.1-1.4-1.9-3.1-2.5-5c-0.5-1.9-0.8-4-0.8-6.2v-25.3h10.4v21.4c0,0.3,0,0.6,0.1,0.9
				c0,0.3,0.1,0.6,0.1,0.9c0.1,1,0.1,1.9,0.2,2.9c0,1,0.2,1.9,0.6,2.8c0.5,1.3,1.2,2.3,2.3,3c1,0.7,2.2,1,3.6,1
				c1.8,0,3.3-0.4,4.5-1.3c1.2-0.8,2.1-1.9,2.8-3.2s1.2-2.7,1.5-4.3s0.4-3.1,0.4-4.6v-19.6h10.4v40.1H852.1z"/>
			<path class="st4" d="M863,766h10.4v34.3h0.2l12.5-16h12.3l-14.9,17.9l16.8,22.2H887l-13.4-19.5h-0.2v19.5H863V766z"/>
		</g>
	</g>
</g>
</svg>
