<?xml version="1.0" encoding="UTF-8"?>
<!-- Generator: Adobe Illustrator 27.6.1, SVG Export Plug-In . SVG Version: 6.00 Build 0)  -->
<svg xmlns="http://www.w3.org/2000/svg" xmlns:xlink="http://www.w3.org/1999/xlink" version="1.1" id="Layer_1" x="0px" y="0px" viewBox="0 0 841.89 595.28" style="enable-background:new 0 0 841.89 595.28;" xml:space="preserve">
<style type="text/css">
	.st0{fill:#01693A;}
	.st1{fill:#00875A;}
	.st2{fill:#EAC66B;}
</style>
<g>
	<g>
		<g>
			<path class="st0" d="M699.21,337.66l49.68-17.32V306.6h-49.68l49.68-7.75v-12.27l-48.5-14.57l48.5,7.06V264.7l-48.5-21.86     l48.5,13.18v-6.61c0-3.92-2.19-7.51-5.67-9.3L673.09,204c-1.5-0.77-3.15-1.16-4.79-1.16v164.39c0.83,0,1.67-0.1,2.48-0.3     l70.13-17.15c4.68-1.14,7.98-5.34,7.98-10.16v-11.29L699.21,337.66z"></path>
			<path class="st1" d="M637.37,337.66l-49.68-17.32V306.6h49.68l-49.68-7.75v-12.27l48.5-14.57l-48.5,7.06V264.7l48.5-21.86     l-48.5,13.18v-6.61c0-3.92,2.19-7.51,5.67-9.3L663.49,204c1.5-0.77,3.15-1.16,4.79-1.16v164.39c-0.83,0-1.67-0.1-2.48-0.3     l-70.13-17.15c-4.68-1.14-7.98-5.34-7.98-10.16v-11.29L637.37,337.66z"></path>
		</g>
	</g>
	<g>
		<path class="st2" d="M651.13,274.37c0,0,3-5.12,7.41-5.82c0,0-5.47,4.15-6.09,11.91c0,0,2.91-6.79,6.53-7.85    c0,0-4.85,7.19-2.74,14.6c0,0,2.38-10.15,5.56-11.47c0,0-2.16,9.44,1.94,13.63c0,0-1.24-10.68,2.69-13.32l0.49-0.13v22.46h-1.15    v1.19h2.51h2.51v-1.19h-1.15v-22.46l0.49,0.13c3.93,2.65,2.69,13.32,2.69,13.32c4.1-4.19,1.94-13.63,1.94-13.63    c3.18,1.32,5.56,11.47,5.56,11.47c2.12-7.41-2.74-14.6-2.74-14.6c3.62,1.06,6.53,7.85,6.53,7.85c-0.62-7.76-6.09-11.91-6.09-11.91    c4.41,0.71,7.41,5.82,7.41,5.82c-0.71-7.24-8.56-9.44-8.56-9.44c3-1.32,7.59,1.32,7.59,1.32c-2.74-5.82-11.65-5.21-11.65-5.21    c0.88-0.97,5.29-0.88,5.29-0.88c-3.15-2.68-9.09-0.71-9.09-0.71l-0.3-1.3l-0.45-1.53l-0.39,1.48l-0.36,1.34    c0,0-5.93-1.98-9.09,0.71c0,0,4.41-0.09,5.29,0.88c0,0-8.91-0.62-11.65,5.21c0,0,4.59-2.65,7.59-1.32    C659.69,264.93,651.84,267.13,651.13,274.37z"></path>
		<path class="st2" d="M696.31,295.78c-14.41-6.41-28.01,9.59-28.01,9.59s-13.6-16-28.01-9.59c0,0,12.65-0.18,25.88,11.71l-4,3.76    l-1.12-1.88c0,0,0.53-1.82-0.35-1.71c-0.88,0.12-1.59,1.71-1.59,1.71s0.71,2.59,1.41,3c0.71,0.41-3,2.82-5.29,0.76    s-2.82,2.41-2.82,2.41s2.06,4.47,6.94,1.76l2.94-2.41c0,0,1.94,1.5,1.65,3.28c0,0,1.65,1.19,1.94-1.22c0,0-0.47-2.35-1.71-3.12    l4.13-4.06l4.13,4.06c-1.24,0.76-1.71,3.12-1.71,3.12c0.29,2.41,1.94,1.22,1.94,1.22c-0.29-1.78,1.65-3.28,1.65-3.28l2.94,2.41    c4.88,2.71,6.94-1.76,6.94-1.76s-0.53-4.47-2.82-2.41s-6-0.35-5.29-0.76s1.41-3,1.41-3s-0.71-1.59-1.59-1.71s-0.35,1.71-0.35,1.71    l-1.12,1.88l-4-3.76C683.66,295.6,696.31,295.78,696.31,295.78z"></path>
	</g>
</g>
<g>
	<g>
		<rect x="116.95" y="252.38" width="2.9" height="3.13"></rect>
		<rect x="110.64" y="252.38" width="2.9" height="3.13"></rect>
		<path d="M140.96,276.39c0.23,0.41,0.46,0.83,0.74,1.2c1.43,2.58,3.78,3.78,6.5,3.78c3.27,0,5.85-1.84,6.73-4.56    c1.57,2.44,3.96,4.56,7.19,4.56c6.77,0,7.33-6.04,7.33-8.43V260.3h-2.49v13.04c0,3.6-2.07,5.72-5.48,5.72    c-4.1,0-5.95-3.41-5.95-7.14v-10.14h-2.49v11.57c0,3.6-2.07,5.72-5.48,5.72c-4.1,0-5.95-3.41-5.95-7.14v-10.14h-2.49v11.06    c0,3.64-2.07,5.67-5.48,5.67h-3.73h-0.23h-2.3c-3.36,0-5.35-1.98-5.48-5.53l-0.05-14.19l-2.49,0.78v1.98    c-7.97-0.55-13.55,1.98-13.69,8.99c-0.09,4.61,3.46,7.97,7.1,7.97c4.98,0,6.82-3.96,6.82-3.96c0.41,2.76,1.94,6.31,7.14,6.31h2.95    h0.23h4.37C138.38,280.86,140.18,278.65,140.96,276.39z M113.17,276.3c-4.01,0-5.02-4.15-4.93-5.81    c0.41-7.65,8.11-6.54,11.11-6.64C119.44,268.92,119.9,276.3,113.17,276.3z"></path>
		<rect x="212.39" y="250.95" width="2.9" height="3.09"></rect>
		<rect x="206.07" y="250.95" width="2.9" height="3.09"></rect>
		<path d="M270.4,272.47v-21.52h-2.49v21.89c0,3.64-2.07,5.67-5.48,5.67h-3.73h-0.24h-2.11c-3.87,0-5.44-2.63-5.9-5.67    c-0.23-4.93-3.32-10.46-9.72-10.46c-6.31,0-9.4,5.58-9.68,10.6c-0.18,4.56-3.87,5.53-5.53,5.53h-1.19h-0.37h-9.12    c-0.18,0-0.55-0.05-1.11-0.18c3.09-1.8,5.9-4.88,5.95-9.82c0-4.66-3.32-9.17-8.99-9.17c-5.62,0-8.99,4.52-8.99,9.17    c0,4.93,2.81,8.02,5.99,9.82c-0.55,0.14-0.97,0.18-1.15,0.18h-9.03h-0.42h-6.13v-11.38c0-4.75-2.77-6.87-7.37-6.87    c-3.96,0-7.14,1.61-7.79,5.9h2.44c0.37-2.81,2.72-3.6,5.35-3.6c2.9,0,4.52,1.06,4.79,4.47v11.48h-13.13v2.35h21.84h0.42h8.25    c0.74,0,2.77-0.28,4.93-1.06c2.21,0.78,4.15,1.06,4.93,1.06h8.34h0.37h1.61c3.13,0,5.07-1.43,5.9-2.77    c1.29,3.55,4.42,6.31,8.89,6.31c4.93,0,8.11-3.32,9.26-7.47c0.78,1.57,3.55,3.92,6.73,3.92h1.75h0.24h4.37    C269.85,280.86,270.4,274.87,270.4,272.47z M204.18,268.56c0-3.13,2.4-7.14,6.5-7.14s6.5,4.01,6.5,7.14    c-0.05,4.75-3.55,7.47-6.5,8.8C207.73,276.02,204.28,273.3,204.18,268.56z M240.73,282.15c-4.98,0-7.01-4.89-7.01-8.76    c0-3.83,2.03-8.76,7.01-8.76c5.02,0,7.05,4.93,7.05,8.76C247.78,277.27,245.75,282.15,240.73,282.15z"></path>
		<rect x="277.04" y="250.95" width="2.49" height="29.91"></rect>
		<rect x="297.54" y="252.38" width="2.9" height="3.13"></rect>
		<rect x="303.86" y="252.38" width="2.9" height="3.13"></rect>
		<path d="M374.5,261.13c-5.16,0-11.71,1.89-15.02,9.22l0.55-5.99h-2.49v14.15h-6.4h-0.24h-2.11c-3.87,0-5.44-2.63-5.9-5.67    c-0.23-4.93-3.32-10.46-9.72-10.46c-6.31,0-9.4,5.58-9.68,10.6c-0.18,4.56-3.87,5.53-5.53,5.53h-1.15h-0.42h-2.12    c-3.36,0-5.35-1.98-5.48-5.53l-0.05-14.19l-2.49,0.78v1.98c-7.97-0.55-13.55,1.98-13.69,8.99c-0.09,4.61,3.46,7.97,7.1,7.97    c4.98,0,6.82-3.96,6.82-3.96c0.41,2.76,1.94,6.31,7.14,6.31h2.76h0.42h1.56c3.13,0,5.07-1.43,5.9-2.77    c1.29,3.55,4.42,6.31,8.89,6.31c4.93,0,8.11-3.32,9.26-7.47c0.78,1.57,3.55,3.92,6.73,3.92h1.75h0.24h24.97    c5.85,0,10.23-3.55,10.23-9.45C386.34,264.27,380.03,261.13,374.5,261.13z M300.08,276.3c-4.01,0-5.02-4.15-4.93-5.81    c0.41-7.65,8.11-6.54,11.11-6.64C306.34,268.92,306.81,276.3,300.08,276.3z M333.16,282.15c-4.98,0-7.01-4.89-7.01-8.76    c0-3.83,2.03-8.76,7.01-8.76c5.02,0,7.05,4.93,7.05,8.76C340.21,277.27,338.19,282.15,333.16,282.15z M376.11,278.51h-16.82    c0.32-4.84,3.18-15.16,15.62-15.16c3.13,0,8.71,2.12,8.71,8.07C383.62,275.33,380.4,278.51,376.11,278.51z"></path>
		<path d="M444.03,250.95h-2.49v21.89c0,3.64-2.07,5.67-5.48,5.67h-3.77h-0.19h-9.26c-1.15,0-2.17-0.18-3.13-0.51    c3.87-2.72,6.73-6.54,8.39-9.49c-1.47-8.16-6.91-9.22-10.6-9.26c-3.64,0.05-9.08,1.11-10.55,9.26c1.61,2.95,4.47,6.78,8.39,9.49    c-1.01,0.32-2.03,0.51-3.13,0.51h-9.08h-0.37h-1.84c-3.36,0-5.44-2.03-5.44-5.67v-21.89h-2.49v21.52c0,2.4,0.55,8.39,7.33,8.39    h2.44h0.37h8.29c2.21,0,4.24-0.6,6.08-1.52c1.84,0.92,3.92,1.52,6.13,1.52h8.48h0.19h4.42c6.78,0,7.33-5.99,7.33-8.39v-21.52    H444.03z M409.7,267.96c1.34-6.18,6.54-6.64,7.79-6.64c1.29,0,6.5,0.46,7.84,6.64c-0.37,1.15-3.09,6.41-7.84,9.08    C412.74,274.36,410.07,269.11,409.7,267.96z"></path>
		<rect x="450.67" y="250.95" width="2.49" height="29.91"></rect>
		<rect x="471.17" y="252.38" width="2.9" height="3.13"></rect>
		<rect x="477.49" y="252.38" width="2.9" height="3.13"></rect>
		<rect x="494.3" y="250.95" width="2.9" height="3.09"></rect>
		<path d="M502.14,272.47V260.3h-2.49v12.54c0,3.64-2.07,5.67-5.48,5.67h-3.73h-0.23h-2.3c-3.36,0-5.35-1.98-5.48-5.53l-0.05-14.19    l-2.49,0.78v1.98c-7.97-0.55-13.55,1.98-13.69,8.99c-0.09,4.61,3.46,7.97,7.1,7.97c4.98,0,6.82-3.96,6.82-3.96    c0.42,2.76,1.94,6.31,7.14,6.31h2.95h0.23h4.37C501.59,280.86,502.14,274.87,502.14,272.47z M473.71,276.3    c-4.01,0-5.02-4.15-4.93-5.81c0.42-7.65,8.11-6.54,11.11-6.64C479.97,268.92,480.44,276.3,473.71,276.3z"></path>
		<path d="M529.6,276.8c1.52,2.58,4.15,4.47,7.97,4.47c6.64,0,9.68-5.85,9.68-11.01c0-5.07-3.04-11.01-9.68-11.01    s-9.68,5.95-9.68,11.01v2.54c0,3.6-2.07,5.72-5.48,5.72h-3.5h-0.19h-2.03c-3.36,0-5.44-2.03-5.44-5.67v-21.89h-2.49v21.52    c0,2.4,0.55,8.39,7.33,8.39h2.62h0.19h4.1C526.84,280.86,528.73,278.88,529.6,276.8z M537.58,261.5c5.02,0,7.01,4.89,7.01,8.76    c0,4.19-1.98,8.76-7.01,8.76c-5.02,0-7.1-4.93-7.1-8.76C530.48,266.39,532.55,261.5,537.58,261.5z"></path>
		<rect x="553.89" y="250.95" width="2.49" height="29.91"></rect>
		<path d="M557.02,246.34c-0.28,0.51-0.83,0.51-1.01,0.51h-2.49v-1.57c0-1.15,0.37-2.17,1.43-2.17c0.92,0,1.24,0.64,1.29,1.43h1.57    c-0.09-1.47-1.24-2.86-2.81-2.86c-2.07,0-2.95,1.75-2.95,3.59v1.57h-1.15l-0.55,1.47h5.53c0.78,0,1.57-0.14,2.21-1.01    L557.02,246.34z"></path>
	</g>
	<g>
		<polygon points="119.23,313.57 110.14,313.57 110.14,304.13 105.66,304.13 105.66,327.95 110.14,327.95 110.14,317.6     119.23,317.6 119.23,327.95 123.71,327.95 123.71,304.13 119.23,304.13   "></polygon>
		<path d="M137.47,303.84c-3.09,0-5.52,1.08-7.26,3.24c-1.75,2.16-2.62,5.17-2.62,9.02c0,3.83,0.88,6.83,2.64,9s4.18,3.26,7.25,3.26    c3.08,0,5.5-1.09,7.26-3.26s2.64-5.17,2.64-9c0-3.85-0.88-6.86-2.63-9.02S140.57,303.84,137.47,303.84z M141.46,322.23    c-0.91,1.39-2.24,2.09-3.98,2.09c-1.75,0-3.08-0.7-3.98-2.09c-0.91-1.39-1.36-3.44-1.36-6.14c0-2.72,0.45-4.78,1.36-6.19    s2.23-2.11,3.98-2.11s3.08,0.7,3.98,2.11c0.91,1.41,1.36,3.47,1.36,6.19C142.82,318.8,142.36,320.84,141.46,322.23z"></path>
		<polygon points="155.78,304.13 151.22,304.13 151.22,327.95 165.83,327.95 165.83,323.89 155.78,323.89   "></polygon>
		<polygon points="173.67,314.03 169.07,304.13 164.36,304.13 171.27,318.55 171.27,327.95 175.76,327.95 175.76,318.51     182.58,304.13 178.18,304.13   "></polygon>
		<path d="M207.96,315.76c-0.35,1.16-0.65,2.21-0.9,3.14s-0.46,1.84-0.66,2.73c-0.12-0.94-0.29-1.9-0.5-2.9s-0.49-2.01-0.81-3.04    l-3.44-11.57h-6.42v23.83h3.87v-19.99c0.13,0.55,0.29,1.19,0.47,1.9c0.19,0.71,0.5,1.83,0.94,3.37l4.22,14.72h3.28l4.35-14.72    c0.27-0.88,0.52-1.75,0.75-2.62c0.24-0.88,0.45-1.75,0.66-2.64v19.99h3.84v-23.83h-6.16L207.96,315.76z"></path>
		<path d="M227.63,304.13l-7.18,23.83h4.26l1.52-5.22h8.23l1.47,5.22h4.48l-7.17-23.83H227.63z M227.29,318.95l3.02-10.66    l3.04,10.66H227.29z"></path>
		<polygon points="260.59,304.13 255.49,304.13 247.52,315.14 247.52,304.13 243.07,304.13 243.07,327.95 247.52,327.95     247.52,320.98 250.89,316.67 256.61,327.95 261.71,327.95 253.89,312.82   "></polygon>
		<polygon points="282.22,304.13 277.12,304.13 269.15,315.14 269.15,304.13 264.7,304.13 264.7,327.95 269.15,327.95     269.15,320.98 272.53,316.67 278.24,327.95 283.34,327.95 275.52,312.82   "></polygon>
		<path d="M291.12,304.13l-7.18,23.83h4.26l1.52-5.22h8.23l1.47,5.22h4.48l-7.17-23.83H291.12z M290.79,318.95l3.02-10.66    l3.04,10.66H290.79z"></path>
		<polygon points="320.26,313.57 311.17,313.57 311.17,304.13 306.69,304.13 306.69,327.95 311.17,327.95 311.17,317.6     320.26,317.6 320.26,327.95 324.74,327.95 324.74,304.13 320.26,304.13   "></polygon>
		<path d="M352.71,315.76c-0.35,1.16-0.65,2.21-0.9,3.14s-0.46,1.84-0.66,2.73c-0.12-0.94-0.29-1.9-0.5-2.9s-0.49-2.01-0.81-3.04    l-3.44-11.57h-6.42v23.83h3.87v-19.99c0.13,0.55,0.29,1.19,0.47,1.9c0.19,0.71,0.5,1.83,0.94,3.37l4.22,14.72h3.28l4.35-14.72    c0.27-0.88,0.52-1.75,0.75-2.62c0.24-0.88,0.45-1.75,0.66-2.64v19.99h3.84v-23.83h-6.16L352.71,315.76z"></path>
		<path d="M381.42,319.39c0,1.82-0.36,3.12-1.08,3.88s-1.92,1.14-3.61,1.14c-1.59,0-2.74-0.39-3.46-1.18    c-0.71-0.79-1.07-2.07-1.07-3.84v-15.27h-4.48v15.07c0,3.08,0.74,5.38,2.23,6.89s3.75,2.26,6.78,2.26c2.9,0,5.13-0.73,6.7-2.18    c1.56-1.46,2.34-3.54,2.34-6.25v-15.79h-4.35L381.42,319.39L381.42,319.39z"></path>
		<path d="M405.01,316.95c0,0.92,0.03,1.78,0.08,2.58c0.05,0.81,0.14,1.56,0.26,2.26c-0.37-0.97-0.78-1.93-1.23-2.88    s-0.93-1.89-1.46-2.82l-6.85-11.97h-4.78v23.83h4.16v-13.17c0-1.02-0.02-1.92-0.07-2.7c-0.05-0.78-0.12-1.49-0.23-2.14    c0.48,1.18,0.95,2.26,1.4,3.23c0.45,0.97,0.88,1.8,1.29,2.5l7.44,12.29h4.16v-23.83h-4.16L405.01,316.95L405.01,316.95z"></path>
		<rect x="414.91" y="304.13" width="4.51" height="23.83"></rect>
		<path d="M436.1,323.43c-0.81,0.63-1.77,0.95-2.86,0.95c-1.69,0-2.93-0.67-3.73-2c-0.8-1.33-1.2-3.4-1.2-6.19    c0-2.88,0.4-5.03,1.2-6.46c0.8-1.42,2.01-2.14,3.63-2.14c1.08,0,1.97,0.29,2.67,0.88s1.2,1.45,1.5,2.59l4.13-1.01    c-0.46-2.02-1.38-3.56-2.75-4.62c-1.38-1.07-3.14-1.6-5.28-1.6c-3.07,0-5.45,1.07-7.12,3.21s-2.51,5.18-2.51,9.11    c0,4.01,0.79,7.05,2.37,9.1c1.58,2.06,3.92,3.09,7.01,3.09c2.25,0,4.13-0.55,5.63-1.64c1.5-1.09,2.55-2.67,3.14-4.73l-4.13-1.14    C437.47,321.94,436.91,322.8,436.1,323.43z"></path>
		<rect x="445.92" y="304.13" width="4.51" height="23.83"></rect>
		<path d="M471,305.88c-1.38-1.17-3.47-1.75-6.27-1.75h-8.51v23.83h4.53v-9.63h4.42c2.58,0,4.54-0.61,5.89-1.82    c1.34-1.21,2.02-2.98,2.02-5.3C473.06,308.82,472.37,307.05,471,305.88z M467.55,313.78c-0.68,0.51-1.84,0.77-3.48,0.77h-3.33    v-6.71h3.33c1.64,0,2.8,0.26,3.48,0.77c0.68,0.51,1.02,1.38,1.02,2.59C468.57,312.41,468.23,313.26,467.55,313.78z"></path>
		<path d="M479.85,304.13l-7.18,23.83h4.26l1.52-5.22h8.23l1.47,5.22h4.48l-7.17-23.83H479.85z M479.51,318.95l3.02-10.66    l3.04,10.66H479.51z"></path>
		<polygon points="499.95,304.13 495.38,304.13 495.38,327.95 510,327.95 510,323.89 499.95,323.89   "></polygon>
		<rect x="513.8" y="304.13" width="4.51" height="23.83"></rect>
		<polygon points="522.09,308.06 528.35,308.06 528.35,327.95 532.88,327.95 532.88,308.06 539.13,308.06 539.13,304.13     522.09,304.13   "></polygon>
		<polygon points="549.17,314.03 544.57,304.13 539.85,304.13 546.77,318.55 546.77,327.95 551.26,327.95 551.26,318.51     558.08,304.13 553.68,304.13   "></polygon>
	</g>
	<g>
		<polygon points="119.23,313.57 110.14,313.57 110.14,304.13 105.66,304.13 105.66,327.95 110.14,327.95 110.14,317.6     119.23,317.6 119.23,327.95 123.71,327.95 123.71,304.13 119.23,304.13   "></polygon>
		<path d="M137.47,303.84c-3.09,0-5.52,1.08-7.26,3.24c-1.75,2.16-2.62,5.17-2.62,9.02c0,3.83,0.88,6.83,2.64,9s4.18,3.26,7.25,3.26    c3.08,0,5.5-1.09,7.26-3.26s2.64-5.17,2.64-9c0-3.85-0.88-6.86-2.63-9.02S140.57,303.84,137.47,303.84z M141.46,322.23    c-0.91,1.39-2.24,2.09-3.98,2.09c-1.75,0-3.08-0.7-3.98-2.09c-0.91-1.39-1.36-3.44-1.36-6.14c0-2.72,0.45-4.78,1.36-6.19    s2.23-2.11,3.98-2.11s3.08,0.7,3.98,2.11c0.91,1.41,1.36,3.47,1.36,6.19C142.82,318.8,142.36,320.84,141.46,322.23z"></path>
		<polygon points="155.78,304.13 151.22,304.13 151.22,327.95 165.83,327.95 165.83,323.89 155.78,323.89   "></polygon>
		<polygon points="173.67,314.03 169.07,304.13 164.36,304.13 171.27,318.55 171.27,327.95 175.76,327.95 175.76,318.51     182.58,304.13 178.18,304.13   "></polygon>
		<path d="M207.96,315.76c-0.35,1.16-0.65,2.21-0.9,3.14s-0.46,1.84-0.66,2.73c-0.12-0.94-0.29-1.9-0.5-2.9s-0.49-2.01-0.81-3.04    l-3.44-11.57h-6.42v23.83h3.87v-19.99c0.13,0.55,0.29,1.19,0.47,1.9c0.19,0.71,0.5,1.83,0.94,3.37l4.22,14.72h3.28l4.35-14.72    c0.27-0.88,0.52-1.75,0.75-2.62c0.24-0.88,0.45-1.75,0.66-2.64v19.99h3.84v-23.83h-6.16L207.96,315.76z"></path>
		<path d="M227.63,304.13l-7.18,23.83h4.26l1.52-5.22h8.23l1.47,5.22h4.48l-7.17-23.83H227.63z M227.29,318.95l3.02-10.66    l3.04,10.66H227.29z"></path>
		<polygon points="260.59,304.13 255.49,304.13 247.52,315.14 247.52,304.13 243.07,304.13 243.07,327.95 247.52,327.95     247.52,320.98 250.89,316.67 256.61,327.95 261.71,327.95 253.89,312.82   "></polygon>
		<polygon points="282.22,304.13 277.12,304.13 269.15,315.14 269.15,304.13 264.7,304.13 264.7,327.95 269.15,327.95     269.15,320.98 272.53,316.67 278.24,327.95 283.34,327.95 275.52,312.82   "></polygon>
		<path d="M291.12,304.13l-7.18,23.83h4.26l1.52-5.22h8.23l1.47,5.22h4.48l-7.17-23.83H291.12z M290.79,318.95l3.02-10.66    l3.04,10.66H290.79z"></path>
		<polygon points="320.26,313.57 311.17,313.57 311.17,304.13 306.69,304.13 306.69,327.95 311.17,327.95 311.17,317.6     320.26,317.6 320.26,327.95 324.74,327.95 324.74,304.13 320.26,304.13   "></polygon>
		<path d="M352.71,315.76c-0.35,1.16-0.65,2.21-0.9,3.14s-0.46,1.84-0.66,2.73c-0.12-0.94-0.29-1.9-0.5-2.9s-0.49-2.01-0.81-3.04    l-3.44-11.57h-6.42v23.83h3.87v-19.99c0.13,0.55,0.29,1.19,0.47,1.9c0.19,0.71,0.5,1.83,0.94,3.37l4.22,14.72h3.28l4.35-14.72    c0.27-0.88,0.52-1.75,0.75-2.62c0.24-0.88,0.45-1.75,0.66-2.64v19.99h3.84v-23.83h-6.16L352.71,315.76z"></path>
		<path d="M381.42,319.39c0,1.82-0.36,3.12-1.08,3.88s-1.92,1.14-3.61,1.14c-1.59,0-2.74-0.39-3.46-1.18    c-0.71-0.79-1.07-2.07-1.07-3.84v-15.27h-4.48v15.07c0,3.08,0.74,5.38,2.23,6.89s3.75,2.26,6.78,2.26c2.9,0,5.13-0.73,6.7-2.18    c1.56-1.46,2.34-3.54,2.34-6.25v-15.79h-4.35L381.42,319.39L381.42,319.39z"></path>
		<path d="M405.01,316.95c0,0.92,0.03,1.78,0.08,2.58c0.05,0.81,0.14,1.56,0.26,2.26c-0.37-0.97-0.78-1.93-1.23-2.88    s-0.93-1.89-1.46-2.82l-6.85-11.97h-4.78v23.83h4.16v-13.17c0-1.02-0.02-1.92-0.07-2.7c-0.05-0.78-0.12-1.49-0.23-2.14    c0.48,1.18,0.95,2.26,1.4,3.23c0.45,0.97,0.88,1.8,1.29,2.5l7.44,12.29h4.16v-23.83h-4.16L405.01,316.95L405.01,316.95z"></path>
		<rect x="414.91" y="304.13" width="4.51" height="23.83"></rect>
		<path d="M436.1,323.43c-0.81,0.63-1.77,0.95-2.86,0.95c-1.69,0-2.93-0.67-3.73-2c-0.8-1.33-1.2-3.4-1.2-6.19    c0-2.88,0.4-5.03,1.2-6.46c0.8-1.42,2.01-2.14,3.63-2.14c1.08,0,1.97,0.29,2.67,0.88s1.2,1.45,1.5,2.59l4.13-1.01    c-0.46-2.02-1.38-3.56-2.75-4.62c-1.38-1.07-3.14-1.6-5.28-1.6c-3.07,0-5.45,1.07-7.12,3.21s-2.51,5.18-2.51,9.11    c0,4.01,0.79,7.05,2.37,9.1c1.58,2.06,3.92,3.09,7.01,3.09c2.25,0,4.13-0.55,5.63-1.64c1.5-1.09,2.55-2.67,3.14-4.73l-4.13-1.14    C437.47,321.94,436.91,322.8,436.1,323.43z"></path>
		<rect x="445.92" y="304.13" width="4.51" height="23.83"></rect>
		<path d="M471,305.88c-1.38-1.17-3.47-1.75-6.27-1.75h-8.51v23.83h4.53v-9.63h4.42c2.58,0,4.54-0.61,5.89-1.82    c1.34-1.21,2.02-2.98,2.02-5.3C473.06,308.82,472.37,307.05,471,305.88z M467.55,313.78c-0.68,0.51-1.84,0.77-3.48,0.77h-3.33    v-6.71h3.33c1.64,0,2.8,0.26,3.48,0.77c0.68,0.51,1.02,1.38,1.02,2.59C468.57,312.41,468.23,313.26,467.55,313.78z"></path>
		<path d="M479.85,304.13l-7.18,23.83h4.26l1.52-5.22h8.23l1.47,5.22h4.48l-7.17-23.83H479.85z M479.51,318.95l3.02-10.66    l3.04,10.66H479.51z"></path>
		<polygon points="499.95,304.13 495.38,304.13 495.38,327.95 510,327.95 510,323.89 499.95,323.89   "></polygon>
		<rect x="513.8" y="304.13" width="4.51" height="23.83"></rect>
		<polygon points="522.09,308.06 528.35,308.06 528.35,327.95 532.88,327.95 532.88,308.06 539.13,308.06 539.13,304.13     522.09,304.13   "></polygon>
		<polygon points="549.17,314.03 544.57,304.13 539.85,304.13 546.77,318.55 546.77,327.95 551.26,327.95 551.26,318.51     558.08,304.13 553.68,304.13   "></polygon>
	</g>
</g>
</svg>
