<?xml version="1.0" encoding="UTF-8"?><svg id="Layer_1" xmlns="http://www.w3.org/2000/svg" viewBox="0 0 1080 410"><defs><style>.cls-1{fill:#db3b27;}.cls-2{fill:#35211f;}.cls-3{fill:#4999d3;}.cls-4{fill:#54b548;}.cls-5{fill:#392015;}.cls-6{fill:#ee8022;}.cls-7{fill:#c6b29c;}</style></defs><g id="dark"><path class="cls-2" d="M248.14,298.41v-7.35c0-6.77-3.6-10.35-10.4-10.35-3.16,0-6.47.75-7.93,1.26l-.81.28-2.64,7.39,3.51-1.2c1.54-.53,5.82-1.12,9.26-1.12,1.24,0,1.98.06,2.11.11.24.4.24,2.37.24,3.8v1.97h-6.39c-5.87,0-9.52,4.89-9.52,10.01s3.31,7.97,8.63,7.97c2.82,0,5.39-.96,7.41-2.65.01.21.02.43.04.64l.1,1.68h7.81l-.59-2.24c-.71-2.68-.82-5.21-.82-10.21ZM232.24,299.8c.52-.05,1.45-.05,2.36-.05h6.31c-.54,3.71-2.75,4.99-6.04,4.99-1.96,0-2.63-1.85-2.63-4.51,0-.18,0-.32,0-.43Z"/><path class="cls-2" d="M578.61,298.41v-7.35c0-6.77-3.6-10.35-10.4-10.35-3.16,0-6.47.75-7.93,1.26l-.81.28-2.64,7.39,3.51-1.2c1.54-.53,5.82-1.12,9.26-1.12,1.24,0,1.98.06,2.11.11.24.4.24,2.37.24,3.8v1.97h-6.39c-5.87,0-9.52,4.89-9.52,10.01s3.31,7.97,8.63,7.97c2.82,0,5.39-.96,7.41-2.65.01.21.02.43.04.64l.1,1.68h7.81l-.59-2.24c-.71-2.68-.82-5.21-.82-10.21ZM562.71,299.8c.52-.05,1.45-.05,2.36-.05h6.31c-.54,3.71-2.75,4.99-6.04,4.99-1.96,0-2.63-1.85-2.63-4.51,0-.18,0-.32,0-.43Z"/><path class="cls-2" d="M266.88,291.77c-3.7-1.31-5.21-2.06-5.21-4.14,0-.07,0-.12,0-.17.4-.03,1.01-.03,1.42-.03,3.75,0,6.42.78,7.4,1.55l2.15,1.69,1.95-7.55-1.41-.6c-1.26-.54-4.2-1.8-7.94-1.8-6.54,0-10.29,2.9-10.29,7.97,0,5.43,4.52,7.24,8.15,8.7,3.85,1.55,6.21,2.66,6.21,5.88,0,.63-.08.79-.08.79-.04.04-.52.41-3.28.41-3.16,0-5.96-.57-8.1-1.63l-1.98-.99-1.72,6.77,1.24.66c1.19.63,5.03,1.92,9.34,1.92,7.1,0,11.34-3.47,11.34-9.3,0-6.84-5.32-8.73-9.21-10.11Z"/><path class="cls-2" d="M294.52,304.41c-4.06,0-7.32-.89-7.78-5.82,0,0,15.89,1.07,15.36-9.86-.25-5.21-4.68-8.03-9.08-8.03-6.09,0-12.55,5.35-12.55,15.26,0,9.38,5.23,15.21,13.66,15.21,4.05,0,6.65-1.33,7.84-2.12l.65-.43,1.4-8.55-3.43,2.31c-2.21,1.49-3.79,2.02-6.07,2.02ZM291.14,286.9c1.68-.24,4.71.1,5.48,4.18l-9.65.92c-.33-2.01,1.72-4.74,4.17-5.09Z"/><path class="cls-2" d="M349.81,280.71c-2.17,0-4.1.54-5.73,1.59v-1.26h-7.99l.56,2.22c.65,2.6.78,5.83.78,10.89v3.54c0,4.69-.09,8.18-.53,11.11l-.31,2.05h8.44l-.35-2.08c-.49-2.86-.58-6.23-.58-11.08v-6.52c.31-2.48,1.09-3.74,4.29-3.74,1.1,0,2.34.15,3.7.46l1.81.4.89-4.89.1-.91-.53-.63c-.24-.28-.97-1.14-4.53-1.14Z"/><path class="cls-2" d="M399.65,297.69v-3.54c0-11.11-4.91-13.44-9.02-13.44-3.06,0-5.4,1.34-6.83,3.89-1.86-3.11-4.68-3.89-7.04-3.89-2.21,0-3.77.67-4.9,1.61v-1.28h-7.99l.55,2.22c.65,2.61.78,5.84.78,10.89v3.54c0,4.68-.09,8.17-.53,11.11l-.31,2.05h8.44l-.35-2.08c-.49-2.87-.58-6.24-.58-11.08v-2.43c0-5.48.59-7.77,4.24-7.77,2.24,0,3.02.38,3.02,7.77v2.43c0,4.85-.1,8.21-.58,11.08l-.35,2.08h8.44l-.31-2.05c-.44-2.94-.53-6.43-.53-11.11v-2.43c0-5.48.58-7.77,4.18-7.77,2.3,0,3.02.35,3.02,7.77v2.43c0,4.68-.09,8.17-.53,11.11l-.31,2.05h8.44l-.35-2.08c-.49-2.87-.58-6.24-.58-11.08Z"/><path class="cls-2" d="M430.52,297.85v-3.81c0-4.66.1-8.11.58-10.91l.36-2.09h-8.45l.32,2.06c.44,2.87.53,6.45.53,10.94v2.71c0,6.75-1.76,7.94-5.45,7.94-3.12,0-4.13-.55-4.13-7.11v-3.54c0-4.66.1-8.11.58-10.91l.36-2.09h-8.45l.32,2.06c.44,2.87.53,6.45.53,10.94v4.64c0,10.33,5.14,12.5,9.46,12.5,2.7,0,4.97-.81,6.78-2.41v2.08h8.08l-.59-2.24c-.7-2.64-.82-5.69-.82-10.76Z"/><path class="cls-2" d="M461.68,297.85v-3.81c0-12.03-6.77-13.33-9.68-13.33-2.57,0-4.77.81-6.56,2.42v-2.09h-7.99l.56,2.22c.66,2.62.78,5.69.78,10.78v3.81c0,4.58-.09,8.01-.53,10.95l-.31,2.05h8.44l-.35-2.08c-.48-2.86-.58-6.29-.58-10.91v-2.71c0-6.75,1.65-7.94,5.12-7.94s4.46,1.04,4.46,7.94v2.71c0,4.58-.09,8.01-.53,10.95l-.31,2.05h8.44l-.35-2.08c-.48-2.86-.58-6.29-.58-10.91Z"/><path class="cls-2" d="M476.73,283.1l.32-2.06h-8.45l.36,2.09c.48,2.8.58,6.29.58,11.02v3.54c0,4.85-.1,8.21-.58,11.08l-.35,2.08h8.44l-.31-2.05c-.44-2.93-.53-6.43-.53-11.11v-3.54c0-4.69.09-8.18.53-11.05Z"/><path class="cls-2" d="M472.81,270.44c-2.37,0-4.16,1.84-4.16,4.27s1.79,4.21,4.16,4.21,4.27-1.77,4.27-4.21-1.8-4.27-4.27-4.27Z"/><path class="cls-2" d="M497.28,304.41c-7.99,0-7.99-8.34-7.99-11.09,0-5.07.73-5.9,5.18-5.9,2.45,0,4.91.43,7.21.9l1.71.35,1.43-6.38-1.39-.57c-1.23-.51-3.85-1.02-6.48-1.02-8.8,0-14.05,5.69-14.05,15.21s4.94,15.26,13.22,15.26c4.45,0,7.08-1.65,7.78-2.16l.59-.43,1.43-8.42-3.45,2.33c-1.9,1.29-2.92,1.9-5.19,1.9Z"/><path class="cls-2" d="M515.23,270.44c-2.37,0-4.16,1.84-4.16,4.27s1.79,4.21,4.16,4.21,4.27-1.77,4.27-4.21-1.8-4.27-4.27-4.27Z"/><path class="cls-2" d="M519.15,283.1l.32-2.06h-8.45l.36,2.09c.48,2.8.58,6.29.58,11.02v3.54c0,4.84-.1,8.21-.58,11.08l-.35,2.08h8.44l-.31-2.05c-.44-2.93-.53-6.43-.53-11.11v-3.54c0-4.69.09-8.18.53-11.05Z"/><path class="cls-2" d="M538.76,280.71c-2.12,0-4.03.51-5.67,1.51v-1.18h-7.99l.55,2.22c.65,2.61.78,5.84.78,10.89v11.44c0,4.07-.06,8.66-.53,11.78l-.31,2.05h8.44l-.35-2.08c-.31-1.81-.45-4.1-.53-7.03,1.51.57,3.17.88,4.84.88,6.34,0,13.11-4.01,13.11-15.26s-6.64-15.21-12.33-15.21ZM539.65,304.74c-2.85,0-6.26-.93-6.56-3.55v-8.92c0-3.71,1.07-4.85,4.57-4.85,3.23,0,6.67.8,6.67,10.31,0,6.4-1.28,7-4.68,7Z"/><path class="cls-2" d="M593.82,270.7l.36-2.09h-8.45l.32,2.05c.44,2.88.53,6.37.53,11.05v15.96c0,4.68-.09,8.17-.53,11.11l-.31,2.05h8.44l-.35-2.08c-.49-2.87-.58-6.24-.58-11.08v-15.96c0-4.73.1-8.22.58-11.02Z"/><path class="cls-2" d="M604.38,270.44c-2.37,0-4.16,1.84-4.16,4.27s1.79,4.21,4.16,4.21,4.27-1.77,4.27-4.21-1.8-4.27-4.27-4.27Z"/><path class="cls-2" d="M608.3,283.1l.32-2.06h-8.45l.36,2.09c.48,2.8.58,6.29.58,11.02v3.54c0,4.84-.1,8.21-.58,11.08l-.35,2.08h8.44l-.31-2.05c-.44-2.93-.53-6.43-.53-11.11v-3.54c0-4.69.09-8.18.53-11.05Z"/><path class="cls-2" d="M628.19,304.47c-2.78,0-2.91-.23-2.91-4.84v-10c0-.5-.01-.95-.02-1.38,0-.33-.01-.64-.02-.93.47,0,.95-.01,1.44-.02,1.87-.03,3.8-.05,6.04.02l1.63.05.77-6.33h-9.72c.03-1.41.11-4.01.31-5.56l.33-2.59-7.68,1.92.16,6.23h-3.72l-1.28,6.27h5.1v13.46c0,8.6,5.03,10.4,9.24,10.4,2.89,0,4.88-.73,5.73-1.04.1-.04.19-.07.25-.09l1.02-.31,2.15-10.42-4.19,4.18c-.33.26-2.04.95-4.64.95Z"/><path class="cls-2" d="M658.42,281.05l-.32,1.38c-.65,2.81-1.57,6.01-3.01,10.95l-2.05,7.08-2.25-7.19c-.55-1.9-1.07-3.56-1.55-5.05-.73-2.28-1.3-4.09-1.62-5.73l-.28-1.45h-8.78l1.29,2.58c1.13,2.25,2.08,4.94,3.4,8.67l6.38,17.43c-.96,2.15-1.83,3.8-2.54,5.16-.38.73-.72,1.37-1.01,1.97l-1.24,2.56h7.65l.45-1.13c.4-1.02.78-2.11,1.3-3.62.43-1.24.95-2.75,1.65-4.7l5.53-15.04c.53-1.48,1-2.82,1.43-4.04,1.1-3.17,1.9-5.46,2.84-7.22l1.39-2.62h-8.64Z"/><path class="cls-2" d="M322.03,304.41c-4.06,0-7.32-.89-7.78-5.82,0,0,15.89,1.07,15.36-9.86-.25-5.21-4.68-8.03-9.08-8.03-6.09,0-12.55,5.35-12.55,15.26,0,9.38,5.23,15.21,13.66,15.21,4.05,0,6.65-1.33,7.84-2.12l.65-.43,1.4-8.55-3.43,2.31c-2.21,1.49-3.79,2.02-6.07,2.02ZM318.65,286.9c1.68-.24,4.71.1,5.48,4.18l-9.65.92c-.33-2.01,1.72-4.74,4.17-5.09Z"/><path class="cls-2" d="M434.07,240.84c-3.37,0-20.17-1.74-20.17-14.85,0-1.93,1.97-2.91,5.86-2.91,3.64,0,6.35,1.12,8.96,2.21.97.4,1.9.78,2.87,1.12l1.99.73,2.6-10.27-1.71-.61c-1.46-.49-6.58-2.08-11.02-2.08-10.28,0-19.08,8.21-19.08,14.93,0,4.02,1.54,9.06,4.19,12.08h-14.8c-5.43,0-5.43-1.03-5.43-3.79v-23.21l-9.52,2.81v23.5c0,.21,0,.45-.01.6-.41.09-1.53.09-2.71.09h-2.92c-5.43,0-5.43-1.03-5.43-3.79v-16.5l-9.52,2.81v16.79c0,.21,0,.45-.01.6-.41.09-1.53.09-2.71.09h-2.92c-5.44,0-5.44-1.03-5.44-3.79v-20l-9.52,2.81v20.29c0,.21,0,.45-.01.6-.41.09-1.53.09-2.71.09h-47.11c-5.43,0-5.43-1.03-5.43-3.79v-23.25l-9.52,2.81v23.54c0,.21,0,.45-.01.6-.41.09-1.53.09-2.71.09h-2.94c-8.81,0-11.88.14-14.92-.33-.26-3.53-.69-9.46-1.11-12.43l-1.58-10.41-10.09,2.49,1.45,9.38c.94,6.61,2.11,14.83,2.11,24.83,0,3.48,0,5.77-10.32,5.79h-.69s-2.97,9.59-2.97,9.59h1.27c14.06-.04,21.92-5.25,22.23-19.96,1.68,1.19,4.08,1.21,4.08,1.21h12.08c2.8,0,5.87-1.48,7.75-3.62,2.3,2.41,5.81,3.62,10.45,3.62h46.58c2.8,0,5.88-1.47,7.77-3.62,2.29,2.4,5.8,3.62,10.45,3.62h2.39c2.8,0,5.87-1.48,7.75-3.62,2.3,2.41,5.81,3.62,10.45,3.62h2.39c2.81,0,5.89-1.47,7.75-3.62,2.3,2.4,5.82,3.62,10.46,3.62h41.59l1.91-10.48h-2.35Z"/><polygon class="cls-2" points="269.57 262.65 269.57 270.01 297.4 270.07 292.97 259.21 269.57 262.65"/><path class="cls-2" d="M577.75,227.83l-.18-2.3-10.04,2.52.17,1.71c.69,5.95.76,9.81.76,11.19,0,.09,0,.18,0,.24h-76.25c-3.71,0-4.57-.77-4.57-4.13v-19.81l-.9-.57c-1.9-1.22-6.16-2.52-12.42-2.52-15.98,0-21.68,10.11-21.68,19.58,0,8.53,5.46,17.6,15.59,17.6,5.8,0,9-2.76,11.24-5.8,2.13,3.45,5.8,5.36,10.94,5.71v.08h73.58c6.27,0,13.98-6.89,13.98-12.5v-.83c.02-2.13.06-6.58-.24-10.19ZM469.56,223.87c3.31,0,6.33.3,8.02.78v10.87c0,2.86-4.08,5.47-8.57,5.47-6.1,0-7.38-5.51-7.38-10.13,0-6.4,2.17-7.01,7.93-7.01Z"/><path class="cls-2" d="M629.15,215.27c-6.37,0-11.17,8.45-15.41,15.9-1.02,1.78-2,3.49-2.89,4.91-3.4,5.11-3.58,5.11-6.62,5.11-6.26,0-9.88-1.91-9.88-11.66v-19.06c0-11.82.12-15.71.65-21.9l.21-2.62-11.82,2.45.28,1.84c.63,4.51.63,8.47.63,20.23v19.62c0,13.42,6.45,20.74,18.66,21.21l2.12.03.61-.04v-.03c3.81-.25,6.53-1.55,8.89-4.27,6.59,2.84,14.85,5.78,18.06,5.78,7.06,0,13.98-6.85,13.98-13.82,0-4.93-9.98-23.69-17.45-23.69ZM637.52,243.3v.02c-6.11-.1-13.38-3.02-17.68-5.03,1.14-2.35,2.47-5.13,3.93-8.35,1.4-3.08,2.49-5.04,3.12-6.03,3.31,2.04,10.63,14.4,10.63,19.39Z"/><path class="cls-2" d="M648.47,176.46v6.77l15.38-3.26v-7.04l-15.38,3.53Z"/><path class="cls-2" d="M661.24,228.77v-18.29c0-11.95.11-15.84.64-21.88l.23-2.63-11.82,2.45.25,1.83c.63,4.52.63,8.48.63,20.23v18.29c0,12.1,0,15.75-.64,21.96l-.27,2.67,11.82-2.46-.21-1.79c-.52-4.61-.64-8.23-.64-20.39Z"/><polygon class="cls-2" points="481.2 196.71 457.8 200.14 457.8 207.5 485.63 207.57 481.2 196.71"/><polygon class="cls-2" points="563.48 210.12 567.05 220.97 576.37 219.84 577.24 210.18 563.48 210.12"/><polygon class="cls-5" points="854.37 240.44 852.01 260.29 852.95 280.16 852.97 280.61 852.91 281.07 850.31 300.8 851.98 319.63 852.51 325.57 846.56 325.22 828.5 324.15 809.61 326.83 808.93 326.92 808.25 326.84 789.43 324.5 779.3 325.54 769.17 324.5 750.35 326.84 749.68 326.92 748.99 326.83 730.1 324.15 712.04 325.22 706.09 325.57 706.62 319.63 708.29 300.8 705.7 281.07 705.63 280.61 705.65 280.16 706.6 260.29 704.23 240.44 704.18 239.95 704.21 239.47 705.61 219.49 704.5 198.03 704.48 197.56 704.54 197.1 707.32 175.69 704.69 152.9 704.64 152.37 704.68 151.84 706.71 130.09 705.38 110.2 705.35 109.67 705.43 109.14 707.94 91.15 708.47 87.34 712.28 86.76 729.55 84.19 730.32 84.08 731.07 84.2 749.57 86.99 768.07 83.2 768.69 83.08 769.33 83.1 779.3 83.55 789.27 83.1 789.92 83.08 790.54 83.2 809.04 86.99 827.53 84.2 828.29 84.08 829.05 84.19 846.33 86.76 850.13 87.34 850.66 91.15 853.18 109.14 853.26 109.67 853.22 110.2 851.89 130.09 853.92 151.84 853.97 152.37 853.91 152.9 851.28 175.69 854.07 197.1 854.12 197.56 854.1 198.03 853 219.49 854.39 239.47 854.43 239.95 854.37 240.44"/><polygon class="cls-7" points="806.94 216.54 789.26 230.54 776.75 210.07 761.59 212.5 745.58 228.38 728.72 211.35 720.63 219.92 720.51 228.64 740.72 254.27 751.09 253.46 767.81 235.62 783.12 252.44 794.32 254.25 810.93 235.44 836.17 241.62 838.09 225.75 836.8 219.96 806.94 216.54"/><polygon class="cls-1" points="790.27 224.85 780.43 208.75 803.63 214.27 790.27 224.85"/><polygon class="cls-4" points="755.42 254.44 767.77 241.26 778.72 253.3 755.42 254.44"/><polygon class="cls-7" points="800.56 287.46 761.14 289.33 780.6 309.26 794.27 294.34 807.72 306.85 823.47 287.15 799.19 288.96 800.56 287.46"/><polygon class="cls-7" points="835.5 263.44 743.98 262.81 736.27 264.88 722.7 297.57 738.2 311.82 748.98 280.04 782.2 282.95 782.25 282.95 782.31 282.95 826.93 281.41 827.42 281.39 827.76 281.03 835.57 272.59 835.91 272.22 835.89 271.72 835.5 263.44"/><path class="cls-3" d="M794.48,299.77c-.34.58-11.12,12.18-11.12,12.18l21.85-2.2-10.73-9.98Z"/><polygon class="cls-7" points="821.79 121.25 821.58 126.54 815.61 133.41 790.92 130.96 806.31 144.54 805.25 151.27 800.74 154.54 784.02 140.04 783.88 145.65 784.77 163.61 778.27 167.8 772.37 168.1 773.16 145.67 773.02 140.06 756.3 154.56 751.79 151.26 750.73 144.55 766.12 130.95 741.54 133.41 735.58 126.54 735.36 121.25 765.46 119.71 754.14 105.34 755.45 99.86 763.79 98.05 778.51 114.7 793.36 98.05 801.7 99.84 803.01 105.34 791.58 119.71 821.79 121.25"/><polygon class="cls-7" points="733.52 206.17 778.94 200.21 834.31 204.91 836.14 184.53 778.94 185.93 740.47 188.63 740.11 166.74 778.49 173.13 834.4 163.42 834.6 154.24 828.99 146.8 778.49 157.4 730.19 146.76 722.55 156.99 722.46 194.28 733.52 206.17"/><polygon class="cls-6" points="744.02 171.28 744.23 184.53 773.35 182.48 744.02 171.28"/></g></svg>